<svg xmlns="http://www.w3.org/2000/svg" width="150" height="150" viewBox="0 0 150 150">
  <g id="Group_14330" data-name="Group 14330" transform="translate(-1521 -10417)">
    <g id="Group_14322" data-name="Group 14322">
      <g id="Group_14318" data-name="Group 14318" transform="translate(515)">
        <g id="Ellipse_497" data-name="Ellipse 497" transform="translate(1006 10417)" fill="#f90" stroke="#707070" stroke-width="1">
          <circle cx="75" cy="75" r="75" stroke="none"/>
          <circle cx="75" cy="75" r="74.5" fill="none"/>
        </g>
      </g>
      <path id="Path_26154" data-name="Path 26154" d="M98.75,74,80.516,74a35.157,35.157,0,0,0-24.656-9.98L54.5,64a6.293,6.293,0,0,0-4.214,1.636L34.9,79.733l-.145.158a7.389,7.389,0,0,0-.266,10.375,7.981,7.981,0,0,0,5.677,2.422,7.115,7.115,0,0,0,4.7-1.778l12.716-11.6a1.249,1.249,0,1,0-1.685-1.845C42.047,90,43.828,88.516,42.938,89.266a5.129,5.129,0,0,1-6.609-.687,4.913,4.913,0,0,1,.266-6.984L51.963,67.5a3.789,3.789,0,0,1,2.553-1h1.345a32.707,32.707,0,0,1,23.266,9.63l.366.366H83.75v32.453h-1.5a1.25,1.25,0,0,0,0,2.5h1.745A6.176,6.176,0,0,0,90,116.5h8.75a1.251,1.251,0,0,0,1.25-1.25v-40A1.254,1.254,0,0,0,98.75,74ZM97.5,114,90,114a3.764,3.764,0,0,1-3.75-3.752V76.531L97.5,76.5ZM53.078,88.25A1.251,1.251,0,0,0,51.5,90.193l23.328,18.937a3.751,3.751,0,0,1,.552,5.259l-1.5,1.845a3.769,3.769,0,0,1-5.256.571l-1.814-1.519-5.7,7.017a4.581,4.581,0,0,1-6.4.688l-3.8-3.052-.823.825a8.75,8.75,0,0,1-12.256,1.3l-14.5-13.111H16.25v-32.6l4.292-.024.366-.366A33.108,33.108,0,0,1,44.141,66.5a1.251,1.251,0,0,0,1.25-1.25A1.342,1.342,0,0,0,44.141,64a35.673,35.673,0,0,0-24.656,9.859L1.25,74A1.249,1.249,0,0,0,0,75.25v40a1.251,1.251,0,0,0,1.25,1.25H10a6.171,6.171,0,0,0,6-5.034h6.367L36.2,123.975a11.151,11.151,0,0,0,7.077,2.525q.586,0,1.179-.059a11.144,11.144,0,0,0,6.739-3.178l1.9,1.645a7.072,7.072,0,0,0,9.944-1.021l4.106-5.053a6.274,6.274,0,0,0,8.669-1.02l1.5-1.845a6.262,6.262,0,0,0-.918-8.775Zm-39.328,22A3.748,3.748,0,0,1,10,113.991L2.5,114V76.5l11.25.034Z" transform="translate(1546 10396.75)" fill="#fff"/>
    </g>
  </g>
</svg>
