<svg xmlns="http://www.w3.org/2000/svg" width="35" height="40" viewBox="0 0 35 40">
  <path id="Path_25766" data-name="Path 25766" d="M12.5,2.5V5h10V2.5a2.5,2.5,0,0,1,5,0V5h3.75A3.75,3.75,0,0,1,35,8.75V12.5H0V8.75A3.75,3.75,0,0,1,3.75,5H7.5V2.5a2.5,2.5,0,0,1,5,0ZM0,15H35V36.25A3.751,3.751,0,0,1,31.25,40H3.75A3.75,3.75,0,0,1,0,36.25Zm5,8.75A1.252,1.252,0,0,0,6.25,25h2.5A1.254,1.254,0,0,0,10,23.75v-2.5A1.254,1.254,0,0,0,8.75,20H6.25A1.252,1.252,0,0,0,5,21.25Zm10,0A1.254,1.254,0,0,0,16.25,25h2.5A1.254,1.254,0,0,0,20,23.75v-2.5A1.254,1.254,0,0,0,18.75,20h-2.5A1.254,1.254,0,0,0,15,21.25ZM26.25,20A1.254,1.254,0,0,0,25,21.25v2.5A1.254,1.254,0,0,0,26.25,25h2.5A1.254,1.254,0,0,0,30,23.75v-2.5A1.254,1.254,0,0,0,28.75,20ZM5,33.75A1.252,1.252,0,0,0,6.25,35h2.5A1.254,1.254,0,0,0,10,33.75v-2.5A1.254,1.254,0,0,0,8.75,30H6.25A1.252,1.252,0,0,0,5,31.25ZM16.25,30A1.254,1.254,0,0,0,15,31.25v2.5A1.254,1.254,0,0,0,16.25,35h2.5A1.254,1.254,0,0,0,20,33.75v-2.5A1.254,1.254,0,0,0,18.75,30ZM25,33.75A1.254,1.254,0,0,0,26.25,35h2.5A1.254,1.254,0,0,0,30,33.75v-2.5A1.254,1.254,0,0,0,28.75,30h-2.5A1.254,1.254,0,0,0,25,31.25Z" fill="#f90"/>
</svg>
