<svg xmlns="http://www.w3.org/2000/svg" width="34.035" height="34" viewBox="0 0 34.035 34"><defs><style>.a{fill:#29abe2;}</style></defs><g transform="translate(0 -0.487)"><g transform="translate(0 0.487)"><path class="a" d="M30.462,27.128a2.657,2.657,0,0,0-2.04-.778l-1.969-1.969A14.8,14.8,0,1,0,0,15.276,14.8,14.8,0,0,0,20.549,28.9a14.62,14.62,0,0,0,3.385-2L25.9,28.869a2.67,2.67,0,0,0,.778,2.04L29.47,33.7a2.675,2.675,0,0,0,3.781-3.785Zm-6.556-5.3a11.632,11.632,0,0,1-1.177,1.38,11.265,11.265,0,0,1-1.341,1.145A11.226,11.226,0,0,1,6.852,7.336a11.225,11.225,0,0,1,19.162,7.936A11.1,11.1,0,0,1,23.906,21.832Z" transform="translate(0 -0.487)"/><g transform="translate(5.597 5.108)"><path class="a" d="M303.068,145.471h2.051a1.325,1.325,0,0,1,1.273,1.163h1.794a3.121,3.121,0,0,0-3.068-2.946h-2.051A3.121,3.121,0,0,0,300,146.634h1.794A1.319,1.319,0,0,1,303.068,145.471Z" transform="translate(-294.896 -143.688)"/><path class="a" d="M182.92,251.288H171.809a2.584,2.584,0,0,0-1.484.842.769.769,0,0,0-.228.614,4.875,4.875,0,0,0,2.429,3.435,10.878,10.878,0,0,0,4.644,1.6,13.846,13.846,0,0,0,1.644.1,13.278,13.278,0,0,0,2.978-.332,10.268,10.268,0,0,0,3.314-1.37,4.893,4.893,0,0,0,2.429-3.435.849.849,0,0,0-.228-.614,2.584,2.584,0,0,0-1.484-.842Z" transform="translate(-169.622 -247.45)"/><path class="a" d="M173.172,372.58a11.13,11.13,0,0,1-2.932,1.341,14.39,14.39,0,0,1-4.145.592c-.1,0-.21,0-.314,0a12.885,12.885,0,0,1-6.763-1.93,7.924,7.924,0,0,1-1.908-1.723c-.121-.157-.21-.128-.21.068V375.9a2.236,2.236,0,0,0,2.183,2.283H173.1a2.083,2.083,0,0,0,1.084-.3,2.3,2.3,0,0,0,1.1-1.98v-4.969c0-.2-.089-.225-.21-.068A7.816,7.816,0,0,1,173.172,372.58Z" transform="translate(-156.9 -362.657)"/></g></g></g></svg>