<svg xmlns="http://www.w3.org/2000/svg" width="150" height="150" viewBox="0 0 150 150">
  <g id="Group_14338" data-name="Group 14338" transform="translate(-831 -10417)">
    <g id="Ellipse_496" data-name="Ellipse 496" transform="translate(831 10417)" fill="#0cf" stroke="#707070" stroke-width="1">
      <circle cx="75" cy="75" r="75" stroke="none"/>
      <circle cx="75" cy="75" r="74.5" fill="none"/>
    </g>
    <path id="Path_26151" data-name="Path 26151" d="M55,49.984A10.027,10.027,0,0,0,65,40V9.859A9.986,9.986,0,0,0,55,0H10A9.991,9.991,0,0,0,0,9.859v30A10.055,10.055,0,0,0,10,50l5,0v8.477a1.545,1.545,0,0,0,1.531,1.537,1.48,1.48,0,0,0,.89-.3l12.93-9.706ZM30.344,47.5h-.828L17.5,56.531V47.5H10a7.48,7.48,0,0,1-7.5-7.359V10A7.508,7.508,0,0,1,10,2.5H55A7.508,7.508,0,0,1,62.5,10V40a7.488,7.488,0,0,1-7.5,7.48ZM90,20H73.75a1.25,1.25,0,0,0,0,2.5H90A7.5,7.5,0,0,1,97.5,30V59.859A7.381,7.381,0,0,1,90,67.219H82.5v9.022L70.483,67.219H50a7.5,7.5,0,0,1-7.5-7.5V58.473a1.25,1.25,0,0,0-2.5,0v1.247a9.879,9.879,0,0,0,9.859,9.859H69.516l12.93,9.706c.414.621.727.715,1.023.715A1.634,1.634,0,0,0,85,78.469V69.994h5a10,10,0,0,0,10-9.859V29.859A10,10,0,0,0,90,20Z" transform="translate(856 10452)" fill="#fff"/>
  </g>
</svg>
