<svg xmlns="http://www.w3.org/2000/svg" width="32.571" height="40" viewBox="0 0 32.571 40"><defs><style>.a{fill:#29abe2;}</style></defs><g transform="translate(-56.829)"><path class="a" d="M73.418,2.857h-.88a.851.851,0,0,1-.851-.851V1.977A1.977,1.977,0,0,0,69.709,0h-.046a1.977,1.977,0,0,0-1.977,1.977v.029a.851.851,0,0,1-.851.851h-.88a1.7,1.7,0,0,0-1.7,1.7v.034a1.7,1.7,0,0,0,1.7,1.7h7.463a1.7,1.7,0,0,0,1.7-1.7V4.554A1.7,1.7,0,0,0,73.418,2.857Zm-3.731,0A.857.857,0,1,1,70.543,2,.857.857,0,0,1,69.686,2.857ZM73.5,36H59.115a2.286,2.286,0,0,1-2.286-2.286V6.286A2.283,2.283,0,0,1,58.543,4h4.631a2.949,2.949,0,0,0-.059.589,2.843,2.843,0,0,0,2.84,2.84h7.463A2.866,2.866,0,0,0,76.2,4h3.484c1.834,0,2.857,1.023,2.857,2.286V23.457c-.19-.012-.378-.029-.571-.029a9.1,9.1,0,0,0-2.286.3V10.286h-20V33.143H72.858A9.075,9.075,0,0,0,73.5,36Zm8.47-10.857A7.429,7.429,0,1,0,89.4,32.571,7.429,7.429,0,0,0,81.972,25.143Zm4.854,5.9-4.571,5.143a1.143,1.143,0,0,1-1.568.133l-2.857-2.286a1.143,1.143,0,0,1,1.428-1.785l2.01,1.608,3.851-4.332a1.143,1.143,0,0,1,1.708,1.519ZM76.829,20H61.972a.571.571,0,0,1-.571-.571v-.571a.571.571,0,0,1,.571-.571H76.829a.572.572,0,0,1,.572.571v.571A.572.572,0,0,1,76.829,20Zm0-5.143H61.972a.571.571,0,0,1-.571-.571v-.571a.571.571,0,0,1,.571-.571H76.829a.572.572,0,0,1,.572.571v.571A.572.572,0,0,1,76.829,14.857Zm-2.857,9.714h-12A.571.571,0,0,1,61.4,24v-.571a.571.571,0,0,1,.571-.571h12a.571.571,0,0,1,.572.571V24A.572.572,0,0,1,73.972,24.571Zm-1.143,5.143H61.972a.571.571,0,0,1-.571-.571v-.571A.571.571,0,0,1,61.972,28H72.829a.571.571,0,0,1,.571.571v.571A.572.572,0,0,1,72.829,29.714Z"/></g></svg>