<svg xmlns="http://www.w3.org/2000/svg" xmlns:xlink="http://www.w3.org/1999/xlink" width="102" height="102" viewBox="0 0 102 102"><defs><style>.a{fill:#9b3082;}.b{fill:#c8e5f2;}.c{clip-path:url(#a);}.d{fill:#ff303f;}.e{fill:#8c4a37;}.f{fill:#fff1be;}.g{fill:#ffcb05;}.h{fill:#522e90;}.i{fill:#94d5f0;}.j{fill:#8cc63f;}</style><clipPath id="a"><circle class="a" cx="51" cy="51" r="51" transform="translate(86 845)"/></clipPath></defs><g transform="translate(-86 -845)"><circle class="b" cx="51" cy="51" r="51" transform="translate(86 845)"/><g class="c"><g transform="translate(97 860.796)"><g transform="translate(37.543 0.204)"><path class="d" d="M260,9.624l-1.317-2.039a1.569,1.569,0,0,1,0-1.7l1.292-2.022a2.415,2.415,0,0,0,.283-2.062,2.345,2.345,0,0,0-2.223-1.6H244.468a2.344,2.344,0,0,0-2.344,2.344V10.9a2.344,2.344,0,0,0,2.344,2.344h13.495a2.414,2.414,0,0,0,1.894-.876A2.346,2.346,0,0,0,260,9.624Z" transform="translate(-241.835 -8.205)"/><g transform="translate(0 -8)"><path class="e" d="M242.618,21.585a2.344,2.344,0,0,1-2.344-2.344V2.548A2.344,2.344,0,0,1,242.618.2h2.344V19.241A2.344,2.344,0,0,1,242.618,21.585Z" transform="translate(-240.274 -0.204)"/></g></g><path class="f" d="M102.4,126.326l-33-11a10.03,10.03,0,0,0-6.556,0L30.986,126.357Z" transform="translate(-26.144 -104.667)"/><path class="f" d="M43.811,220.983v50.532c0,.951.771-.426,1.721-.426h62.93c.951,0,1.721,1.377,1.721.426V220.983Z" transform="translate(-36.966 -193.032)"/><g transform="translate(21.84 29.084)"><path class="g" d="M139.775,284.355V238.579a2.344,2.344,0,0,1,4.688,0v45.776Z" transform="translate(-139.775 -236.235)"/></g><g transform="translate(53.9 37.084)"><path class="g" d="M344.962,284.355V238.579a2.344,2.344,0,0,1,4.688,0v45.776Z" transform="translate(-344.962 -244.235)"/></g><path class="h" d="M221.821,378.586H206.192V362.7a7.814,7.814,0,0,1,15.629,0Z" transform="translate(-173.975 -299.261)"/><g transform="translate(12.022 45.775)"><circle class="i" cx="2.344" cy="2.344" r="2.344"/><circle class="i" cx="2.344" cy="2.344" r="2.344" transform="translate(0 9.608)"/><circle class="i" cx="2.344" cy="2.344" r="2.344" transform="translate(0 19.216)"/></g><g transform="translate(63.382 45.775)"><circle class="i" cx="2.344" cy="2.344" r="2.344"/><circle class="i" cx="2.344" cy="2.344" r="2.344" transform="translate(0 9.608)"/><circle class="i" cx="2.344" cy="2.344" r="2.344" transform="translate(0 19.216)"/></g><path class="g" d="M82.923,195.3H6.514a.9.9,0,0,1-.737-1.427l.807-1.137a4.519,4.519,0,0,0,0-5.23l-.807-1.137a.9.9,0,0,1,.737-1.427H82.923a.9.9,0,0,1,.715,1.457l-.742.96a4.519,4.519,0,0,0,0,5.524l.742.96A.9.9,0,0,1,82.923,195.3Z" transform="translate(-4.732 -163.871)"/><g transform="translate(30.832 45.949)"><path class="i" d="M213.379,297.663H199.667a2.344,2.344,0,1,1,0-4.687h13.713a2.344,2.344,0,1,1,0,4.688Z" transform="translate(-197.323 -292.975)"/></g><g transform="translate(0 75.516)"><path class="j" d="M77.72,486.891H2.344a2.344,2.344,0,0,1,0-4.687H77.72a2.344,2.344,0,0,1,0,4.688Z" transform="translate(0 -482.204)"/></g></g></g></g></svg>