<svg id="CompanyProfilePlaceholder" xmlns="http://www.w3.org/2000/svg" xmlns:xlink="http://www.w3.org/1999/xlink" width="98" height="98" viewBox="0 0 98 98">
  <defs>
    <clipPath id="clip-path">
      <circle id="Ellipse_26" data-name="Ellipse 26" cx="49" cy="49" r="49" transform="translate(501 269)" fill="#e2e6f1"/>
    </clipPath>
  </defs>
  <g id="dp_ring" transform="translate(-501 -269)">
    <g id="Mask_Group_10" data-name="Mask Group 10" clip-path="url(#clip-path)">
      <g id="Group_12413" data-name="Group 12413">
        <g id="Group_12412" data-name="Group 12412">
          <path id="Path_24408" data-name="Path 24408" d="M-4053.508,12546.2l51.161,31.046,2.186-63.842-55.533,32.8" transform="translate(4551 -12261)" fill="#522e90"/>
          <path id="Path_24409" data-name="Path 24409" d="M-4000.161,12513.4v65.153l55.971-30.608Z" transform="translate(4551 -12261)" fill="#ed1c24"/>
          <path id="Path_24410" data-name="Path 24410" d="M-4000.161,12579l57.72-28.433-5.684,58.157Z" transform="translate(4551 -12261)" fill="#f90"/>
          <path id="Path_24411" data-name="Path 24411" d="M-3947.688,12616.16l-52.91-35.856v64.279Z" transform="translate(4551 -12261)" fill="#ffcb05"/>
          <path id="Path_24412" data-name="Path 24412" d="M-4004.1,12580.3l-50.723,31.047,50.723,33.232Z" transform="translate(4551 -12261)" fill="#8cc63f"/>
          <path id="Path_24413" data-name="Path 24413" d="M-4055.694,12605.666l50.286-26.674-60.781-33.232Z" transform="translate(4551 -12261)" fill="#29abe2"/>
        </g>
        <rect id="Rectangle_4517" data-name="Rectangle 4517" width="10" height="100" transform="translate(545 268)" fill="#fff"/>
        <rect id="Rectangle_4518" data-name="Rectangle 4518" width="10" height="100" transform="translate(590.801 288.67) rotate(60)" fill="#fff"/>
        <rect id="Rectangle_4519" data-name="Rectangle 4519" width="10" height="100" transform="translate(595.801 338.67) rotate(120)" fill="#fff"/>
      </g>
    </g>
    <circle id="Ellipse_27" data-name="Ellipse 27" cx="40" cy="40" r="40" transform="translate(510 278)" fill="#fff"/>
  </g>
  <circle id="Ellipse_40" data-name="Ellipse 40" cx="36" cy="36" r="36" transform="translate(13 13)" fill="#e0e7e9"/>
  <g id="company_icon" transform="translate(28 27.822)">
    <path id="Path_24486" data-name="Path 24486" d="M22.973,3.161,3.6.217A3.125,3.125,0,0,0,1.093.9,3.153,3.153,0,0,0,0,3.267V40.415a1.768,1.768,0,0,0,1.763,1.763h5.73V32.922a3.078,3.078,0,0,1,3.085-3.085h4.408a3.078,3.078,0,0,1,3.085,3.085v9.256h7.493V6.211a3.087,3.087,0,0,0-2.592-3.05ZM9.7,25.87H7.052a1.322,1.322,0,0,1,0-2.645H9.7a1.322,1.322,0,0,1,0,2.645Zm0-5.289H7.052a1.322,1.322,0,1,1,0-2.645H9.7a1.322,1.322,0,1,1,0,2.645Zm0-5.289H7.052a1.322,1.322,0,1,1,0-2.645H9.7a1.322,1.322,0,0,1,0,2.645ZM9.7,10H7.052a1.322,1.322,0,1,1,0-2.645H9.7A1.322,1.322,0,0,1,9.7,10ZM18.512,25.87H15.868a1.322,1.322,0,0,1,0-2.645h2.645a1.322,1.322,0,0,1,0,2.645Zm0-5.289H15.868a1.322,1.322,0,1,1,0-2.645h2.645a1.322,1.322,0,0,1,0,2.645Zm0-5.289H15.868a1.322,1.322,0,0,1,0-2.645h2.645a1.322,1.322,0,0,1,0,2.645Zm0-5.289H15.868a1.322,1.322,0,0,1,0-2.645h2.645a1.322,1.322,0,0,1,0,2.645Z" transform="translate(0 0)" fill="#bcc3cc"/>
    <path id="Path_24487" data-name="Path 24487" d="M28.053,11.98,15.5,9.351V35.178H27.4a3.089,3.089,0,0,0,3.085-3.085v-17.1A3.07,3.07,0,0,0,28.053,11.98ZM23.875,29.889H21.23a1.322,1.322,0,1,1,0-2.645h2.645a1.322,1.322,0,1,1,0,2.645Zm0-5.289H21.23a1.322,1.322,0,1,1,0-2.645h2.645a1.322,1.322,0,1,1,0,2.645Zm0-5.289H21.23a1.322,1.322,0,1,1,0-2.645h2.645a1.322,1.322,0,1,1,0,2.645Z" transform="translate(11.828 7)" fill="#bcc3cc"/>
  </g>
</svg>
