<svg xmlns="http://www.w3.org/2000/svg" width="102" height="102" viewBox="0 0 102 102"><defs><style>.a{fill:#c8e5f2;}.b{fill:#522e90;}.c{fill:#8cc63f;}.d{fill:#629d15;}.e{fill:#c1ff6e;}.f{fill:#a8b7ef;}.g{fill:#ffc839;}.h{fill:#9057f1;}.i{fill:#34126e;}.j{fill:#ff9100;}.k{fill:#ffdd40;}</style></defs><g transform="translate(-10.998 -5.155)"><path class="a" d="M79.528,107.514l26.1-8.1a51.005,51.005,0,1,0-81.174,8.1Z" transform="translate(0 -16.841)"/><path class="b" d="M323.8,189.87h-.318v23.036a51.236,51.236,0,0,0,19.97-18.945V157.1l-32.305-15.378V184.78H323.8a2.545,2.545,0,1,1,0,5.09Z" transform="translate(-237.669 -111.645)"/><path class="c" d="M74.728,275.929a50.893,50.893,0,0,0,30.952,16.24V263.8h11.979V234.948H74.728Z" transform="translate(-50.464 -185.464)"/><path class="c" d="M97.843,121.263h33.308V145.14H97.843Z" transform="translate(-68.767 -95.444)"/><g transform="translate(42.257 16.563)"><path class="d" d="M173.679,9.749c-1.918,0-3.473-.712-3.473-1.591V1.591c0-.878,1.555-1.591,3.473-1.591s3.473.712,3.473,1.591V8.158C177.151,9.037,175.6,9.749,173.679,9.749Z" transform="translate(-170.206)"/></g><g transform="translate(29.036 54.995)"><path class="e" d="M99.241,261.422a1.591,1.591,0,0,0-1.591,1.591V301.5q1.54,1.306,3.182,2.49V263.013A1.591,1.591,0,0,0,99.241,261.422Z" transform="translate(-97.65 -261.422)"/><path class="e" d="M128.263,261.422a1.591,1.591,0,0,0-1.591,1.591V305.9q1.554.968,3.182,1.826V263.013A1.591,1.591,0,0,0,128.263,261.422Z" transform="translate(-120.631 -261.422)"/><path class="e" d="M157.286,261.422a1.591,1.591,0,0,0-1.591,1.591v46.112q1.563.7,3.182,1.3V263.013A1.591,1.591,0,0,0,157.286,261.422Z" transform="translate(-143.612 -261.422)"/><path class="e" d="M186.308,261.422a1.591,1.591,0,0,0-1.591,1.591v48.374q1.57.477,3.182.856v-49.23A1.591,1.591,0,0,0,186.308,261.422Z" transform="translate(-166.593 -261.422)"/></g><g transform="translate(53.201 54.995)"><path class="e" d="M215.329,277.335a1.591,1.591,0,0,1-1.591-1.591V263.013a1.591,1.591,0,1,1,3.182,0v12.732A1.591,1.591,0,0,1,215.329,277.335Z" transform="translate(-213.738 -261.422)"/></g><g transform="translate(35.077 30.03)"><path class="e" d="M128.264,157.34a1.591,1.591,0,0,1-1.591-1.591V143.083a1.591,1.591,0,0,1,3.182,0V155.75A1.591,1.591,0,0,1,128.264,157.34Z" transform="translate(-126.673 -141.492)"/></g><g transform="translate(41.118 30.03)"><path class="e" d="M157.286,157.34a1.591,1.591,0,0,1-1.591-1.591V143.083a1.591,1.591,0,0,1,3.182,0V155.75A1.591,1.591,0,0,1,157.286,157.34Z" transform="translate(-155.695 -141.492)"/></g><g transform="translate(47.16 30.03)"><path class="e" d="M186.308,157.34a1.591,1.591,0,0,1-1.591-1.591V143.083a1.591,1.591,0,0,1,3.182,0V155.75A1.591,1.591,0,0,1,186.308,157.34Z" transform="translate(-184.717 -141.492)"/></g><g transform="translate(53.201 30.03)"><path class="f" d="M215.33,157.34a1.591,1.591,0,0,1-1.591-1.591V143.083a1.591,1.591,0,0,1,3.182,0V155.75A1.591,1.591,0,0,1,215.33,157.34Z" transform="translate(-213.739 -141.492)"/></g><g transform="translate(53.201 30.03)"><path class="e" d="M215.329,157.34a1.591,1.591,0,0,1-1.591-1.591V143.083a1.591,1.591,0,0,1,3.182,0V155.75A1.591,1.591,0,0,1,215.329,157.34Z" transform="translate(-213.738 -141.492)"/></g><g transform="translate(59.242 54.995)"><path class="e" d="M244.352,277.335a1.591,1.591,0,0,1-1.591-1.591V263.013a1.591,1.591,0,1,1,3.182,0v12.732A1.591,1.591,0,0,1,244.352,277.335Z" transform="translate(-242.761 -261.422)"/></g><path class="g" d="M221.381,373.53v28.315a51.428,51.428,0,0,0,7.206.509,50.771,50.771,0,0,0,24.142-6.067V373.53Z" transform="translate(-166.589 -295.199)"/><g transform="translate(78.582 50.519)"><path class="h" d="M355.963,243.1h-18.7a1.591,1.591,0,0,1,0-3.182h18.7a1.591,1.591,0,1,1,0,3.182Z" transform="translate(-335.67 -239.922)"/></g><g transform="translate(78.582 57.222)"><path class="h" d="M355.963,275.3h-18.7a1.591,1.591,0,0,1,0-3.182h18.7a1.591,1.591,0,1,1,0,3.182Z" transform="translate(-335.67 -272.121)"/></g><g transform="translate(78.582 63.925)"><path class="h" d="M355.963,307.5h-18.7a1.591,1.591,0,0,1,0-3.182h18.7a1.591,1.591,0,1,1,0,3.182Z" transform="translate(-335.67 -304.321)"/></g><g transform="translate(91.125 70.627)"><path class="h" d="M403.675,339.7h-6.16a1.591,1.591,0,1,1,0-3.182h6.16a1.591,1.591,0,0,1,0,3.182Z" transform="translate(-395.924 -336.52)"/></g><g transform="translate(91.125 77.33)"><path class="h" d="M403.675,371.9h-6.16a1.591,1.591,0,1,1,0-3.182h6.16a1.591,1.591,0,0,1,0,3.182Z" transform="translate(-395.924 -368.719)"/></g><g transform="translate(89.852 84.033)"><path class="h" d="M398.834,404.1H391.4a1.591,1.591,0,1,1,0-3.182h7.432a1.591,1.591,0,0,1,0,3.182Z" transform="translate(-389.811 -400.919)"/></g><path class="h" d="M398.833,433.118H391.4a1.591,1.591,0,1,0,0,3.182h4.835q1.626-1.477,3.12-3.092A1.584,1.584,0,0,0,398.833,433.118Z" transform="translate(-299.958 -342.383)"/><g transform="translate(71.525 28.306)"><path class="i" d="M336.219,152.05a1.582,1.582,0,0,1-.683-.155l-32.86-15.655a1.591,1.591,0,0,1,1.368-2.872l32.86,15.655a1.591,1.591,0,0,1-.685,3.027Z" transform="translate(-301.769 -133.213)"/></g><g transform="translate(59.813 83.009)"><path class="j" d="M247.094,401.123a1.591,1.591,0,0,1-1.591-1.591v-1.94a1.591,1.591,0,0,1,3.182,0v1.94A1.591,1.591,0,0,1,247.094,401.123Z" transform="translate(-245.503 -396.001)"/></g><g transform="translate(65.854 83.009)"><path class="j" d="M276.116,401.123a1.591,1.591,0,0,1-1.591-1.591v-1.94a1.591,1.591,0,0,1,3.182,0v1.94A1.591,1.591,0,0,1,276.116,401.123Z" transform="translate(-274.525 -396.001)"/></g><g transform="translate(71.895 83.009)"><path class="j" d="M305.138,401.123a1.591,1.591,0,0,1-1.591-1.591v-1.94a1.591,1.591,0,0,1,3.182,0v1.94A1.591,1.591,0,0,1,305.138,401.123Z" transform="translate(-303.547 -396.001)"/></g><g transform="translate(77.937 83.009)"><path class="j" d="M334.161,401.123a1.591,1.591,0,0,1-1.591-1.591v-1.94a1.591,1.591,0,0,1,3.182,0v1.94A1.591,1.591,0,0,1,334.161,401.123Z" transform="translate(-332.57 -396.001)"/></g><g transform="translate(59.813 91.237)"><path class="j" d="M247.094,440.653a1.591,1.591,0,0,1-1.591-1.591v-1.94a1.591,1.591,0,1,1,3.182,0v1.94A1.591,1.591,0,0,1,247.094,440.653Z" transform="translate(-245.503 -435.531)"/></g><g transform="translate(65.854 91.237)"><path class="j" d="M276.116,440.653a1.591,1.591,0,0,1-1.591-1.591v-1.94a1.591,1.591,0,1,1,3.182,0v1.94A1.591,1.591,0,0,1,276.116,440.653Z" transform="translate(-274.525 -435.531)"/></g><g transform="translate(71.895 91.237)"><path class="j" d="M305.138,440.653a1.591,1.591,0,0,1-1.591-1.591v-1.94a1.591,1.591,0,1,1,3.182,0v1.94A1.591,1.591,0,0,1,305.138,440.653Z" transform="translate(-303.547 -435.531)"/></g><g transform="translate(77.937 91.237)"><path class="j" d="M334.161,440.653a1.591,1.591,0,0,1-1.591-1.591v-1.94a1.591,1.591,0,1,1,3.182,0v1.94A1.591,1.591,0,0,1,334.161,440.653Z" transform="translate(-332.57 -435.531)"/></g><g transform="translate(59.813 99.466)"><path class="j" d="M247.094,480.184a1.591,1.591,0,0,1-1.591-1.591v-1.94a1.591,1.591,0,1,1,3.182,0v1.94A1.591,1.591,0,0,1,247.094,480.184Z" transform="translate(-245.503 -475.062)"/></g><g transform="translate(65.854 99.466)"><path class="j" d="M276.116,480.184a1.591,1.591,0,0,1-1.591-1.591v-1.94a1.591,1.591,0,1,1,3.182,0v1.94A1.591,1.591,0,0,1,276.116,480.184Z" transform="translate(-274.525 -475.062)"/></g><g transform="translate(71.895 99.466)"><path class="j" d="M305.138,480.184a1.591,1.591,0,0,1-1.591-1.591v-1.94a1.591,1.591,0,1,1,3.182,0v1.94A1.591,1.591,0,0,1,305.138,480.184Z" transform="translate(-303.547 -475.062)"/></g><path class="j" d="M334.161,475.062a1.591,1.591,0,0,0-1.591,1.591v1.94a1.588,1.588,0,0,0,.763,1.357q1.186-.411,2.345-.878a1.589,1.589,0,0,0,.074-.479v-1.94A1.591,1.591,0,0,0,334.161,475.062Z" transform="translate(-254.633 -375.596)"/><g transform="translate(51.928 72.817)"><path class="k" d="M241.837,352.766H210.489a2.863,2.863,0,1,1,0-5.727h31.348a2.863,2.863,0,0,1,0,5.727Z" transform="translate(-207.626 -347.039)"/></g><g transform="translate(27.485 24.228)"><path class="d" d="M125.1,116.8H91.792a1.591,1.591,0,1,1,0-3.182H125.1a1.591,1.591,0,0,1,0,3.182Z" transform="translate(-90.201 -113.621)"/></g><g transform="translate(22.673 47.893)"><path class="d" d="M111.608,230.488H68.677a1.591,1.591,0,1,1,0-3.182h42.931a1.591,1.591,0,1,1,0,3.182Z" transform="translate(-67.086 -227.306)"/></g></g></svg>