<svg xmlns="http://www.w3.org/2000/svg" xmlns:xlink="http://www.w3.org/1999/xlink" width="60" height="60" viewBox="0 0 60 60">
  <defs>
    <clipPath id="clip-path">
      <circle id="Ellipse_416" data-name="Ellipse 416" cx="24.182" cy="24.182" r="24.182" fill="#fff"/>
    </clipPath>
  </defs>
  <g id="connect_circle" data-name="connect circle" transform="translate(-244 -5215)">
    <circle id="Ellipse_402" data-name="Ellipse 402" cx="30" cy="30" r="30" transform="translate(244 5215)" fill="#fff"/>
    <g id="circle">
      <circle id="Ellipse_412" data-name="Ellipse 412" cx="24.182" cy="24.182" r="24.182" transform="translate(250 5221)" fill="#29abe2"/>
      <g id="Mask_Group_20" data-name="Mask Group 20" transform="translate(250 5221.636)" clip-path="url(#clip-path)">
        <g id="Group_12739" data-name="Group 12739" transform="translate(10.049 5.088)">
          <g id="Group_12739-2" data-name="Group 12739" transform="translate(18.207 16.926)">
            <path id="Path_24637" data-name="Path 24637" d="M310.006,986.434v10.652c-1.441,1.475-3.12.175-4.966,1.148-1.2.643-2.483-.119-3.819.252-.832.238-1.685-.217-2.56-.084V986.434a3.654,3.654,0,0,1,3.651-3.651h4.043A3.654,3.654,0,0,1,310.006,986.434Z" transform="translate(-298.661 -971.415)" fill="#fff"/>
            <circle id="Ellipse_413" data-name="Ellipse 413" cx="5.062" cy="5.062" r="5.062" transform="translate(0.61)" fill="#fff"/>
          </g>
          <g id="Group_12740" data-name="Group 12740" transform="translate(0 16.926)">
            <path id="Path_24638" data-name="Path 24638" d="M286.619,986.434v12.422c-4.525-.909-8.491,3.014-11.345-.393V986.434a3.654,3.654,0,0,1,3.651-3.651h4.043A3.649,3.649,0,0,1,286.619,986.434Z" transform="translate(-275.274 -971.415)" fill="#fff"/>
            <circle id="Ellipse_414" data-name="Ellipse 414" cx="5.062" cy="5.062" r="5.062" transform="translate(0.611)" fill="#fff"/>
          </g>
          <ellipse id="Ellipse_415" data-name="Ellipse 415" cx="8.935" cy="6.846" rx="8.935" ry="6.846" transform="translate(5.779)" fill="#f90"/>
          <path id="Path_24639" data-name="Path 24639" d="M287.776,961.414l.368,4.273a.607.607,0,0,0,.948.468l3.536-3.147-.712-4.135Z" transform="translate(-278.043 -949.193)" fill="#f90"/>
        </g>
      </g>
    </g>
  </g>
</svg>
