<svg xmlns="http://www.w3.org/2000/svg" xmlns:xlink="http://www.w3.org/1999/xlink" width="219" height="77" viewBox="0 0 219 77">
  <defs>
    <clipPath id="clip-path">
      <rect id="Rectangle_4920" data-name="Rectangle 4920" width="219" height="64" fill="#fff" stroke="#707070" stroke-width="1"/>
    </clipPath>
  </defs>
  <g id="Group_14415" data-name="Group 14415" transform="translate(-743 -756)">
    <g id="Mask_Group_63" data-name="Mask Group 63" transform="translate(743 756)" clip-path="url(#clip-path)">
      <g id="logo" transform="translate(0 0)">
        <path id="Union_7" data-name="Union 7" d="M96.618,50.12H7.05A7.051,7.051,0,0,1,0,43.068V7.052A7.051,7.051,0,0,1,7.05,0h194a7.052,7.052,0,0,1,6.278,3.842l9.021,17.644a7.052,7.052,0,0,1,.042,6.335l-6.161,12.461-2.924,5.913a7.052,7.052,0,0,1-6.321,3.926Z" transform="translate(0)" fill="#f90"/>
        <g id="Group_14416" data-name="Group 14416" transform="translate(61.193 18.751)">
          <path id="Path_26169" data-name="Path 26169" d="M255.85,88.017a4.14,4.14,0,0,1-1.508.288,3.452,3.452,0,0,1-1.478-.3,3.4,3.4,0,0,1-1.127-.837,3.628,3.628,0,0,1-.716-1.234,4.489,4.489,0,0,1-.244-1.492,4.263,4.263,0,0,1,.259-1.493,4.008,4.008,0,0,1,.716-1.234,3.457,3.457,0,0,1,1.1-.853,3.15,3.15,0,0,1,1.432-.32,3.558,3.558,0,0,1,1.493.335,3.041,3.041,0,0,1,1.158.883l1.026-1.188,1.867-2.163a5.778,5.778,0,0,0-1.081-.837,7.122,7.122,0,0,0-1.371-.64c-.077-.026-.153-.052-.232-.076a10.806,10.806,0,0,0-1.322-.335,8.72,8.72,0,0,0-1.631-.153,9.7,9.7,0,0,0-3.324.563,8.021,8.021,0,0,0-2.708,1.614,7.524,7.524,0,0,0-1.807,2.545,8.924,8.924,0,0,0,0,6.732,7.509,7.509,0,0,0,1.807,2.545,7.809,7.809,0,0,0,2.708,1.6,10.027,10.027,0,0,0,3.356.548,9.62,9.62,0,0,0,3.168-.517,6.516,6.516,0,0,0,2.437-1.432l-2.771-3.382A2.894,2.894,0,0,1,255.85,88.017Z" transform="translate(-163.041 -72.861)" fill="#fff"/>
          <g id="Group_14415-2" data-name="Group 14415">
            <path id="Path_26170" data-name="Path 26170" d="M292.858,77.737l-2.646-2.172a.81.81,0,0,0-1.323.626v4.345a.81.81,0,0,0,1.323.626l2.646-2.173A.81.81,0,0,0,292.858,77.737Z" transform="translate(-178.267 -72.514)" fill="#fff"/>
            <path id="Path_26171" data-name="Path 26171" d="M129.292,81.757a3.045,3.045,0,0,0-1.158-.884,3.55,3.55,0,0,0-1.493-.335,3.15,3.15,0,0,0-1.432.32,3.484,3.484,0,0,0-1.1.853,4.015,4.015,0,0,0-.715,1.234,4.264,4.264,0,0,0-.259,1.493,4.5,4.5,0,0,0,.244,1.492,3.635,3.635,0,0,0,.716,1.234,3.406,3.406,0,0,0,1.127.838,3.466,3.466,0,0,0,1.477.3,4.13,4.13,0,0,0,1.508-.289,2.893,2.893,0,0,0,1.2-.838l2.772,3.382a6.511,6.511,0,0,1-2.437,1.432,9.6,9.6,0,0,1-3.168.518,10.043,10.043,0,0,1-3.355-.548,7.792,7.792,0,0,1-2.707-1.6,7.51,7.51,0,0,1-1.809-2.544,8.933,8.933,0,0,1,0-6.732,7.51,7.51,0,0,1,1.809-2.544,7.991,7.991,0,0,1,2.707-1.615,9.7,9.7,0,0,1,3.325-.563,8.808,8.808,0,0,1,1.63.152,11.072,11.072,0,0,1,1.554.411,7.151,7.151,0,0,1,1.371.64,5.815,5.815,0,0,1,1.081.838Z" transform="translate(-118.05 -72.861)" fill="#fff"/>
            <path id="Path_26172" data-name="Path 26172" d="M156.209,84.376a8.214,8.214,0,0,1-.67,3.366,7.558,7.558,0,0,1-1.828,2.559,8.372,8.372,0,0,1-2.681,1.63,9.425,9.425,0,0,1-6.5,0,8.154,8.154,0,0,1-2.681-1.63,7.647,7.647,0,0,1-1.813-2.559,8.2,8.2,0,0,1-.67-3.366,8.1,8.1,0,0,1,.67-3.352,7.527,7.527,0,0,1,1.813-2.529,7.888,7.888,0,0,1,2.681-1.584,9.916,9.916,0,0,1,6.5,0,8.091,8.091,0,0,1,2.681,1.584,7.441,7.441,0,0,1,1.828,2.529A8.111,8.111,0,0,1,156.209,84.376Zm-4.814,0a4.324,4.324,0,0,0-.243-1.432,3.8,3.8,0,0,0-.7-1.234,3.59,3.59,0,0,0-1.127-.868,3.5,3.5,0,0,0-4.219.868,3.714,3.714,0,0,0-.67,1.234,4.6,4.6,0,0,0,0,2.863,3.916,3.916,0,0,0,.685,1.265,3.37,3.37,0,0,0,1.127.9,3.767,3.767,0,0,0,3.108,0,3.372,3.372,0,0,0,1.127-.9,3.916,3.916,0,0,0,.685-1.265A4.574,4.574,0,0,0,151.4,84.376Z" transform="translate(-125.562 -72.861)" fill="#fff"/>
            <path id="Path_26173" data-name="Path 26173" d="M177.882,92.056V83.77a6.7,6.7,0,0,0-.107-1.219,3.357,3.357,0,0,0-.35-1.021,1.813,1.813,0,0,0-.686-.7,2.168,2.168,0,0,0-1.112-.259,2.522,2.522,0,0,0-1.173.259,2.369,2.369,0,0,0-.838.715,3.239,3.239,0,0,0-.5,1.051,4.506,4.506,0,0,0-.168,1.234v8.226H167.92V76.885h4.844v2.1h.061a5.023,5.023,0,0,1,.716-.96,4.317,4.317,0,0,1,1.036-.807,6.493,6.493,0,0,1,1.295-.548,5.1,5.1,0,0,1,1.493-.213,5.606,5.606,0,0,1,2.589.548,4.954,4.954,0,0,1,1.721,1.417,5.6,5.6,0,0,1,.945,2,9.039,9.039,0,0,1,.289,2.255v9.383Z" transform="translate(-135.628 -72.894)" fill="#fff"/>
            <path id="Path_26174" data-name="Path 26174" d="M204.511,92.056V83.77a6.729,6.729,0,0,0-.107-1.219,3.363,3.363,0,0,0-.351-1.021,1.818,1.818,0,0,0-.685-.7,2.173,2.173,0,0,0-1.113-.259,2.524,2.524,0,0,0-1.173.259,2.372,2.372,0,0,0-.838.715,3.257,3.257,0,0,0-.5,1.051,4.507,4.507,0,0,0-.168,1.234v8.226h-5.027V76.885h4.844v2.1h.061a5.009,5.009,0,0,1,.716-.96,4.306,4.306,0,0,1,1.035-.807,6.49,6.49,0,0,1,1.295-.548,5.1,5.1,0,0,1,1.492-.213,5.605,5.605,0,0,1,2.589.548,4.946,4.946,0,0,1,1.721,1.417,5.584,5.584,0,0,1,.945,2,9.047,9.047,0,0,1,.289,2.255v9.383Z" transform="translate(-145.014 -72.894)" fill="#fff"/>
            <path id="Path_26175" data-name="Path 26175" d="M235.813,84.62v.609a5.283,5.283,0,0,1-.031.579h-11a2.646,2.646,0,0,0,.381,1.158,3.28,3.28,0,0,0,.822.9,4.044,4.044,0,0,0,2.422.808,4.2,4.2,0,0,0,2.011-.442,3.969,3.969,0,0,0,1.34-1.142l3.472,2.194a7.025,7.025,0,0,1-2.818,2.391,9.33,9.33,0,0,1-4.066.838,9.7,9.7,0,0,1-3.23-.534,7.827,7.827,0,0,1-2.665-1.553,7.192,7.192,0,0,1-1.8-2.514A8.409,8.409,0,0,1,220,84.5a8.549,8.549,0,0,1,.64-3.366,7.621,7.621,0,0,1,1.737-2.559,7.744,7.744,0,0,1,2.59-1.63,8.869,8.869,0,0,1,3.229-.579,8.178,8.178,0,0,1,3.077.563,6.7,6.7,0,0,1,2.407,1.63,7.542,7.542,0,0,1,1.569,2.589A9.968,9.968,0,0,1,235.813,84.62Zm-4.6-1.919a2.994,2.994,0,0,0-.747-2.041,2.818,2.818,0,0,0-2.239-.853,3.8,3.8,0,0,0-1.341.229,3.484,3.484,0,0,0-1.066.625,3.094,3.094,0,0,0-.732.929,2.72,2.72,0,0,0-.3,1.112Z" transform="translate(-153.986 -72.861)" fill="#fff"/>
            <path id="Path_26176" data-name="Path 26176" d="M264.209,77.833a5.784,5.784,0,0,1,1.081.837l-1.867,2.163h-2.23V77.117h1.413c.079.023.155.05.232.076A7.119,7.119,0,0,1,264.209,77.833Z" transform="translate(-168.505 -73.126)" fill="#fff"/>
            <path id="Path_26177" data-name="Path 26177" d="M274.575,86.552a5.307,5.307,0,0,1-.777.061,1.764,1.764,0,0,1-1.478-.535,2.619,2.619,0,0,1-.41-1.606V78.661h8.913V74.945h-8.913V70.954H267v3.991h-3.627c.079.023.155.05.232.076a7.134,7.134,0,0,1,1.371.64,5.8,5.8,0,0,1,1.081.837l-1.867,2.163h2.842v6.415a8.286,8.286,0,0,0,.274,2.214,4.308,4.308,0,0,0,.9,1.71,3.956,3.956,0,0,0,1.661,1.1,7.431,7.431,0,0,0,2.558.382,9.217,9.217,0,0,0,1.585-.137,8.272,8.272,0,0,0,1.31-.32l-.061-3.656A2.713,2.713,0,0,1,274.575,86.552Z" transform="translate(-169.274 -70.954)" fill="#fff"/>
          </g>
        </g>
        <g id="Group_14432" data-name="Group 14432" transform="translate(6.741 8.161)">
          <path id="Path_26178" data-name="Path 26178" d="M80.213,54.6H37.129a3.172,3.172,0,0,0-3.172,3.172V81.483a3.172,3.172,0,0,0,3.172,3.172H70.714L73.14,89.3a1.85,1.85,0,0,0,3.28,0l2.426-4.642h1.366a3.173,3.173,0,0,0,3.172-3.172V57.771A3.172,3.172,0,0,0,80.213,54.6Z" transform="translate(-33.957 -54.599)" fill="#fff"/>
          <g id="Group_14431" data-name="Group 14431" transform="translate(4.314 5.23)">
            <g id="Group_14417" data-name="Group 14417" transform="translate(0 1.415)">
              <path id="Path_26179" data-name="Path 26179" d="M43.148,64.911h.513v1.075h-.513a.779.779,0,0,0-.763-.576.8.8,0,0,0-.679.3,1.18,1.18,0,0,0-.23.73,1.05,1.05,0,0,0,.243.721.788.788,0,0,0,.618.275.776.776,0,0,0,.538-.208,1.057,1.057,0,0,0,.311-.579l.6.285A1.436,1.436,0,0,1,42.279,68a1.627,1.627,0,0,1-1.242-.444,1.573,1.573,0,0,1-.418-1.123,1.607,1.607,0,0,1,.218-.846,1.408,1.408,0,0,1,.586-.546,1.794,1.794,0,0,1,.808-.183,1.45,1.45,0,0,1,.918.288Z" transform="translate(-40.619 -64.862)" fill="#522e90"/>
              <path id="Path_26180" data-name="Path 26180" d="M48,67.981v.492H46.977V68.3a.947.947,0,0,1-.578.2.853.853,0,0,1-.543-.179.582.582,0,0,1-.229-.482.645.645,0,0,1,.241-.51.92.92,0,0,1,.621-.206,1.363,1.363,0,0,1,.488.108V67.1a.361.361,0,0,0-.109-.272.4.4,0,0,0-.293-.106.517.517,0,0,0-.389.168l-.545-.1a1.019,1.019,0,0,1,1.028-.5,1.575,1.575,0,0,1,.508.069.7.7,0,0,1,.3.179.642.642,0,0,1,.139.24,1.567,1.567,0,0,1,.04.424v.774Zm-1.026-.3a.817.817,0,0,0-.39-.154.357.357,0,0,0-.21.067.223.223,0,0,0-.095.195.281.281,0,0,0,.076.2.256.256,0,0,0,.2.082.663.663,0,0,0,.423-.221Z" transform="translate(-42.385 -65.367)" fill="#522e90"/>
              <path id="Path_26181" data-name="Path 26181" d="M49.254,66.847v-.491H50.28v.176a1.35,1.35,0,0,1,.689-.2.761.761,0,0,1,.636.288,1.458,1.458,0,0,1,.854-.288.833.833,0,0,1,.429.1.506.506,0,0,1,.226.262,1.52,1.52,0,0,1,.061.5v.808h.345v.492H52.493V67.243c0-.222-.094-.333-.283-.333a.992.992,0,0,0-.482.145v.937h.351v.492H51.046V67.263q0-.353-.275-.352a1.081,1.081,0,0,0-.491.145v.937h.352v.492H49.254v-.492H49.6V66.847Z" transform="translate(-43.663 -65.378)" fill="#522e90"/>
              <path id="Path_26182" data-name="Path 26182" d="M57.155,68.955v.491H55.686v-.491h.359V66.847h-.3v-.491h.984v.277a.849.849,0,0,1,.633-.306.776.776,0,0,1,.664.335,1.3,1.3,0,0,1,.243.781,1.2,1.2,0,0,1-.251.782.813.813,0,0,1-.667.309.885.885,0,0,1-.622-.267v.689Zm.414-1.524a.64.64,0,0,0-.115-.418.378.378,0,0,0-.3-.138.389.389,0,0,0-.311.141.639.639,0,0,0-.12.423.646.646,0,0,0,.119.406.378.378,0,0,0,.316.154.37.37,0,0,0,.3-.139A.655.655,0,0,0,57.569,67.431Z" transform="translate(-45.93 -65.378)" fill="#522e90"/>
              <path id="Path_26183" data-name="Path 26183" d="M62.326,68.008V68.5H61.3v-.185a1.061,1.061,0,0,1-.617.213.6.6,0,0,1-.655-.659V66.862h-.316v-.491H60.7V67.7a.353.353,0,0,0,.049.217.217.217,0,0,0,.175.058.641.641,0,0,0,.373-.151v-.959h-.33v-.491h1.012v1.637Z" transform="translate(-47.349 -65.394)" fill="#522e90"/>
              <path id="Path_26184" data-name="Path 26184" d="M63.931,68.484v-.731h.5a.3.3,0,0,0,.136.24.542.542,0,0,0,.319.09.472.472,0,0,0,.255-.058.173.173,0,0,0,.091-.15.143.143,0,0,0-.085-.13,1.217,1.217,0,0,0-.333-.088,1.74,1.74,0,0,1-.739-.254.535.535,0,0,1-.227-.451.56.56,0,0,1,.215-.444.857.857,0,0,1,.57-.181,1.32,1.32,0,0,1,.537.109v-.081h.484v.625h-.484q-.066-.224-.465-.225-.294,0-.294.163a.1.1,0,0,0,.06.093,1.387,1.387,0,0,0,.308.073,3.684,3.684,0,0,1,.587.133.645.645,0,0,1,.312.226.616.616,0,0,1,.117.378.657.657,0,0,1-.221.512.9.9,0,0,1-.626.2.677.677,0,0,1-.517-.157v.108Z" transform="translate(-48.806 -65.378)" fill="#522e90"/>
            </g>
            <path id="Path_26185" data-name="Path 26185" d="M66.982,64.069l14.7-1.392L69.262,70.665Z" transform="translate(-49.911 -62.677)" fill="#522e90" fill-rule="evenodd"/>
            <g id="Group_14423" data-name="Group 14423" transform="translate(0.13 5.483)">
              <g id="Group_14418" data-name="Group 14418">
                <path id="Path_26186" data-name="Path 26186" d="M41.606,71.144h-.787v3.429H42.2v5.706H40.819v3.429h7.364V80.279H46.637v-.562H46.9a11.68,11.68,0,0,0,2.093-.159,4.548,4.548,0,0,0,1.672-.662,3.763,3.763,0,0,0,1.257-1.441,4.345,4.345,0,0,0,.475-2.024,3.964,3.964,0,0,0-1.374-3.148,5.413,5.413,0,0,0-3.635-1.139Zm5.784,1.574A3.916,3.916,0,0,1,50,73.476a2.424,2.424,0,0,1,.827,1.955,2.754,2.754,0,0,1-.3,1.3,2.177,2.177,0,0,1-.727.852,2.946,2.946,0,0,1-1.095.429,10.165,10.165,0,0,1-1.8.132H45.063v3.71h1.546v.281H42.392v-.281H43.77V73H42.392v-.281Z" transform="translate(-40.819 -71.144)" fill="#522e90"/>
                <path id="Path_26187" data-name="Path 26187" d="M48.16,74.009h-.787V78.9h1.215a3.191,3.191,0,0,0,2.49-.744,2.5,2.5,0,0,0,.623-1.713,2.529,2.529,0,0,0-.434-1.473,1.974,1.974,0,0,0-1.124-.836,6.04,6.04,0,0,0-1.443-.124Zm.787,1.579a4.072,4.072,0,0,1,.8.069.506.506,0,0,1,.226.21.981.981,0,0,1,.153.576.951.951,0,0,1-.227.67s-.175.165-.954.205Z" transform="translate(-43.129 -72.154)" fill="#522e90"/>
              </g>
              <g id="Group_14419" data-name="Group 14419" transform="translate(9.932 3.232)">
                <path id="Path_26188" data-name="Path 26188" d="M61.386,76.674v-.425H56.242v3.344h1.321v2.53H56.158v3.344H63.1V82.123H61.583v-.151a2.625,2.625,0,0,1,.281-1.264,1.043,1.043,0,0,1,.53-.533,3.871,3.871,0,0,1,1.24-.161h.787V76.159l-1.18-.023A3.371,3.371,0,0,0,61.386,76.674Zm-1.574,1.148v1.153l1.316.158a2.975,2.975,0,0,0-.646.822,4.172,4.172,0,0,0-.473,2.017V83.7h1.518v.2H57.732v-.2h1.405V78.019H57.816v-.2Zm2.222.313a1.742,1.742,0,0,1,.813-.385v.734a4.387,4.387,0,0,0-.976.206,2.262,2.262,0,0,0-.416.2A2,2,0,0,1,62.034,78.136Z" transform="translate(-56.158 -76.136)" fill="#522e90"/>
              </g>
              <g id="Group_14420" data-name="Group 14420" transform="translate(17.036 3.345)">
                <path id="Path_26189" data-name="Path 26189" d="M71.513,76.31H67.128v3.344h1.153v2.53H67.128v3.344h6.324V82.184H72.3V76.31Zm-.787,1.573v5.875h1.153v.2H68.7v-.2h1.153V78.08H68.7v-.2Z" transform="translate(-67.128 -76.31)" fill="#522e90"/>
              </g>
              <g id="Group_14421" data-name="Group 14421" transform="translate(21.873)">
                <path id="Path_26190" data-name="Path 26190" d="M83.339,71.144H78.927v3.188c-.077,0-.153-.012-.232-.012a3.725,3.725,0,0,0-2.951,1.428A5.017,5.017,0,0,0,74.6,79.07a5.1,5.1,0,0,0,1.113,3.3,3.684,3.684,0,0,0,2.976,1.45,3.474,3.474,0,0,0,1.42-.3v.191h5.256V80.363H84.126V71.144Zm-.787,1.574v9.219h1.237v.2H81.681V80.106l-1.345,1.351a2.3,2.3,0,0,1-1.649.79,2.125,2.125,0,0,1-1.753-.866,3.521,3.521,0,0,1-.762-2.31,3.443,3.443,0,0,1,.777-2.31,2.189,2.189,0,0,1,1.746-.866,1.932,1.932,0,0,1,1.591.769l1.4,1.7V72.915H80.5v-.2Zm-2.445,1.771V74.6c-.1-.041-.2-.079-.3-.111Z" transform="translate(-74.598 -71.144)" fill="#522e90"/>
                <path id="Path_26191" data-name="Path 26191" d="M78.995,79.978a3.264,3.264,0,0,0-.533,1.913,3.351,3.351,0,0,0,.515,1.878,2.032,2.032,0,0,0,1.777.941,2.24,2.24,0,0,0,1.634-.716,2.915,2.915,0,0,0,.683-2.094,2.879,2.879,0,0,0-.7-2.118,2.279,2.279,0,0,0-1.623-.693A2.052,2.052,0,0,0,78.995,79.978Zm1.3,2.925a1.8,1.8,0,0,1-.256-1.013,1.751,1.751,0,0,1,.247-1.008.492.492,0,0,1,.464-.22.687.687,0,0,1,.515.236c.071.07.236.309.236,1a1.432,1.432,0,0,1-.24,1,.655.655,0,0,1-.5.237A.476.476,0,0,1,80.292,82.9Z" transform="translate(-75.96 -73.944)" fill="#522e90"/>
              </g>
              <g id="Group_14422" data-name="Group 14422" transform="translate(31.181 3.176)">
                <path id="Path_26192" data-name="Path 26192" d="M90.373,77.463a4.793,4.793,0,0,0-1.4,3.5,4.422,4.422,0,0,0,1.386,3.37,5.226,5.226,0,0,0,3.7,1.275,4.88,4.88,0,0,0,4.4-2.229l.554-.863-1.232-.393h.888v-.787a6.962,6.962,0,0,0-.423-2.472,4.258,4.258,0,0,0-1.617-2.013,4.688,4.688,0,0,0-2.717-.8A4.8,4.8,0,0,0,90.373,77.463Zm1.063,5.718a2.868,2.868,0,0,1-.887-2.22,3.234,3.234,0,0,1,3.366-3.338,3.1,3.1,0,0,1,1.823.521,2.686,2.686,0,0,1,1.039,1.274,4.97,4.97,0,0,1,.268,1.129h-5.7l.044.828a2.567,2.567,0,0,0,.99,2.075,2.941,2.941,0,0,0,1.717.58l-.038,0A3.673,3.673,0,0,1,91.435,83.181Zm3.521-1.061a1.448,1.448,0,0,1-.835.337,1.386,1.386,0,0,1-.822-.287.509.509,0,0,1-.049-.051Zm1.121,1.109.324.1a3.643,3.643,0,0,1-2.244.7A3.091,3.091,0,0,0,96.077,83.229Z" transform="translate(-88.974 -76.049)" fill="#522e90"/>
                <path id="Path_26193" data-name="Path 26193" d="M92.692,80.757l-.133.9H97.6l-.115-.888a2.639,2.639,0,0,0-.714-1.516,2.4,2.4,0,0,0-4.077,1.5Z" transform="translate(-90.238 -76.936)" fill="#522e90"/>
              </g>
            </g>
            <g id="Group_14429" data-name="Group 14429" transform="translate(0.579 5.933)">
              <g id="Group_14424" data-name="Group 14424">
                <path id="Path_26194" data-name="Path 26194" d="M41.85,71.839h-.337v2.529H42.89v6.605H41.513V83.5h6.465v-2.53H46.432V79.512h.714a11.261,11.261,0,0,0,2.011-.151,4.1,4.1,0,0,0,1.507-.6,3.325,3.325,0,0,0,1.105-1.272,3.9,3.9,0,0,0,.425-1.818,3.531,3.531,0,0,0-1.219-2.807,4.982,4.982,0,0,0-3.341-1.03Zm5.784.675a4.34,4.34,0,0,1,2.9.866,2.849,2.849,0,0,1,.984,2.3,3.229,3.229,0,0,1-.35,1.507,2.659,2.659,0,0,1-.878,1.021,3.438,3.438,0,0,1-1.259.495,10.54,10.54,0,0,1-1.886.14H45.757v2.811H47.3v1.18H42.188v-1.18h1.377V73.694H42.188v-1.18Z" transform="translate(-41.513 -71.839)" fill="#fff"/>
                <path id="Path_26195" data-name="Path 26195" d="M48.405,74.7h-.337V78.7h.765a2.86,2.86,0,0,0,2.154-.593,2.065,2.065,0,0,0,.51-1.415,2.1,2.1,0,0,0-.354-1.217,1.538,1.538,0,0,0-.868-.656,5.722,5.722,0,0,0-1.331-.11Zm.539.674a5.045,5.045,0,0,1,1.161.089.891.891,0,0,1,.483.388,1.413,1.413,0,0,1,.234.833,1.4,1.4,0,0,1-.34.968c-.121.136-.5.365-1.649.365h-.091V75.378Z" transform="translate(-43.823 -72.849)" fill="#fff"/>
              </g>
              <g id="Group_14425" data-name="Group 14425" transform="translate(9.933 3.232)">
                <path id="Path_26196" data-name="Path 26196" d="M61.556,77.519a3.564,3.564,0,0,0-.375.365v-.941H56.937v2.446h1.321v3.429H56.853v2.446H62.9V82.817H61.378v-.6a3.067,3.067,0,0,1,.336-1.479A1.46,1.46,0,0,1,62.49,80a4.29,4.29,0,0,1,1.39-.186h.337V76.845l-.73-.014A2.921,2.921,0,0,0,61.556,77.519Zm.434.517a2.233,2.233,0,0,1,1.5-.531h.055v1.639a4.515,4.515,0,0,0-1.276.214,2.133,2.133,0,0,0-1.144,1.056,3.731,3.731,0,0,0-.418,1.8v1.275h1.518v1.1H57.527v-1.1h1.406V78.714H57.612v-1.1h2.894v1.6l.665.08A2.346,2.346,0,0,1,61.99,78.036Z" transform="translate(-56.853 -76.831)" fill="#fff"/>
              </g>
              <g id="Group_14426" data-name="Group 14426" transform="translate(17.036 3.344)">
                <path id="Path_26197" data-name="Path 26197" d="M71.758,77H67.823V79.45h1.152v3.429H67.823v2.446h5.424V82.878H72.095V77Zm-.337.675v5.874h1.152v1.1H68.5v-1.1H69.65V78.775H68.5v-1.1Z" transform="translate(-67.823 -77.004)" fill="#fff"/>
              </g>
              <g id="Group_14427" data-name="Group 14427" transform="translate(21.873)">
                <path id="Path_26198" data-name="Path 26198" d="M83.584,71.839H79.621v2.445H80.8v1.337a3.023,3.023,0,0,0-1.862-.606,3.292,3.292,0,0,0-2.607,1.267,4.575,4.575,0,0,0-1.041,3.033,4.662,4.662,0,0,0,1.013,3.017,3.253,3.253,0,0,0,2.626,1.283,3.17,3.17,0,0,0,1.87-.628V83.5h4.356V81.058H83.922V71.839Zm-.337.675v9.219h1.237v1.1H81.476V81.44l-.576.579a2.728,2.728,0,0,1-1.968.923,2.576,2.576,0,0,1-2.1-1.033,4.3,4.3,0,0,1,.021-5.192,2.614,2.614,0,0,1,2.09-1.026,2.383,2.383,0,0,1,1.938.933l.6.728V73.609H80.3v-1.1Z" transform="translate(-75.293 -71.839)" fill="#fff"/>
                <path id="Path_26199" data-name="Path 26199" d="M79.607,80.481a2.829,2.829,0,0,0-.451,1.654,2.914,2.914,0,0,0,.442,1.63A1.6,1.6,0,0,0,81,84.5a1.774,1.774,0,0,0,1.311-.58,2.491,2.491,0,0,0,.556-1.781,2.428,2.428,0,0,0-.569-1.8,1.81,1.81,0,0,0-1.306-.563A1.619,1.619,0,0,0,79.607,80.481Zm.554,2.914a2.26,2.26,0,0,1-.33-1.259,2.176,2.176,0,0,1,.328-1.267.936.936,0,0,1,.832-.412,1.143,1.143,0,0,1,.832.367,1.852,1.852,0,0,1,.369,1.32,1.871,1.871,0,0,1-.367,1.312A1.11,1.11,0,0,1,81,83.83.921.921,0,0,1,80.161,83.395Z" transform="translate(-76.655 -74.639)" fill="#fff"/>
              </g>
              <g id="Group_14428" data-name="Group 14428" transform="translate(31.182 3.176)">
                <path id="Path_26200" data-name="Path 26200" d="M90.937,78.025a4.356,4.356,0,0,0-1.269,3.181,3.988,3.988,0,0,0,1.244,3.041A4.794,4.794,0,0,0,94.307,85.4a4.456,4.456,0,0,0,4.022-2.022l.237-.37-2.518-.8-.145.146a2.264,2.264,0,0,1-1.537.8,1.82,1.82,0,0,1-1.085-.372,1.285,1.285,0,0,1-.478-.865h5.663v-.337a6.533,6.533,0,0,0-.394-2.313,3.823,3.823,0,0,0-1.452-1.8,4.249,4.249,0,0,0-2.462-.72A4.362,4.362,0,0,0,90.937,78.025Zm.436,5.73a3.3,3.3,0,0,1-1.03-2.549,3.684,3.684,0,0,1,3.815-3.788,3.586,3.586,0,0,1,2.079.6,3.159,3.159,0,0,1,1.2,1.484,5.663,5.663,0,0,1,.337,1.737h-5.71l.019.356a2.141,2.141,0,0,0,.8,1.733,2.5,2.5,0,0,0,1.477.5,2.786,2.786,0,0,0,1.854-.857l1.277.407a3.841,3.841,0,0,1-3.19,1.35A4.153,4.153,0,0,1,91.373,83.755Z" transform="translate(-89.669 -76.744)" fill="#fff"/>
                <path id="Path_26201" data-name="Path 26201" d="M93.42,81.068l-.056.386h4.005l-.049-.38a2.2,2.2,0,0,0-.594-1.264,1.955,1.955,0,0,0-3.307,1.258Zm1.913-1.132a1.181,1.181,0,0,1,.905.339,1.5,1.5,0,0,1,.315.505H94.177A1.083,1.083,0,0,1,95.334,79.936Z" transform="translate(-90.971 -77.631)" fill="#fff"/>
              </g>
            </g>
            <g id="Group_14430" data-name="Group 14430" transform="translate(0.885 6.27)">
              <path id="Path_26202" data-name="Path 26202" d="M47.776,81.494V83.35h-5.79V81.494h1.377V74.215H41.986V72.36H47.77a4.642,4.642,0,0,1,3.121.948,3.2,3.2,0,0,1,1.1,2.551,3.551,3.551,0,0,1-.387,1.662,2.976,2.976,0,0,1-.992,1.146,3.742,3.742,0,0,1-1.383.545,10.868,10.868,0,0,1-1.948.146H46.23v2.136ZM46.23,77.532h.429a2.624,2.624,0,0,0,1.9-.479,1.73,1.73,0,0,0,.424-1.191,1.756,1.756,0,0,0-.293-1.025,1.213,1.213,0,0,0-.675-.522,5.509,5.509,0,0,0-1.246-.1H46.23Z" transform="translate(-41.986 -72.36)" fill="#f47d4c"/>
              <path id="Path_26203" data-name="Path 26203" d="M62.694,83.338v1.771H57.326V83.338h1.405v-4.1H57.41V77.464h3.569V79.4a2.7,2.7,0,0,1,.929-1.442,2.58,2.58,0,0,1,1.714-.61c.11,0,.24,0,.392.008v2.3a4.6,4.6,0,0,0-1.5.205,1.792,1.792,0,0,0-.96.9,3.379,3.379,0,0,0-.377,1.64v.938Z" transform="translate(-47.393 -74.119)" fill="#f47d4c"/>
              <path id="Path_26204" data-name="Path 26204" d="M68.3,79.3V77.525h3.6V83.4h1.152V85.17H68.3V83.4h1.152V79.3Z" transform="translate(-51.26 -74.181)" fill="#f47d4c"/>
              <path id="Path_26205" data-name="Path 26205" d="M84.957,81.579V83.35H81.274v-.91a3.07,3.07,0,0,1-2.207,1.022A2.918,2.918,0,0,1,76.7,82.3a4.314,4.314,0,0,1-.938-2.805,4.237,4.237,0,0,1,.962-2.817,2.956,2.956,0,0,1,2.349-1.146,2.723,2.723,0,0,1,2.2,1.056V74.13h-1.18V72.36H83.72v9.219ZM81.3,79.527a2.147,2.147,0,0,0-.469-1.56,1.479,1.479,0,0,0-1.069-.464,1.274,1.274,0,0,0-1.108.556,2.491,2.491,0,0,0-.39,1.46,2.575,2.575,0,0,0,.386,1.445,1.259,1.259,0,0,0,1.12.587,1.442,1.442,0,0,0,1.068-.477A2.168,2.168,0,0,0,81.3,79.527Z" transform="translate(-53.893 -72.36)" fill="#f47d4c"/>
              <path id="Path_26206" data-name="Path 26206" d="M96.278,82.774l1.9.606a4.122,4.122,0,0,1-3.739,1.867,4.448,4.448,0,0,1-3.163-1.063,3.645,3.645,0,0,1-1.137-2.795,4.019,4.019,0,0,1,4.152-4.125,3.9,3.9,0,0,1,2.27.66,3.477,3.477,0,0,1,1.328,1.643,6.17,6.17,0,0,1,.372,2.194H92.559a1.819,1.819,0,0,0,.662,1.477,2.166,2.166,0,0,0,1.281.434A2.567,2.567,0,0,0,96.278,82.774Zm-.459-2.361a1.863,1.863,0,0,0-.5-1.074,1.514,1.514,0,0,0-1.149-.444q-1.357,0-1.579,1.518Z" transform="translate(-58.96 -74.089)" fill="#f47d4c"/>
            </g>
            <path id="Path_26207" data-name="Path 26207" d="M67.967,64.655,69.9,70.242l10.523-6.767Z" transform="translate(-50.259 -62.958)" fill="#fff" fill-rule="evenodd"/>
            <path id="Path_26208" data-name="Path 26208" d="M70.687,66.519a2.468,2.468,0,0,1,2.352,1.722l6.342-4.077-10.65,1.009.605,1.75A2.454,2.454,0,0,1,70.687,66.519Z" transform="translate(-50.528 -63.2)" fill="#f47d4c" fill-rule="evenodd"/>
          </g>
        </g>
        <path id="Path_26209" data-name="Path 26209" d="M328.357,72.889a14.948,14.948,0,0,1-29.849,1.192q-.049-.591-.048-1.192,0-.136,0-.27.014-.734.1-1.45.084-.743.241-1.463a14.951,14.951,0,0,1,29.558,3.183Z" transform="translate(-120.448 -47.616)" fill="#fff"/>
        <g id="Group_14434" data-name="Group 14434" transform="translate(184.977 12.229)">
          <circle id="Ellipse_497" data-name="Ellipse 497" cx="4.23" cy="4.23" r="4.23" transform="translate(4.041)" fill="#f90"/>
          <g id="Group_14433" data-name="Group 14433" transform="translate(0 9.685)">
            <path id="Path_26210" data-name="Path 26210" d="M331.946,89.488l1.63.732a1.814,1.814,0,0,0,.365-1.092v-.313c-.032-.017-.063-.034-.1-.049A1.438,1.438,0,0,0,331.946,89.488Z" transform="translate(-317.228 -80.351)" fill="#f90"/>
            <path id="Path_26211" data-name="Path 26211" d="M316.827,90.07l2.7-6.025a.955.955,0,0,1,1.262-.48l2.267,1.019a2.4,2.4,0,0,1,2.868-1.311V77.663a1.823,1.823,0,0,0-1.823-1.824H322.33L319.97,78.5l-1.491-2.665h-1.518L315.472,78.5l-2.359-2.665H311.04a1.824,1.824,0,0,0-1.824,1.824v6.953a1.824,1.824,0,0,0,1.824,1.824h.852v6.842a1.167,1.167,0,0,0,1.168,1.167h8.926a1.165,1.165,0,0,0,1-.568l-5.679-2.55A.954.954,0,0,1,316.827,90.07Zm.885-12.548a.892.892,0,1,1-.892.892A.892.892,0,0,1,317.712,77.522Zm0,3.677a.892.892,0,1,1-.892.892A.892.892,0,0,1,317.712,81.2Z" transform="translate(-309.216 -75.839)" fill="#f90"/>
          </g>
        </g>
        <g id="Group_14435" data-name="Group 14435" transform="translate(61.621 8.285)">
          <path id="Path_26212" data-name="Path 26212" d="M126.656,58.6a2.142,2.142,0,0,0-.818-.624,2.506,2.506,0,0,0-1.055-.237,2.237,2.237,0,0,0-1.012.226,2.475,2.475,0,0,0-.775.6,2.84,2.84,0,0,0-.506.872,3.01,3.01,0,0,0-.183,1.055,3.191,3.191,0,0,0,.172,1.055,2.572,2.572,0,0,0,.506.872,2.394,2.394,0,0,0,.8.592,2.442,2.442,0,0,0,1.044.215,2.922,2.922,0,0,0,1.066-.2,2.043,2.043,0,0,0,.85-.592l1.959,2.39a4.6,4.6,0,0,1-1.722,1.012,6.8,6.8,0,0,1-2.239.366,7.089,7.089,0,0,1-2.371-.388,5.512,5.512,0,0,1-1.913-1.13,5.3,5.3,0,0,1-1.278-1.8,6.309,6.309,0,0,1,0-4.757,5.3,5.3,0,0,1,1.278-1.8,5.649,5.649,0,0,1,1.913-1.142,6.854,6.854,0,0,1,2.35-.4,6.245,6.245,0,0,1,1.152.107,7.835,7.835,0,0,1,1.1.291,5.05,5.05,0,0,1,.969.453,4.073,4.073,0,0,1,.764.592Z" transform="translate(-118.712 -54.79)" fill="#fff"/>
          <path id="Path_26213" data-name="Path 26213" d="M135.753,56.6a6.183,6.183,0,0,1,2.207-1.357,7.566,7.566,0,0,1,2.573-.452,6.871,6.871,0,0,1,2.293.334,3.417,3.417,0,0,1,1.518,1.033,4.408,4.408,0,0,1,.85,1.765,10.424,10.424,0,0,1,.269,2.53v5.4h-3.23V64.715h-.064a2.663,2.663,0,0,1-1.238,1.033,4.411,4.411,0,0,1-1.8.366,5.507,5.507,0,0,1-1.335-.172,3.9,3.9,0,0,1-1.26-.56,3.035,3.035,0,0,1-.936-1.033,3.186,3.186,0,0,1-.366-1.593,2.706,2.706,0,0,1,.635-1.873,4.167,4.167,0,0,1,1.636-1.1,8.673,8.673,0,0,1,2.229-.517,22.819,22.819,0,0,1,2.389-.13v-.172a1.315,1.315,0,0,0-.559-1.173,2.417,2.417,0,0,0-1.378-.376,3.432,3.432,0,0,0-1.453.322,4.657,4.657,0,0,0-1.2.775Zm6.48,4.586h-.452q-.581,0-1.173.054a4.846,4.846,0,0,0-1.055.2,1.948,1.948,0,0,0-.764.441,1.015,1.015,0,0,0-.3.765.929.929,0,0,0,.14.517,1.081,1.081,0,0,0,.356.344,1.494,1.494,0,0,0,.5.183,2.816,2.816,0,0,0,.538.054,2.18,2.18,0,0,0,1.647-.592,2.215,2.215,0,0,0,.57-1.6Z" transform="translate(-124.536 -54.79)" fill="#fff"/>
          <path id="Path_26214" data-name="Path 26214" d="M162.039,58.065a2.716,2.716,0,0,0-.463-.086c-.151-.014-.3-.022-.442-.022a2.524,2.524,0,0,0-1.195.258,2.444,2.444,0,0,0-.775.623,2.362,2.362,0,0,0-.42.794,2.658,2.658,0,0,0-.13.751v5.5h-3.53V55.171h3.4v1.55h.043a3.5,3.5,0,0,1,1.163-1.344,3,3,0,0,1,1.744-.52,4.041,4.041,0,0,1,.42.021,1.629,1.629,0,0,1,.334.065Z" transform="translate(-131.533 -54.814)" fill="#fff"/>
          <path id="Path_26215" data-name="Path 26215" d="M177.995,60.625v.43a3.717,3.717,0,0,1-.021.409H170.2a1.87,1.87,0,0,0,.269.818,2.319,2.319,0,0,0,.582.635,2.842,2.842,0,0,0,1.711.57,2.964,2.964,0,0,0,1.421-.312,2.8,2.8,0,0,0,.947-.807l2.454,1.55a4.962,4.962,0,0,1-1.991,1.69,6.587,6.587,0,0,1-2.874.592,6.872,6.872,0,0,1-2.282-.377,5.532,5.532,0,0,1-1.884-1.1,5.082,5.082,0,0,1-1.27-1.776,5.939,5.939,0,0,1-.463-2.411,6.029,6.029,0,0,1,.453-2.379,5.363,5.363,0,0,1,1.227-1.808,5.459,5.459,0,0,1,1.83-1.152,6.26,6.26,0,0,1,2.282-.409,5.778,5.778,0,0,1,2.174.4,4.754,4.754,0,0,1,1.7,1.152,5.327,5.327,0,0,1,1.109,1.83A7.052,7.052,0,0,1,177.995,60.625Zm-3.251-1.357a2.118,2.118,0,0,0-.528-1.443,1.993,1.993,0,0,0-1.583-.6,2.668,2.668,0,0,0-.947.162,2.45,2.45,0,0,0-.753.441,2.185,2.185,0,0,0-.517.657,1.92,1.92,0,0,0-.216.786Z" transform="translate(-135.669 -54.79)" fill="#fff"/>
          <path id="Path_26216" data-name="Path 26216" d="M197.811,60.625v.43a3.709,3.709,0,0,1-.022.409h-7.772a1.868,1.868,0,0,0,.269.818,2.316,2.316,0,0,0,.581.635,2.842,2.842,0,0,0,1.712.57A2.966,2.966,0,0,0,194,63.175a2.808,2.808,0,0,0,.947-.807l2.454,1.55a4.962,4.962,0,0,1-1.991,1.69,6.589,6.589,0,0,1-2.874.592,6.87,6.87,0,0,1-2.282-.377,5.533,5.533,0,0,1-1.884-1.1,5.069,5.069,0,0,1-1.271-1.776,5.941,5.941,0,0,1-.463-2.411,6.039,6.039,0,0,1,.452-2.379,5.37,5.37,0,0,1,1.227-1.808,5.462,5.462,0,0,1,1.83-1.152,6.256,6.256,0,0,1,2.282-.409,5.777,5.777,0,0,1,2.174.4,4.747,4.747,0,0,1,1.7,1.152,5.331,5.331,0,0,1,1.109,1.83A7.048,7.048,0,0,1,197.811,60.625Zm-3.251-1.357a2.117,2.117,0,0,0-.527-1.443,1.994,1.994,0,0,0-1.583-.6,2.665,2.665,0,0,0-.947.162,2.443,2.443,0,0,0-.753.441,2.19,2.19,0,0,0-.517.657,1.917,1.917,0,0,0-.216.786Z" transform="translate(-142.654 -54.79)" fill="#fff"/>
          <path id="Path_26217" data-name="Path 26217" d="M214.238,58.065a2.709,2.709,0,0,0-.463-.086c-.151-.014-.3-.022-.441-.022a2.526,2.526,0,0,0-1.2.258,2.45,2.45,0,0,0-.775.623,2.354,2.354,0,0,0-.42.794,2.657,2.657,0,0,0-.13.751v5.5h-3.53V55.171h3.4v1.55h.043a3.5,3.5,0,0,1,1.163-1.344,3,3,0,0,1,1.744-.52,4.038,4.038,0,0,1,.419.021,1.626,1.626,0,0,1,.334.065Z" transform="translate(-149.932 -54.814)" fill="#fff"/>
        </g>
      </g>
    </g>
    <text id="CPCC_Apply_Now" data-name="CPCC Apply Now" transform="translate(852 829)" fill="#f90" font-size="18" font-family="Gibson-SemiBold, Gibson" font-weight="600"><tspan x="-70.146" y="0">CPCC Apply Now</tspan></text>
  </g>
</svg>
