<svg xmlns="http://www.w3.org/2000/svg" width="150" height="150" viewBox="0 0 150 150">
  <g id="Group_14336" data-name="Group 14336" transform="translate(-956 -9553)">
    <g id="Group_14319" data-name="Group 14319" transform="translate(475 -864)">
      <g id="Ellipse_494" data-name="Ellipse 494" transform="translate(481 10417)" fill="#c9f" stroke="#707070" stroke-width="1">
        <circle cx="75" cy="75" r="75" stroke="none"/>
        <circle cx="75" cy="75" r="74.5" fill="none"/>
      </g>
    </g>
    <g id="Group_14335" data-name="Group 14335">
      <path id="Path_26155" data-name="Path 26155" d="M61.109,68.313a4.581,4.581,0,0,1-6.4.688l-3.8-3.052-.823.825a8.75,8.75,0,0,1-12.256,1.3l-14.5-13.111H16.25V27.547l-2.5-1.987V56.25a3.719,3.719,0,0,1-3.609,3.739L2.5,60V22.5l7.433.023L6.756,19.859,1.25,20A1.249,1.249,0,0,0,0,21.25v40A1.251,1.251,0,0,0,1.25,62.5H10a6.171,6.171,0,0,0,6-5.034h6.367L36.2,69.975A11.151,11.151,0,0,0,43.281,72.5q.586,0,1.179-.059A11.144,11.144,0,0,0,51.2,69.263l1.9,1.645a7.072,7.072,0,0,0,9.944-1.021l2.542-3.13L63.626,65.2ZM44.141,12.5a1.25,1.25,0,0,0,0-2.5,35.366,35.366,0,0,0-11.4,1.909l2.35,1.869A33.015,33.015,0,0,1,44.141,12.5ZM2.03.27A1.244,1.244,0,0,0,1.254,0,1.25,1.25,0,0,0,.472,2.228l97.359,77.5a2.334,2.334,0,0,0,.778.272,1.25,1.25,0,0,0,.779-2.229ZM98.75,20,80.516,20A35.2,35.2,0,0,0,55.844,10H54.5a6.283,6.283,0,0,0-4.211,1.636l-8.312,7.613,1.991,1.581,8-7.339a3.8,3.8,0,0,1,2.549-.99h1.345a32.707,32.707,0,0,1,23.266,9.63l.366.366H83.75V52.449l2.5,1.987V22.531L97.5,22.5V60H93.242l3.145,2.5H98.75A1.251,1.251,0,0,0,100,61.25v-40A1.254,1.254,0,0,0,98.75,20ZM57.656,23.547a1.253,1.253,0,0,0-1.766-.078L51.883,27.13,53.861,28.7l3.714-3.387A1.244,1.244,0,0,0,57.656,23.547Z" transform="translate(981 9588)" fill="#fff"/>
    </g>
  </g>
</svg>
