<svg xmlns="http://www.w3.org/2000/svg" xmlns:xlink="http://www.w3.org/1999/xlink" width="98" height="98" viewBox="0 0 98 98"><defs><style>.a{fill:#e2e6f1;}.b{clip-path:url(#a);}.c{fill:#522e90;}.d{fill:#ed1c24;}.e{fill:#f90;}.f{fill:#ffcb05;}.g{fill:#8cc63f;}.h{fill:#29abe2;}.i{fill:#fff;}.j{fill:#e0e7e9;}.k{opacity:0.42;}.l{fill:#8d94a6;}</style><clipPath id="a"><circle class="a" cx="49" cy="49" r="49" transform="translate(501 269)"/></clipPath></defs><g transform="translate(4827 16358)"><g transform="translate(-5328 -16627)"><g class="b"><path class="c" d="M-4053.508,12546.2l51.161,31.046,2.186-63.842-55.533,32.8" transform="translate(4551 -12261)"/><path class="d" d="M-4000.161,12513.4v65.153l55.971-30.608Z" transform="translate(4551 -12261)"/><path class="e" d="M-4000.161,12579l57.72-28.433-5.684,58.157Z" transform="translate(4551 -12261)"/><path class="f" d="M-3947.688,12616.16l-52.91-35.856v64.279Z" transform="translate(4551 -12261)"/><path class="g" d="M-4004.1,12580.3l-50.723,31.047,50.723,33.232Z" transform="translate(4551 -12261)"/><path class="h" d="M-4055.694,12605.666l50.286-26.674-60.781-33.232Z" transform="translate(4551 -12261)"/><rect class="i" width="10" height="100" transform="translate(545 268)"/><rect class="i" width="10" height="100" transform="translate(590.801 288.67) rotate(60)"/><rect class="i" width="10" height="100" transform="translate(595.801 338.67) rotate(120)"/></g><circle class="i" cx="40" cy="40" r="40" transform="translate(510 278)"/></g><circle class="j" cx="36" cy="36" r="36" transform="translate(-4814 -16345)"/><g class="k" transform="translate(-5443 -16631)"><path class="l" d="M113.91,22.773c5.177,0,9.374-5.1,9.374-11.387S121.906,0,113.91,0s-9.375,5.1-9.375,11.387S108.732,22.773,113.91,22.773Z" transform="translate(550.838 298.718)"/><path class="l" d="M77.3,193.792c-.174-10.955-1.6-14.076-12.553-16.052a6.563,6.563,0,0,1-5.133,1.964,6.564,6.564,0,0,1-5.134-1.964c-10.829,1.954-12.347,5.03-12.546,15.7-.016.871-.024.917-.027.816,0,.189,0,.54,0,1.151,0,0,2.607,5.255,17.705,5.255S77.32,195.4,77.32,195.4c0-.393,0-.666,0-.851A7.057,7.057,0,0,1,77.3,193.792Z" transform="translate(605.133 144.625)"/></g></g></svg>