<svg xmlns="http://www.w3.org/2000/svg" width="28.786" height="30" viewBox="0 0 28.786 30">
  <g id="discount" transform="translate(-10.359 0.002)">
    <g id="Group_12745" data-name="Group 12745" transform="translate(10.359 -0.002)">
      <g id="Group_12744" data-name="Group 12744" transform="translate(0 0)">
        <path id="Path_24563" data-name="Path 24563" d="M37.757,15.387a.879.879,0,0,1,0-.777l1.119-2.289a2.6,2.6,0,0,0-1.124-3.458L35.5,7.668a.879.879,0,0,1-.457-.629L34.6,4.53a2.6,2.6,0,0,0-2.942-2.137l-2.523.357a.879.879,0,0,1-.739-.24L26.57.738a2.6,2.6,0,0,0-3.636,0L21.1,2.509a.879.879,0,0,1-.739.24l-2.523-.357A2.6,2.6,0,0,0,14.9,4.53l-.44,2.509A.879.879,0,0,1,14,7.668L11.752,8.862a2.6,2.6,0,0,0-1.124,3.458l1.119,2.289a.879.879,0,0,1,0,.777l-1.119,2.289a2.6,2.6,0,0,0,1.124,3.458L14,22.328a.879.879,0,0,1,.457.629l.44,2.509a2.6,2.6,0,0,0,2.567,2.164,2.676,2.676,0,0,0,.375-.026l2.523-.357a.879.879,0,0,1,.739.24l1.831,1.771a2.6,2.6,0,0,0,3.636,0L28.4,27.487a.88.88,0,0,1,.739-.24l2.523.357A2.6,2.6,0,0,0,34.6,25.466l.44-2.509a.879.879,0,0,1,.457-.629l2.251-1.194a2.6,2.6,0,0,0,1.124-3.458ZM21.291,7.212a3.172,3.172,0,1,1-3.172,3.172A3.176,3.176,0,0,1,21.291,7.212ZM19.654,21.319A.865.865,0,0,1,18.431,20.1L29.85,8.677A.865.865,0,0,1,31.073,9.9Zm8.558,1.465a3.172,3.172,0,1,1,3.172-3.172A3.176,3.176,0,0,1,28.212,22.784Z" transform="translate(-10.359 0.002)" fill="#522e90"/>
      </g>
    </g>
    <g id="Group_12747" data-name="Group 12747" transform="translate(26.77 18.17)">
      <g id="Group_12746" data-name="Group 12746">
        <path id="Path_24564" data-name="Path 24564" d="M291.894,310.141a1.442,1.442,0,1,0,1.442,1.442A1.444,1.444,0,0,0,291.894,310.141Z" transform="translate(-290.452 -310.141)" fill="#522e90"/>
      </g>
    </g>
    <g id="Group_12749" data-name="Group 12749" transform="translate(19.85 8.942)">
      <g id="Group_12748" data-name="Group 12748" transform="translate(0)">
        <path id="Path_24565" data-name="Path 24565" d="M173.775,152.646a1.442,1.442,0,1,0,1.442,1.442A1.443,1.443,0,0,0,173.775,152.646Z" transform="translate(-172.333 -152.646)" fill="#522e90"/>
      </g>
    </g>
  </g>
</svg>
