<svg id="earth-globe" xmlns="http://www.w3.org/2000/svg" width="20" height="20" viewBox="0 0 20 20">
  <path id="Path_18" data-name="Path 18" d="M18.659,4.98A9.958,9.958,0,0,0,15.02,1.341,9.782,9.782,0,0,0,10,0a9.782,9.782,0,0,0-5.02,1.341A9.955,9.955,0,0,0,1.341,4.98,9.781,9.781,0,0,0,0,10a9.784,9.784,0,0,0,1.341,5.02,9.96,9.96,0,0,0,3.639,3.639A9.783,9.783,0,0,0,10,20a9.783,9.783,0,0,0,5.02-1.341,9.955,9.955,0,0,0,3.639-3.639A9.784,9.784,0,0,0,20,10,9.784,9.784,0,0,0,18.659,4.98ZM11.251,15.261c-.087-.1-.117-.191-.091-.261a.191.191,0,0,1-.091.117,1.242,1.242,0,0,0-.234-.2,1.229,1.229,0,0,1-.234-.2c-.018-.026-.041-.063-.072-.111s-.069-.111-.117-.189a1.312,1.312,0,0,1-.1-.2c-.022-.056-.024-.089-.007-.1a.89.89,0,0,1-.716-.143,1.281,1.281,0,0,1-.273-.273.424.424,0,0,0-.378-.2q-.065.013-.176.046a.681.681,0,0,1-.189.032.594.594,0,0,1-.208-.052,1.679,1.679,0,0,1-.28-.15,1.866,1.866,0,0,0-.241-.137l-.169-.091-.208-.1a.639.639,0,0,1-.163-.124.413.413,0,0,1-.111-.176,2.507,2.507,0,0,1-.065-.313.973.973,0,0,0-.1-.338,1.174,1.174,0,0,0-.221-.26.41.41,0,0,0-.26-.13c.07,0,.07-.058,0-.176a1.319,1.319,0,0,0-.182-.254c-.017-.018-.07-.074-.156-.17s-.161-.178-.221-.248a1.041,1.041,0,0,1-.156-.241A.276.276,0,0,1,5.8,10.4c.009-.009,0-.022-.026-.039a.675.675,0,0,0-.1-.052c-.039-.017-.076-.032-.111-.046a.256.256,0,0,0-.078-.019,1,1,0,0,1,.059.189.75.75,0,0,0,.072.2q.026.052.221.377a1.533,1.533,0,0,1,.313.808c-.052.017-.087.009-.1-.026A.474.474,0,0,1,6,11.655a.819.819,0,0,0-.026-.13.49.49,0,0,0-.2-.17.442.442,0,0,1-.2-.182.061.061,0,0,0,.033-.013.063.063,0,0,1,.033-.013.447.447,0,0,0-.137-.3q-.15-.182-.124-.26a.638.638,0,0,1-.182-.306,1.148,1.148,0,0,0-.13-.293.557.557,0,0,0-.13-.137q-.078-.058-.2-.13t-.156-.1a.5.5,0,0,1-.1-.117q-.43-.521-.26-.56-.169.039-.28-.254a.811.811,0,0,1-.072-.449L3.842,8.23a1.931,1.931,0,0,0,.013-.306,3.011,3.011,0,0,1,.033-.462q.033-.208.124-.208-.091.013-.137-.163a.348.348,0,0,1-.007-.241c.009-.026.048-.009.117.052a.666.666,0,0,1,.117.117q.169-.091.13-.235a1.787,1.787,0,0,0-.273-.273,4.847,4.847,0,0,0-.573-.352.183.183,0,0,0-.039-.247q-.13.078-.15.039a.5.5,0,0,1-.033-.143c-.009-.069-.03-.108-.065-.117a.344.344,0,0,1-.156-.1A8.217,8.217,0,0,1,6,2.7a2.084,2.084,0,0,1,.286-.013.52.52,0,0,1,.2.065,1.027,1.027,0,0,1,.189.143q.1.091.15.13a.319.319,0,0,0-.065-.234q.026-.078.286-.156a.737.737,0,0,1,.391.013,3.425,3.425,0,0,0-.26-.326l-.065.065q-.1-.091-.547.091l-.13.072a1.522,1.522,0,0,1-.169.085.321.321,0,0,1-.156.013A7.376,7.376,0,0,1,7.332,2.11a1.286,1.286,0,0,1,.13.111q.091.085.143.124c-.026-.017-.043-.009-.052.026a.336.336,0,0,0,0,.26.242.242,0,0,0,.176.1A.97.97,0,0,0,8,2.721,1.622,1.622,0,0,1,8.2,2.7l.13.013q.417.039.326-.078a.836.836,0,0,1,.091.215.578.578,0,0,0,.117.228q.065-.052.026-.182a.214.214,0,0,1,0-.182.148.148,0,0,1,.078-.052l.15-.058q.085-.033.111-.046.078-.052-.1-.182a.889.889,0,0,0-.111-.039c-.056-.017-.106-.035-.15-.052a.827.827,0,0,1-.137-.072.111.111,0,0,1-.065-.1.352.352,0,0,1,.072-.15A.355.355,0,0,1,8.992,1.9a.645.645,0,0,1,.267.065q.352.2.1.352a.934.934,0,0,1,.313.1q.182.091.143.2.1-.2.208-.2c.043.009.085.067.124.176a1.069,1.069,0,0,0,.071.176c.07.1.139.117.209.065a1.1,1.1,0,0,0,.215-.228q.11-.15.124-.137c-.087-.035-.1-.069-.026-.1A.417.417,0,0,1,11.1,2.3a.493.493,0,0,1,.1.117q.117.235-.039.221a.284.284,0,0,1,.1.26c-.013.1-.081.152-.2.143a.462.462,0,0,1-.189-.065.585.585,0,0,0-.189-.072.314.314,0,0,0-.182.072,1.648,1.648,0,0,0-.137.221,1,1,0,0,1-.15.221.768.768,0,0,1-.651.143c.026,0,.024.026-.007.078a1.5,1.5,0,0,1-.124.176q-.078.1-.091.111a.664.664,0,0,0-.156.3q0,.026-.013.176a.655.655,0,0,1-.052.228q.156-.039.247.156t0,.2a1.537,1.537,0,0,1,.755.052q.469.169.534.339.078-.117.377-.013c.078.043.147.174.208.391a.841.841,0,0,0,.176.338.213.213,0,0,0,.267.078l.039-.026c.035-.017.063-.033.085-.046a.551.551,0,0,0,.071-.052.123.123,0,0,0,.046-.058.055.055,0,0,0-.019-.052.47.47,0,0,1-.137-.215.274.274,0,0,1,.02-.241.87.87,0,0,1,.208-.156.471.471,0,0,0,.208-.208.229.229,0,0,0-.13-.28q-.182-.11-.182-.2a.255.255,0,0,1,.085-.156.205.205,0,0,0,.072-.169A.633.633,0,0,0,12,4.147a.9.9,0,0,1-.052-.182.194.194,0,0,1,.059-.137.806.806,0,0,1,.43.006,1.454,1.454,0,0,1,.443.124,1.156,1.156,0,0,0,.169.078,1.568,1.568,0,0,1,.228.111c.065.039.1.076.11.111h-.065a.312.312,0,0,1,.111.182.136.136,0,0,1-.1.156.41.41,0,0,1,.208.039q.208.078.013.143a.835.835,0,0,1,.11-.026.3.3,0,0,0,.111-.039.366.366,0,0,0,.065-.046.214.214,0,0,1,.059-.039.416.416,0,0,1,.059-.013.106.106,0,0,1,.078.02c.009,0,.028-.022.059-.065s.063-.087.1-.13.065-.065.091-.065a.1.1,0,0,1,.071.032.273.273,0,0,1,.052.072c.013.026.026.054.039.085s.024.054.032.072a.346.346,0,0,0,.124.137.349.349,0,0,1,.124.137c.009.026.026.091.052.2a.429.429,0,0,0,.1.215.509.509,0,0,0,.2.1.2.2,0,0,0,.117-.013.312.312,0,0,1,.15-.013c.039.009.059.043.059.1q.078-.078.078-.1a.549.549,0,0,0,.085.273.231.231,0,0,0,.228.091l-.026.287a.29.29,0,0,1-.2.1.712.712,0,0,0-.2.059.9.9,0,0,0-.189.156c-.1.1-.141.152-.124.169A.634.634,0,0,0,14.4,6.38a3.276,3.276,0,0,0-.677.156.947.947,0,0,0-.287.2.41.41,0,0,0-.045.091q-.033.078-.065.143c-.022.043-.041.065-.059.065a.334.334,0,0,0,.176-.124.754.754,0,0,1,.124-.124.7.7,0,0,1,.561-.155q.286.078.091.208c-.017.017-.063.024-.137.02a.469.469,0,0,0-.15.007.688.688,0,0,1,.2.071.084.084,0,0,1,.039.124q.208.117.078.261a.471.471,0,0,1-.4.143q.039,0,0,.052l-.222.143q-.026.013-.169.065a.442.442,0,0,0-.2.117A.26.26,0,0,0,13.216,8a.691.691,0,0,1-.013.156c-.009.035-.043.043-.1.026q-.039.078-.241.124a.439.439,0,0,0-.267.137.15.15,0,0,1-.013.208.167.167,0,0,1-.273-.026.188.188,0,0,0-.1.13.242.242,0,0,1-.1.143c.061.1.052.165-.026.208a.18.18,0,0,1,.058.026.979.979,0,0,1,.1.065.189.189,0,0,0,.065.039c-.035.078-.083.117-.143.117q.078.208-.2.456a.6.6,0,0,1-.163.1c-.074.035-.141.063-.2.085a.425.425,0,0,0-.1.046.882.882,0,0,0-.2.241.281.281,0,0,0-.02.241.294.294,0,0,0,.241.156l.013.1v.234l.013.1q.013.091.02.163a1.292,1.292,0,0,1,0,.182c0,.074-.024.115-.059.123a.237.237,0,0,1-.143-.026q-.1-.052-.248-.573a.869.869,0,0,0-.156-.312.392.392,0,0,1-.111.084c-.03.013-.052.015-.065.007a.858.858,0,0,1-.072-.059.87.87,0,0,0-.091-.071.691.691,0,0,0-.228-.065.421.421,0,0,1-.2-.065q-.313.235-.378-.117a.275.275,0,0,0,.007.176,1.022,1.022,0,0,1,.033.124q-.091.17-.286.026-.078-.078-.358-.019a.748.748,0,0,1-.371.019c.009,0,.026.013.052.039a.355.355,0,0,1,.052.039.164.164,0,0,1-.039.078.055.055,0,0,1-.052.02.132.132,0,0,0-.059,0,.22.22,0,0,0-.059.019.8.8,0,0,0-.13.137.648.648,0,0,1-.117.123.859.859,0,0,1,.072.319q-.007.111-.039.326a2.406,2.406,0,0,0-.033.345,1.2,1.2,0,0,0,.124.482.826.826,0,0,0,.293.378.77.77,0,0,0,.313.065.761.761,0,0,0,.312-.026.32.32,0,0,0,.117-.091.44.44,0,0,0,.065-.15q.026-.1.039-.136a.359.359,0,0,1,.338-.261.382.382,0,0,1,.228.032.115.115,0,0,1,.058.124.655.655,0,0,1-.052.163c-.026.057-.059.119-.1.189a.72.72,0,0,0-.071.157,2.17,2.17,0,0,0-.046.293,1.611,1.611,0,0,1-.033.228.758.758,0,0,0,.2.013.309.309,0,0,1,.02-.085.37.37,0,0,0,.019-.071.257.257,0,0,0,.209.117.2.2,0,0,0,.208-.1q.026.039.156.2a.563.563,0,0,1,.143.26c.009.035.026.091.052.17a.323.323,0,0,1,.026.163c-.009.03-.052.045-.13.045a.06.06,0,0,0-.065.039.177.177,0,0,0,0,.1.875.875,0,0,0,.032.111A.848.848,0,0,0,11,14.67a.24.24,0,0,1,.033.071.439.439,0,0,0,.638.234q0,.377-.183.416C11.416,15.409,11.338,15.365,11.251,15.261Zm.194,2.942A1.043,1.043,0,0,1,11.421,18a.479.479,0,0,1,.091-.28.6.6,0,0,0,.1-.267q-.208-.052-.157-.339a1.073,1.073,0,0,1,.378-.521.6.6,0,0,0,.156-.625,3.6,3.6,0,0,1-.065-.495,4.431,4.431,0,0,0-.052-.456c0,.026.041.05.124.071s.132.05.15.084a.789.789,0,0,0,.065-.143.662.662,0,0,1,.078-.156.443.443,0,0,1,.111-.1,1.279,1.279,0,0,1,.111-.071,1,1,0,0,0,.117-.085q.091-.072.15-.111a.433.433,0,0,1,.156-.058.111.111,0,0,1,.137.058q.065.078-.026.241t0,.228a.971.971,0,0,0,.026-.17.315.315,0,0,1,.078-.2.3.3,0,0,1,.15-.091.185.185,0,0,1,.13.02,1.158,1.158,0,0,1,.137.091.366.366,0,0,0,.143.071,1.613,1.613,0,0,1,.469.287c-.009-.009-.009-.02,0-.033a.137.137,0,0,1,.052-.039c.026-.013.05-.026.071-.039a.365.365,0,0,1,.071-.032l.039-.013a.447.447,0,0,0,.13-.013.15.15,0,0,1,.111.026.888.888,0,0,1,.1.059l.091.071a1.143,1.143,0,0,1,.091.078l.143.091q.1.065.163.1a.342.342,0,0,1,.1.117.257.257,0,0,1,.033.17,2.056,2.056,0,0,1,.312.1.468.468,0,0,0,.163.045.314.314,0,0,1,.163.059A8.048,8.048,0,0,1,11.445,18.2Z" transform="translate(0 0)" fill="#29abe2"/>
</svg>
