<svg xmlns="http://www.w3.org/2000/svg" width="60" height="60" viewBox="0 0 60 60">
  <g id="education_circle" transform="translate(-741 -655)">
    <circle id="Ellipse_402" cx="30" cy="30" r="30" transform="translate(741 655)" fill="#fff"/>
    <g id="education">
      <circle id="Ellipse_403" cx="24" cy="24" r="24" transform="translate(747 661)" fill="#29abe2"/>
      <g id="mortarboard" transform="translate(757 670.993)">
        <g id="Group_12517" transform="translate(13.429 6.75)">
          <g id="Group_12516">
            <path id="Path_24441" d="M241.83,121a.836.836,0,1,0,.836.836A.836.836,0,0,0,241.83,121Z" transform="translate(-240.994 -121.004)" fill="#fff"/>
          </g>
        </g>
        <g id="Group_12519" transform="translate(5.015 12.479)">
          <g id="Group_12518">
            <path id="Path_24442" d="M100.369,227.855a2.511,2.511,0,0,1-2.243,0L90,223.819v5.137a.835.835,0,0,0,.279.624c.162.145,4.092,3.556,8.971,3.556s8.808-3.41,8.971-3.556a.835.835,0,0,0,.279-.624v-5.137Z" transform="translate(-89.998 -223.819)" fill="#fff"/>
          </g>
        </g>
        <g id="Group_12521" transform="translate(0 0.007)">
          <g id="Group_12520" transform="translate(0 0)">
            <path id="Path_24443" d="M28.487,27.437,27.1,23.214a2.493,2.493,0,0,0-.24-4.609V8.938l1.21-.6a.836.836,0,0,0,0-1.5L14.639.1a.837.837,0,0,0-.748,0L.462,6.838a.836.836,0,0,0,0,1.5L13.891,15.02a.837.837,0,0,0,.748,0L25.186,9.774v8.831a2.493,2.493,0,0,0-.24,4.609l-1.389,4.222a.835.835,0,0,0,.793,1.1h3.343A.835.835,0,0,0,28.487,27.437ZM14.265,10.093a2.508,2.508,0,1,1,2.508-2.508A2.51,2.51,0,0,1,14.265,10.093Z" transform="translate(0 -0.007)" fill="#fff"/>
            <path id="Path_24445" d="M28.487,27.437,27.1,23.214a2.493,2.493,0,0,0-.24-4.609V8.938l1.21-.6a.836.836,0,0,0,0-1.5L14.639.1a.837.837,0,0,0-.748,0L.462,6.838a.836.836,0,0,0,0,1.5L13.891,15.02a.837.837,0,0,0,.748,0L25.186,9.774v8.831a2.493,2.493,0,0,0-.24,4.609l-1.389,4.222a.835.835,0,0,0,.793,1.1h3.343A.835.835,0,0,0,28.487,27.437ZM14.265,10.093a2.508,2.508,0,1,1,2.508-2.508A2.51,2.51,0,0,1,14.265,10.093Z" transform="translate(0 -0.007)" fill="#fff"/>
            <path id="Intersection_4" d="M.835,19.846a.836.836,0,0,1-.792-1.1l1.39-4.223a2.492,2.492,0,0,1,.24-4.609V1.084l-.2.1.047-.051L3.559,0l.075.1L3.342.248V9.914a2.492,2.492,0,0,1,.24,4.609l1.391,4.223a.836.836,0,0,1-.792,1.1Z" transform="translate(23.514 8.682)" fill="#f90"/>
          </g>
        </g>
      </g>
    </g>
  </g>
</svg>
