<svg xmlns="http://www.w3.org/2000/svg" width="17.089" height="20" viewBox="0 0 17.089 20"><defs><style>.a{fill:#29abe2;}</style></defs><g transform="translate(-26.93)"><g transform="translate(26.93)"><g transform="translate(0)"><path class="a" d="M43.941,16.993l-2.618-4.5c.453-.138.936-.26,1.136-.606.334-.577-.261-1.523-.1-2.142.161-.636,1.111-1.187,1.111-1.834,0-.63-.982-1.367-1.143-2s.436-1.566.1-2.142-1.452-.529-1.912-.971S40.039,1.231,39.469.926s-1.5.313-2.14.166S36.139,0,35.482,0s-1.727,1.074-1.893,1.112c-.636.148-1.568-.47-2.14-.162s-.566,1.42-1.039,1.876-1.576.4-1.91.975.261,1.523.1,2.142-1.139,1.249-1.139,1.966c0,.647.952,1.2,1.114,1.832.157.618-.436,1.566-.1,2.142a1.649,1.649,0,0,0,1.01.566c.048.014.14.068.078.159l-2.56,4.419a.365.365,0,0,0,.327.6L29.1,17.7a1.406,1.406,0,0,1,1.006.583l.943,1.5a.365.365,0,0,0,.679-.013l2.638-4.555c.053-.062.106-.049.132-.028a1.826,1.826,0,0,0,1.027.491,1.579,1.579,0,0,0,.936-.488c.025-.021.084-.064.128.025l2.635,4.53a.365.365,0,0,0,.679.012l.94-1.5a1.406,1.406,0,0,1,1.005-.585l1.766-.077A.365.365,0,0,0,43.941,16.993ZM38.4,12.9a5.854,5.854,0,1,1-.117-10.207l.044.024.062.035A5.865,5.865,0,0,1,38.4,12.9Z" transform="translate(-26.93)"/><path class="a" d="M100.715,54.172l-.024-.014a4.935,4.935,0,0,0-5.1,8.452c.056.036.113.071.171.1a4.936,4.936,0,1,0,4.949-8.543Zm.589,3.85-.825.8a1.385,1.385,0,0,0-.355,1.092l.195,1.135c.06.352-.149.5-.464.337l-1.019-.536a1.386,1.386,0,0,0-1.148,0l-1.019.536c-.316.166-.525.014-.464-.337l.195-1.135a1.386,1.386,0,0,0-.355-1.092l-.825-.8c-.255-.249-.176-.495.177-.546l1.14-.166a1.386,1.386,0,0,0,.929-.675l.51-1.033c.158-.32.416-.32.574,0l.51,1.033a1.386,1.386,0,0,0,.929.675l1.14.166C101.48,57.528,101.56,57.774,101.3,58.023Z" transform="translate(-89.69 -50.599)"/></g></g></g></svg>