<svg xmlns="http://www.w3.org/2000/svg" width="34.57" height="40" viewBox="0 0 34.57 40"><defs><style>.a{fill:#29abe2;}</style></defs><g transform="translate(-34.75)"><rect class="a" width="2.93" height="9.375" transform="translate(34.75 24.766)"/><path class="a" d="M48.227,134.1A6.416,6.416,0,0,1,49.7,130H45.3v8.2H42.953V130h-4.1a4.106,4.106,0,0,0-4.1,4.1v8.164h2.93V134.1h2.344v25.742h2.93V144.57H45.3v15.273h2.93Z" transform="translate(0 -119.844)"/><path class="a" d="M112.563,3.906a3.906,3.906,0,1,0-3.906,3.906A3.911,3.911,0,0,0,112.563,3.906Z" transform="translate(-64.531)"/><rect class="a" width="2.93" height="9.375" transform="translate(50.57 24.766)"/><path class="a" d="M250.727,134.1h2.344v10.508a1.465,1.465,0,0,0,2.93,0V134.1a4.106,4.106,0,0,0-4.1-4.1h-4.1v8.2h-2.344V130h-4.1a4.106,4.106,0,0,0-4.1,4.1v8.164h2.93V134.1h2.344v25.742h2.93V144.57H247.8v15.273h2.93Z" transform="translate(-186.68 -119.844)"/><path class="a" d="M311.156,7.813a3.906,3.906,0,1,0-3.906-3.906A3.911,3.911,0,0,0,311.156,7.813Z" transform="translate(-251.211)"/></g></svg>