<svg xmlns="http://www.w3.org/2000/svg" xmlns:xlink="http://www.w3.org/1999/xlink" width="102" height="102" viewBox="0 0 102 102">
  <defs>
    <clipPath id="clip-path">
      <circle id="Ellipse_12" data-name="Ellipse 12" cx="51" cy="51" r="51" transform="translate(86 845)" fill="#9b3082"/>
    </clipPath>
  </defs>
  <g id="ERG" transform="translate(-86 -845)">
    <circle id="Ellipse_11" data-name="Ellipse 11" cx="51" cy="51" r="51" transform="translate(86 845)" fill="#c8e5f2"/>
    <g id="Mask_Group_1" data-name="Mask Group 1" clip-path="url(#clip-path)">
      <g id="nurturing" transform="translate(100 863)">
        <path id="Path_24860" data-name="Path 24860" d="M285.184,165H278.5l6.68,10.707a25.076,25.076,0,0,0,6.21-4.35,1.121,1.121,0,0,0,.328-1.039A6.7,6.7,0,0,0,285.184,165Z" transform="translate(-237.162 -140.507)" fill="#629d15"/>
        <path id="Path_24861" data-name="Path 24861" d="M135.855,165a6.7,6.7,0,0,0-6.538,5.317,1.121,1.121,0,0,0,.328,1.039,25.072,25.072,0,0,0,6.21,4.35L142.535,165Z" transform="translate(-110.101 -140.507)" fill="#629d15"/>
        <path id="Path_24862" data-name="Path 24862" d="M189.084,165h-8.908a6.68,6.68,0,0,0-6.68,6.68v4.027a25.2,25.2,0,0,0,22.268,0V171.68A6.68,6.68,0,0,0,189.084,165Z" transform="translate(-147.742 -140.507)" fill="#8cc63f"/>
        <path id="Path_24863" data-name="Path 24863" d="M34.453,66.011A4.453,4.453,0,0,0,30,70.464v30.431h8.907V70.464A4.453,4.453,0,0,0,34.453,66.011Z" transform="translate(-25.547 -56.212)" fill="#ffd17e"/>
        <path id="Path_24864" data-name="Path 24864" d="M176.238,400.594v11.492l8.5-1.635V406Z" transform="translate(-150.077 -341.129)" fill="#ffd17e"/>
        <path id="Path_24865" data-name="Path 24865" d="M29.095,85.516,8.907,67.936V40.556a4.514,4.514,0,0,0-4.328-4.544A4.454,4.454,0,0,0,0,40.464V73.226A6.68,6.68,0,0,0,.792,76.38L11.133,93.458l-1.484,8.164H30.208V94.34Z" transform="translate(0 -30.665)" fill="#ffd17e"/>
        <path id="Path_24866" data-name="Path 24866" d="M190.727,467l-2.227,7.839,2.227,7.839h3.34c.615,0,1.113-1.755,1.113-3.919V467Z" transform="translate(-160.519 -397.677)" fill="#ff303f"/>
        <path id="Path_24867" data-name="Path 24867" d="M33.455,470.218l-.4,7.839c-.124,2.406.4,4.621,1.1,4.621H58.336V467H34.55C34.012,467,33.551,468.355,33.455,470.218Z" transform="translate(-28.129 -397.677)" fill="#ff303f"/>
        <path id="Path_24868" data-name="Path 24868" d="M411.453,66.011a4.453,4.453,0,0,1,4.453,4.453v30.431H407V70.464A4.453,4.453,0,0,1,411.453,66.011Z" transform="translate(-346.584 -56.212)" fill="#ffd17e"/>
        <path id="Path_24869" data-name="Path 24869" d="M428.555,36.013a4.327,4.327,0,0,0-1.649.375V72.942L422,93.459l10.342-17.077a6.68,6.68,0,0,0,.792-3.154V40.465A4.453,4.453,0,0,0,428.555,36.013Z" transform="translate(-359.357 -30.666)" fill="#ffd17e"/>
        <path id="Path_24870" data-name="Path 24870" d="M293.388,78.06a6.681,6.681,0,0,0,.32-2.044V42.625a4.894,4.894,0,0,0-1.774-4.077,4.571,4.571,0,0,0-2.679,4.169V70.1L269.067,87.677,263.5,97.7v4.453l4.453,1.635h20.559l-1.484-8.164Z" transform="translate(-224.385 -32.826)" fill="#ffd17e"/>
        <path id="Path_24871" data-name="Path 24871" d="M421.87,467l-1.417,7.839,2.227,7.839H425.8c.695,0,1.22-2.215,1.1-4.621l-.4-7.839c-.1-1.863-.557-3.218-1.1-3.218Z" transform="translate(-358.04 -397.677)" fill="#ff303f"/>
        <path id="Path_24872" data-name="Path 24872" d="M263.5,467v11.758c0,2.164.5,3.919,1.113,3.919h24.412L288.215,467Z" transform="translate(-224.385 -397.677)" fill="#ff303f"/>
        <path id="Path_24873" data-name="Path 24873" d="M287.862,222.425a4.514,4.514,0,0,0-6.274.153L266.11,238.056a8.879,8.879,0,0,0-2.609,6.3v8.906a8.907,8.907,0,0,0,8.907-8.906l15.544-15.544A4.454,4.454,0,0,0,287.862,222.425Z" transform="translate(-224.386 -188.39)" fill="#ffb739"/>
        <path id="Path_24874" data-name="Path 24874" d="M129.742,252.082a8.879,8.879,0,0,0-2.609-6.3l-15.478-15.478,13.634,29.488a8.861,8.861,0,0,0,4.453,1.195Z" transform="translate(-95.081 -196.119)" fill="#ffb739"/>
        <path id="Path_24875" data-name="Path 24875" d="M79.336,238.056,67.669,222.577a4.513,4.513,0,0,0-6.274-.153,4.453,4.453,0,0,0-.09,6.385l15.544,15.544a8.9,8.9,0,0,0,4.453,7.711v-7.711a10.513,10.513,0,0,0-1.966-6.3Z" transform="translate(-51.094 -188.39)" fill="#ffb739"/>
        <path id="Path_24876" data-name="Path 24876" d="M248.5,0V20.04A10.02,10.02,0,0,0,248.5,0Z" transform="translate(-211.612 0)" fill="#629d15"/>
        <path id="Path_24877" data-name="Path 24877" d="M196.586,10.02c0-5.534-2.492-10.02-5.567-10.02a10.02,10.02,0,0,0,0,20.04C194.094,20.04,196.586,15.554,196.586,10.02Z" transform="translate(-154.132 0)" fill="#8cc63f"/>
      </g>
    </g>
  </g>
</svg>
