<svg xmlns="http://www.w3.org/2000/svg" width="60" height="60" viewBox="0 0 60 60">
  <g id="event_circle" data-name="event circle" transform="translate(-292 -1846)">
    <circle id="Ellipse_402" data-name="Ellipse 402" cx="30" cy="30" r="30" transform="translate(292 1846)" fill="#fff"/>
    <g id="event" transform="translate(-53 -660)">
      <path id="Path_24611" data-name="Path 24611" d="M742.975,2326.23c-.035-.691-.1-1.375-.192-2.049-.01-.072-.02-.146-.03-.219-.041-.285-.086-.568-.137-.85-.014-.076-.029-.152-.043-.227-.106-.553-.229-1.1-.373-1.643-.014-.053-.025-.109-.04-.164-.052-.191-.11-.379-.167-.568s-.114-.381-.176-.568c-.054-.164-.109-.326-.165-.486-.08-.229-.164-.455-.25-.678-.049-.125-.1-.254-.147-.381-.143-.352-.291-.7-.45-1.043a24.012,24.012,0,0,0-43.6,0c-.159.344-.308.691-.449,1.043-.052.127-.1.256-.149.385q-.129.334-.248.674-.086.246-.167.492c-.061.184-.116.371-.173.557s-.117.389-.171.586c-.014.049-.024.1-.039.152-.147.557-.272,1.119-.381,1.689-.012.063-.023.121-.034.182-.054.291-.1.58-.14.873-.01.068-.019.133-.027.2-.041.3-.078.615-.107.922h0c-.036.375-.066.75-.084,1.131s-.032.779-.032,1.176a24,24,0,1,0,48,0C743.006,2327.018,742.995,2326.623,742.975,2326.23Z" transform="translate(-344.002 208.588)" fill="#29abe2"/>
      <g id="Group_12694" data-name="Group 12694" transform="translate(359.8 2521.6)">
        <path id="Path_24612" data-name="Path 24612" d="M717.678,2321.461l-15.584,11.555v8.258h30.854v-8.258h.07Z" transform="translate(-702.094 -2321.461)" fill="#f90"/>
        <path id="Path_24613" data-name="Path 24613" d="M702.119,2338.73v17.242h30.908V2338.73l-15.577,6.227Z" transform="translate(-702.102 -2327.173)" fill="#fff"/>
        <path id="Path_24614" data-name="Path 24614" d="M723.875,2331.145l1.573,2.977,3.317-.578-2.345,2.418,1.573,2.977-3.023-1.482-2.344,2.414.476-3.33-3.022-1.486,3.317-.574Z" transform="translate(-709.016 -2325.648)" fill="#fff"/>
      </g>
    </g>
  </g>
</svg>
