<svg xmlns="http://www.w3.org/2000/svg" xmlns:xlink="http://www.w3.org/1999/xlink" width="189.07" height="189.054" viewBox="0 0 189.07 189.054">
  <defs>
    <linearGradient id="linear-gradient" x1="0.5" y1="0.42" x2="0.5" y2="1.346" gradientUnits="objectBoundingBox">
      <stop offset="0" stop-color="#ff9100" stop-opacity="0"/>
      <stop offset="1" stop-color="#ff9100"/>
    </linearGradient>
  </defs>
  <g id="Group_13463" data-name="Group 13463" transform="translate(-399.763 -1561.674)">
    <path id="Path_25629" data-name="Path 25629" d="M427.858,540.042c-.285,2.989-.458,6.014-.458,9.078a94.535,94.535,0,1,0,189.07,0c0-3.095-.174-6.147-.465-9.166C553.14,540,490.786,541.836,427.858,540.042Z" transform="translate(-27.637 1107.086)" fill="#ffcb05"/>
    <path id="Path_25630" data-name="Path 25630" d="M521.782,483.072a94.351,94.351,0,0,0-94.077,85.458c62.928,1.793,125.282-.042,188.147-.087a94.353,94.353,0,0,0-94.07-85.371Z" transform="translate(-27.482 1078.602)" fill="#ed1c24"/>
    <path id="Path_25631" data-name="Path 25631" d="M616.47,559.283a94.486,94.486,0,0,1-6.618,34.819H434.019a94.858,94.858,0,0,1,2.056-74.44H607.8A94.153,94.153,0,0,1,616.47,559.283Z" transform="translate(-27.637 1096.922)" fill="#f90"/>
    <g id="Group_13453" data-name="Group 13453" transform="translate(3.799 49.492)">
      <g id="Rectangle_4749" data-name="Rectangle 4749" transform="translate(429.201 1551.508)" fill="#fff" stroke="#707070" stroke-width="1" opacity="0">
        <rect width="130" height="129" rx="8" stroke="none"/>
        <rect x="0.5" y="0.5" width="129" height="128" rx="7.5" fill="none"/>
      </g>
      <g id="download" transform="translate(432.181 1554.385)">
        <g id="Group_13451" data-name="Group 13451" transform="translate(0 0)">
          <path id="Path_25619" data-name="Path 25619" d="M134.747,19.337H92.313V7.252A7.251,7.251,0,0,1,99.564,0H127.5a7.252,7.252,0,0,1,7.252,7.252Z" transform="translate(-69.861 0)" fill="#c6eaf9"/>
          <path id="Path_25620" data-name="Path 25620" d="M89.917,19.337H47.482V7.252A7.252,7.252,0,0,1,54.734,0H82.665a7.252,7.252,0,0,1,7.252,7.252Z" transform="translate(-35.933 0)" fill="#e8edef"/>
          <path id="Path_25621" data-name="Path 25621" d="M42.434,13.764V7.252A7.251,7.251,0,0,0,35.183,0H7.252A7.251,7.251,0,0,0,0,7.252v78.3A10.331,10.331,0,0,0,10.331,95.88h103.38A10.331,10.331,0,0,0,124.042,85.55v-58.3A10.331,10.331,0,0,0,113.711,16.92H45.59a3.156,3.156,0,0,1-3.156-3.156Z" transform="translate(0 0)" fill="#fff"/>
          <g id="Group_13450" data-name="Group 13450" transform="translate(89.131 23.477)">
            <path id="Path_25622" data-name="Path 25622" d="M371.537,104.18h-2.488a2.584,2.584,0,0,1-2.584-2.584V99.109a2.584,2.584,0,0,1,2.584-2.584h2.488a2.584,2.584,0,0,1,2.584,2.584V101.6A2.584,2.584,0,0,1,371.537,104.18Z" transform="translate(-366.465 -96.525)" fill="#ed1c24"/>
            <path id="Path_25623" data-name="Path 25623" d="M411.668,104.18H409.18A2.584,2.584,0,0,1,406.6,101.6V99.109a2.584,2.584,0,0,1,2.584-2.584h2.488a2.584,2.584,0,0,1,2.584,2.584V101.6A2.584,2.584,0,0,1,411.668,104.18Z" transform="translate(-396.835 -96.525)" fill="#ed1c24"/>
            <path id="Path_25624" data-name="Path 25624" d="M451.8,104.18h-2.488a2.584,2.584,0,0,1-2.584-2.584V99.109a2.584,2.584,0,0,1,2.584-2.584H451.8a2.584,2.584,0,0,1,2.584,2.584V101.6A2.584,2.584,0,0,1,451.8,104.18Z" transform="translate(-427.206 -96.525)" fill="#ed1c24"/>
          </g>
          <path id="Path_25625" data-name="Path 25625" d="M0,304.771v11.424a10.331,10.331,0,0,0,10.331,10.331h103.38a10.331,10.331,0,0,0,10.331-10.331V304.771Z" transform="translate(0 -230.645)" fill="url(#linear-gradient)"/>
        </g>
        <g id="Group_13452" data-name="Group 13452" transform="translate(94.589 124.041) rotate(180)">
          <path id="Path_25627" data-name="Path 25627" d="M57.357,29.323H50.148V6.142A6.142,6.142,0,0,0,44.006,0H22.579a6.142,6.142,0,0,0-6.142,6.142v23.18H7.779A7.767,7.767,0,0,0,1.2,41.216L25.988,80.74a7.767,7.767,0,0,0,13.16,0L63.937,41.216a7.767,7.767,0,0,0-6.58-11.894Z" fill="#9cdbf5"/>
          <path id="Path_25628" data-name="Path 25628" d="M24.789,29.323H17.58V6.142A6.142,6.142,0,0,0,11.437,0H0V84.38a7.7,7.7,0,0,0,6.58-3.64L31.369,41.216a7.767,7.767,0,0,0-6.58-11.894Z" transform="translate(32.568)" fill="#9cdbf5"/>
        </g>
      </g>
    </g>
  </g>
</svg>
