<svg id="Group_12669" data-name="Group 12669" xmlns="http://www.w3.org/2000/svg" width="40.041" height="40" viewBox="0 0 40.041 40">
  <path id="Path_24543" data-name="Path 24543" d="M35.837,31.83a3.126,3.126,0,0,0-2.4-.915L31.12,28.6A17.407,17.407,0,1,0,0,17.885,17.41,17.41,0,0,0,24.175,33.92a17.2,17.2,0,0,0,3.982-2.354l2.312,2.312a3.141,3.141,0,0,0,.915,2.4l3.286,3.286a3.147,3.147,0,1,0,4.448-4.452ZM28.124,25.6a13.685,13.685,0,0,1-1.385,1.624,13.253,13.253,0,0,1-1.578,1.347A13.207,13.207,0,0,1,8.061,8.544,13.206,13.206,0,0,1,30.6,17.881,13.061,13.061,0,0,1,28.124,25.6Z" transform="translate(0 -0.487)" fill="#f90"/>
  <g id="Group_12668" data-name="Group 12668" transform="translate(6.584 6.009)">
    <path id="Path_24544" data-name="Path 24544" d="M303.609,145.786h2.413a1.559,1.559,0,0,1,1.5,1.368h2.111a3.672,3.672,0,0,0-3.609-3.466h-2.413A3.672,3.672,0,0,0,300,147.154h2.111A1.552,1.552,0,0,1,303.609,145.786Z" transform="translate(-293.995 -143.688)" fill="#f90"/>
    <path id="Path_24545" data-name="Path 24545" d="M185.183,251.288H172.111a3.04,3.04,0,0,0-1.746.99.905.905,0,0,0-.269.722,5.736,5.736,0,0,0,2.858,4.041,12.8,12.8,0,0,0,5.464,1.884,16.285,16.285,0,0,0,1.935.117,15.621,15.621,0,0,0,3.5-.39,12.08,12.08,0,0,0,3.9-1.611A5.756,5.756,0,0,0,190.613,253a1,1,0,0,0-.269-.722,3.04,3.04,0,0,0-1.746-.99Z" transform="translate(-169.539 -246.773)" fill="#f90"/>
    <path id="Path_24546" data-name="Path 24546" d="M176.044,372.9a13.094,13.094,0,0,1-3.449,1.578,16.929,16.929,0,0,1-4.876.7c-.122,0-.248,0-.369,0a15.159,15.159,0,0,1-7.956-2.27,9.323,9.323,0,0,1-2.245-2.027c-.143-.185-.248-.151-.248.08v5.85a2.63,2.63,0,0,0,2.568,2.686H175.96a2.451,2.451,0,0,0,1.276-.357,2.7,2.7,0,0,0,1.292-2.329v-5.846c0-.231-.1-.264-.248-.08A9.2,9.2,0,0,1,176.044,372.9Z" transform="translate(-156.9 -361.228)" fill="#f90"/>
  </g>
</svg>
