<svg xmlns="http://www.w3.org/2000/svg" xmlns:xlink="http://www.w3.org/1999/xlink" width="60" height="60" viewBox="0 0 60 60">
  <defs>
    <clipPath id="clip-path">
      <circle id="Ellipse_416" data-name="Ellipse 416" cx="24.182" cy="24.182" r="24.182" fill="#fff"/>
    </clipPath>
  </defs>
  <g id="flag_circle" data-name="flag circle" transform="translate(-617 -1009)">
    <circle id="Ellipse_402" data-name="Ellipse 402" cx="30" cy="30" r="30" transform="translate(617 1009)" fill="#fff"/>
    <g id="flag">
      <circle id="Ellipse_412" data-name="Ellipse 412" cx="24.182" cy="24.182" r="24.182" transform="translate(623 1015)" fill="#29abe2"/>
      <g id="Mask_Group_20" data-name="Mask Group 20" transform="translate(623 1015.637)" clip-path="url(#clip-path)">
        <g id="Group_13027" data-name="Group 13027" transform="translate(-872 -1367.637)">
          <g id="Group_13023" data-name="Group 13023" transform="translate(879 1376)">
            <g id="Group_13022" data-name="Group 13022" transform="translate(1.843 0)">
              <rect id="Rectangle_4667" data-name="Rectangle 4667" width="28.499" height="1.934" transform="translate(0 9.029) rotate(-18.47)" fill="#ed1c24"/>
              <rect id="Rectangle_4668" data-name="Rectangle 4668" width="28.499" height="1.934" transform="translate(0.613 10.863) rotate(-18.47)" fill="#f15a24"/>
              <rect id="Rectangle_4669" data-name="Rectangle 4669" width="28.499" height="1.934" transform="translate(1.225 12.697) rotate(-18.47)" fill="#ffcb05"/>
              <rect id="Rectangle_4670" data-name="Rectangle 4670" width="28.499" height="1.934" transform="translate(1.838 14.531) rotate(-18.47)" fill="#8cc63f"/>
              <rect id="Rectangle_4671" data-name="Rectangle 4671" width="28.499" height="1.934" transform="translate(2.45 16.365) rotate(-18.47)" fill="#29abe2"/>
              <rect id="Rectangle_4672" data-name="Rectangle 4672" width="28.499" height="1.934" transform="translate(3.063 18.199) rotate(-18.47)" fill="#453875"/>
              <rect id="Rectangle_4673" data-name="Rectangle 4673" width="28.499" height="1.934" transform="translate(3.676 20.033) rotate(-18.47)" fill="#ff73ff"/>
              <rect id="Rectangle_4674" data-name="Rectangle 4674" width="28.499" height="1.934" transform="translate(4.288 21.867) rotate(-18.47)" fill="#8ad1ef"/>
              <rect id="Rectangle_4675" data-name="Rectangle 4675" width="28.499" height="1.934" transform="translate(4.901 23.702) rotate(-18.47)" fill="#754c24"/>
              <rect id="Rectangle_4676" data-name="Rectangle 4676" width="28.499" height="1.934" transform="translate(5.514 25.536) rotate(-18.47)"/>
            </g>
            <rect id="Rectangle_4677" data-name="Rectangle 4677" width="1.793" height="40.02" transform="translate(0 9.036) rotate(-21.061)" fill="#fff"/>
          </g>
        </g>
      </g>
    </g>
  </g>
</svg>
