<svg xmlns="http://www.w3.org/2000/svg" width="150" height="150" viewBox="0 0 150 150">
  <g id="Group_14337" data-name="Group 14337" transform="translate(-481 -10417)">
    <g id="Ellipse_494" data-name="Ellipse 494" transform="translate(481 10417)" fill="#c9f" stroke="#707070" stroke-width="1">
      <circle cx="75" cy="75" r="75" stroke="none"/>
      <circle cx="75" cy="75" r="74.5" fill="none"/>
    </g>
    <g id="Group_14311" data-name="Group 14311" transform="translate(-881.929 156.999)">
      <path id="Path_26150" data-name="Path 26150" d="M68.148,27.4,42.442,1.692A5.816,5.816,0,0,0,38.331,0H11.643A11.642,11.642,0,0,0,0,11.643V81.5A11.643,11.643,0,0,0,11.644,93.143H58.215A11.643,11.643,0,0,0,69.858,81.5V31.527A5.853,5.853,0,0,0,68.148,27.4ZM40.75,4.117l25,24.99H45.116a4.379,4.379,0,0,1-4.366-4.366ZM66.947,81.5a8.741,8.741,0,0,1-8.732,8.732H11.643A8.741,8.741,0,0,1,2.911,81.5V11.643a8.741,8.741,0,0,1,8.732-8.732h26.2V24.741a7.284,7.284,0,0,0,7.277,7.277h21.83ZM29.107,64.036A14.554,14.554,0,0,0,14.554,78.59,2.915,2.915,0,0,0,17.464,81.5H52.393A2.911,2.911,0,0,0,55.3,78.59,14.554,14.554,0,0,0,40.75,64.036ZM52.393,78.59H17.464A11.656,11.656,0,0,1,29.107,66.947H40.75A11.654,11.654,0,0,1,52.393,78.59ZM34.929,34.929A11.643,11.643,0,1,0,46.572,46.572,11.654,11.654,0,0,0,34.929,34.929Zm0,20.375a8.732,8.732,0,1,1,8.732-8.732A8.734,8.734,0,0,1,34.929,55.3Z" transform="translate(1403 10285)" fill="#fff"/>
      <g id="Group_14310" data-name="Group 14310" transform="translate(1442.858 10345)">
        <g id="Ellipse_498" data-name="Ellipse 498" fill="#c9f" stroke="#fff" stroke-width="1">
          <circle cx="20" cy="20" r="20" stroke="none"/>
          <circle cx="20" cy="20" r="19.5" fill="none"/>
        </g>
        <path id="Path_26149" data-name="Path 26149" d="M24.691,6.223l-6.549-6a.889.889,0,0,0-1.476.718V4.161c-6.2.071-11.111,1.306-11.111,7.144A7.828,7.828,0,0,0,8.77,17.216.686.686,0,0,0,9.853,16.5c-1.75-5.561,1.258-6.785,6.813-6.824V12.9a.889.889,0,0,0,1.476.717l6.549-6A.94.94,0,0,0,24.691,6.223ZM18.055,16.661a1.389,1.389,0,0,0-1.389,1.389V19.4H2.778V5.55H4.166a1.389,1.389,0,0,0,0-2.778H2.778A2.777,2.777,0,0,0,0,5.55V19.4a2.778,2.778,0,0,0,2.778,2.778H16.666A2.778,2.778,0,0,0,19.444,19.4V18.05A1.387,1.387,0,0,0,18.055,16.661Z" transform="translate(10.5 8.914)" fill="#fff"/>
      </g>
    </g>
  </g>
</svg>
