<svg xmlns="http://www.w3.org/2000/svg" width="26.651" height="26" viewBox="0 0 26.651 26"><defs><style>.a{fill:#fff;}</style></defs><path class="a" d="M423.826,427.317l.966.068a12.363,12.363,0,0,1,2.807.538,13.09,13.09,0,0,1,3.591,1.741,13.3,13.3,0,0,1,4.093,4.487,13.168,13.168,0,0,1,1.486,4.158,12.913,12.913,0,0,1,.176,3.225,13.352,13.352,0,0,1-7.687,11.207c-.422.2-.862.352-1.3.521a.785.785,0,0,1-.574,0,.664.664,0,0,1-.4-.717c.01-1.214.03-2.428.021-3.642a3.348,3.348,0,0,0-.617-2.068c-.072-.1-.157-.182-.247-.287.3-.047.586-.084.867-.135a7.107,7.107,0,0,0,2.954-1.146,5.011,5.011,0,0,0,1.908-2.8,8.354,8.354,0,0,0,.272-3.256,4.877,4.877,0,0,0-1.2-2.707.258.258,0,0,1-.067-.289,4.817,4.817,0,0,0-.153-3.3.247.247,0,0,0-.183-.112,3.305,3.305,0,0,0-1.72.376c-.583.284-1.14.626-1.711.936a.3.3,0,0,1-.2.035,12.565,12.565,0,0,0-3.7-.409,11.56,11.56,0,0,0-2.678.4.347.347,0,0,1-.318-.043,9.02,9.02,0,0,0-2.293-1.146,3.1,3.1,0,0,0-1.091-.154.194.194,0,0,0-.2.145,4.835,4.835,0,0,0-.128,3.315.2.2,0,0,1-.064.227,5.055,5.055,0,0,0-.871,1.4,4.767,4.767,0,0,0-.381,1.623,8.627,8.627,0,0,0,.411,3.294,5.016,5.016,0,0,0,3.039,3.133,9.312,9.312,0,0,0,2.461.583c.026,0,.052.019.039.014-.186.331-.387.652-.548.992a3.045,3.045,0,0,0-.17.631.265.265,0,0,1-.182.217,3.349,3.349,0,0,1-1.98.2,2.626,2.626,0,0,1-1.644-1.233,3.4,3.4,0,0,0-1.356-1.324,1.66,1.66,0,0,0-1.193-.125c-.235.064-.286.212-.134.4a1.282,1.282,0,0,0,.352.324,3.05,3.05,0,0,1,1.126,1.2,8.937,8.937,0,0,1,.482.953,2.519,2.519,0,0,0,1.866,1.47,5.568,5.568,0,0,0,2.048.042c.165-.024.33-.041.521-.065,0,.363,0,.726,0,1.088,0,.416-.008.833.013,1.249.034.645-.44.889-1.006.7a12.789,12.789,0,0,1-3.244-1.632,13.318,13.318,0,0,1,5.668-24.149c.513-.072,1.034-.088,1.552-.13.046,0,.09-.012.136-.018Z" transform="translate(-410.328 -427.317)"/></svg>