<svg xmlns="http://www.w3.org/2000/svg" width="20" height="20" viewBox="0 0 20 20">
  <g id="goal" transform="translate(0 0)">
    <path id="Path_24797" data-name="Path 24797" d="M178.781,175.061a3.165,3.165,0,1,0,2.486,2.486l-1.86,1.86a1.758,1.758,0,0,1-2.486-2.486Zm0,0" transform="translate(-168.165 -168.164)" fill="#29abe2"/>
    <path id="Path_24798" data-name="Path 24798" d="M19.1,5.867,17.844,7.128a1.76,1.76,0,0,1-.422.312,7.851,7.851,0,1,1-4.861-4.862,1.759,1.759,0,0,1,.311-.422L14.133.9A10,10,0,1,0,19.1,5.867Zm0,0" fill="#29abe2"/>
    <path id="Path_24799" data-name="Path 24799" d="M94.168,86.7l-.107-1.266A6.68,6.68,0,1,0,97.92,89.3l-1.266-.107-.929.929a4.336,4.336,0,1,1-2.486-2.486Zm0,0" transform="translate(-81.68 -81.679)" fill="#29abe2"/>
    <path id="Path_24800" data-name="Path 24800" d="M245.117,11.481l.171,2.021-4.117,4.117a.586.586,0,1,0,.829.829l4.117-4.117,2.021.17.049,0a.586.586,0,0,0,.414-.172l2.486-2.486a.586.586,0,0,0-.365-1l-1.8-.152-.152-1.8a.586.586,0,0,0-1-.365l-2.486,2.486a.586.586,0,0,0-.17.464Zm0,0" transform="translate(-231.586 -8.033)" fill="#29abe2"/>
  </g>
</svg>
