<svg xmlns="http://www.w3.org/2000/svg" width="150" height="150" viewBox="0 0 150 150">
  <g id="Group_14325" data-name="Group 14325" transform="translate(-656 -10417)">
    <g id="Ellipse_495" data-name="Ellipse 495" transform="translate(656 10417)" fill="#8cc63f" stroke="#707070" stroke-width="1">
      <circle cx="75" cy="75" r="75" stroke="none"/>
      <circle cx="75" cy="75" r="74.5" fill="none"/>
    </g>
    <path id="Path_26157" data-name="Path 26157" d="M51.334,91.736a3.168,3.168,0,0,1-4.511,0L34.05,78.962a3.189,3.189,0,0,1,4.511-4.511L48.9,84.97,72.37,61.678a3.189,3.189,0,0,1,4.511,4.511ZM38.121,32H72.63A14.361,14.361,0,0,1,84.9,38.9l18.462,30.345a14.342,14.342,0,0,1,0,14.929L84.9,114.509a14.351,14.351,0,0,1-12.275,6.906H38.121a14.279,14.279,0,0,1-12.095-6.906L7.557,84.172a14.343,14.343,0,0,1,0-14.929L26.026,38.9A14.289,14.289,0,0,1,38.121,32ZM13.012,72.556a7.989,7.989,0,0,0,0,8.3L31.475,111.2a7.935,7.935,0,0,0,6.646,3.832H72.63a8.237,8.237,0,0,0,6.826-3.832L97.917,80.859a7.962,7.962,0,0,0,0-8.3L79.456,42.219a8.227,8.227,0,0,0-6.826-3.832H38.121a7.926,7.926,0,0,0-6.646,3.832Z" transform="translate(675.538 10415.293)" fill="#fff"/>
  </g>
</svg>
