<svg xmlns="http://www.w3.org/2000/svg" width="40" height="25.123" viewBox="0 0 40 25.123"><defs><style>.a{fill:#29abe2;}</style></defs><g transform="translate(-15.139 -105.51)"><path class="a" d="M151.309,318.062l-.177-.127a.885.885,0,0,0-1.234.2l-1.667,2.314a.884.884,0,0,0,.2,1.234l.177.127a.885.885,0,0,0,1.234-.2l1.667-2.314A.885.885,0,0,0,151.309,318.062Z" transform="translate(-121.889 -194.634)"/><path class="a" d="M124.737,289.052a.878.878,0,0,0-.356-.575l-.177-.127a.885.885,0,0,0-1.234.2l-2.251,3.124a.884.884,0,0,0,.2,1.233l.177.127a.885.885,0,0,0,1.234-.2l2.251-3.124A.878.878,0,0,0,124.737,289.052Z" transform="translate(-96.662 -167.506)"/><path class="a" d="M178.347,345.872l-.177-.127a.885.885,0,0,0-1.233.2l-1.189,1.65a.884.884,0,0,0,.2,1.233l.177.127a.885.885,0,0,0,1.234-.2l1.189-1.65A.885.885,0,0,0,178.347,345.872Z" transform="translate(-147.12 -220.135)"/><path class="a" d="M28.411,111.386l-7.309-4.2L15.139,118.6l7.3,4.087a.261.261,0,0,0,.36-.105l5.7-10.853a.261.261,0,0,0-.092-.342Zm-6.8.412-2.616,4.909a.415.415,0,1,1-.733-.39l2.616-4.909a.415.415,0,1,1,.733.39Zm1.015-1.905-.312.586a.415.415,0,1,1-.733-.39l.312-.586a.415.415,0,1,1,.733.39Z" transform="translate(0 -1.534)"/><path class="a" d="M196.894,168.02a5.25,5.25,0,0,1-2.822-.1l-2.2-.62a2.506,2.506,0,0,0-1.434.023L188.3,168a2.5,2.5,0,0,0-1.553,1.415l-1.61,4.369a2.411,2.411,0,0,0,2.1-.252,2.333,2.333,0,0,0,1.038-1.722,2.273,2.273,0,0,1,.079-.421,3.19,3.19,0,0,1,.251-.623,1.672,1.672,0,0,1,1.49-.988.547.547,0,0,1,.114.016l1,.281a3.052,3.052,0,0,1,1.318.767l7.54,7.236a3.5,3.5,0,0,0,1.394-1.3l-4.2-8.9Z" transform="translate(-155.887 -56.574)"/><path class="a" d="M332.216,109.189l-.02.008a.261.261,0,0,0-.14.354l5.263,11.161a.26.26,0,0,0,.335.13l8.065-3.775L340.3,105.51Z" transform="translate(-290.58)"/><path class="a" d="M205.383,373.679l-.177-.127a.885.885,0,0,0-1.234.2l-.711.987a.885.885,0,0,0,.2,1.234l.177.127a.885.885,0,0,0,1.234-.2l.711-.987a.885.885,0,0,0-.2-1.234Z" transform="translate(-172.35 -245.634)"/><path class="a" d="M143.519,193.937l-8.875-8.39a2.223,2.223,0,0,0-.96-.559l-.935-.264c-.557.042-.811.713-.9,1.028a1.423,1.423,0,0,0-.045.251h0a3.16,3.16,0,0,1-1.4,2.333,3.216,3.216,0,0,1-3.107.238l-.14-.062a.415.415,0,0,1-.226-.509l1.752-4.795a3.365,3.365,0,0,1,.285-.533,4.242,4.242,0,0,0-1.925.079l-4.392,8.363.965.971.605-.84a1.714,1.714,0,0,1,2.393-.389l.147.106a1.765,1.765,0,0,1,.667.909,1.705,1.705,0,0,1-.042,1.121,1.7,1.7,0,0,1,.928.32l.177.127a1.716,1.716,0,0,1,.644,1.86,1.7,1.7,0,0,1,.985.321l.177.127a1.715,1.715,0,0,1,.644,1.86,1.7,1.7,0,0,1,.985.321l.177.127a1.715,1.715,0,0,1,.645,1.86l1.008.805.012.01a1.129,1.129,0,1,0,1.476-1.708l-.829-.716a.421.421,0,0,1,.157-.72.371.371,0,0,1,.386.091l1.483,1.281a1.15,1.15,0,0,0,1.578-.053,1.13,1.13,0,0,0-.078-1.634l-1.494-1.291a.427.427,0,0,1-.081-.565.415.415,0,0,1,.611-.075l2.186,1.888a1.129,1.129,0,1,0,1.479-1.705l-2.176-1.88a.427.427,0,0,1-.081-.565.415.415,0,0,1,.611-.075l3.015,2.6a1.117,1.117,0,0,0,.82.271,1.133,1.133,0,0,0,.777-.393l0,0a1.127,1.127,0,0,0,.284-.783A1.078,1.078,0,0,0,143.519,193.937Z" transform="translate(-98.583 -70.692)"/></g></svg>