<svg xmlns="http://www.w3.org/2000/svg" width="150" height="150" viewBox="0 0 150 150">
  <g id="Group_14333" data-name="Group 14333" transform="translate(0.441)">
    <g id="Ellipse_496" data-name="Ellipse 496" transform="translate(-0.441)" fill="#0cf" stroke="#707070" stroke-width="1">
      <circle cx="75" cy="75" r="75" stroke="none"/>
      <circle cx="75" cy="75" r="74.5" fill="none"/>
    </g>
    <path id="Path_26218" data-name="Path 26218" d="M50,71.875a23.778,23.778,0,0,0,17.949-8.3,3.129,3.129,0,1,1,4.727,4.1,29.829,29.829,0,0,1-45.352,0,3.129,3.129,0,0,1,4.727-4.1A23.476,23.476,0,0,0,50,71.875ZM39.141,40.625a4.688,4.688,0,1,1-4.687-4.687A4.689,4.689,0,0,1,39.141,40.625Zm21.875,0A4.688,4.688,0,1,1,65.7,45.313,4.676,4.676,0,0,1,61.016,40.625ZM100,50A50,50,0,1,1,50,0,50,50,0,0,1,100,50ZM50,6.25A43.75,43.75,0,1,0,93.75,50,43.753,43.753,0,0,0,50,6.25Z" transform="translate(25 25)" fill="#fff"/>
  </g>
</svg>
