<svg xmlns="http://www.w3.org/2000/svg" width="150" height="150" viewBox="0 0 150 150">
  <g id="Group_14340" data-name="Group 14340" transform="translate(-1006 -10417)">
    <g id="Ellipse_497" data-name="Ellipse 497" transform="translate(1006 10417)" fill="#f90" stroke="#707070" stroke-width="1">
      <circle cx="75" cy="75" r="75" stroke="none"/>
      <circle cx="75" cy="75" r="74.5" fill="none"/>
    </g>
    <path id="Path_26152" data-name="Path 26152" d="M66.273,15.625a1.564,1.564,0,0,0,1.563-1.562V1.563a1.563,1.563,0,0,0-3.125,0v12.5A1.565,1.565,0,0,0,66.273,15.625ZM77.211,18.75a1.552,1.552,0,0,0,1.1-.458L87.69,8.917a1.562,1.562,0,0,0-1.1-2.667,1.557,1.557,0,0,0-1.1.458l-9.375,9.375a1.562,1.562,0,0,0,1.1,2.667Zm-22.988-.457A1.569,1.569,0,0,0,56.9,17.188a1.557,1.557,0,0,0-.458-1.1L47.065,6.708a1.562,1.562,0,1,0-2.209,2.209ZM78.773,39.785c0-4.693-3.346-8.23-7.785-8.23-4.461-.012-7.84,3.523-7.84,8.23v7.381L37.738,22.441a8.167,8.167,0,0,0-5.8-2.383,8.266,8.266,0,0,0-8.209,7.633,8.065,8.065,0,0,0-4.439-1.3A8.234,8.234,0,0,0,12.36,39.063a8.268,8.268,0,0,0-7.631,8.2A8.178,8.178,0,0,0,7.14,53.088l4.934,4.934A8.23,8.23,0,0,0,7.1,72.029L26.75,91.678a28.36,28.36,0,0,0,40.051.088l2.969-2.84a30.5,30.5,0,0,0,9-21.7ZM75.648,67.227A27.309,27.309,0,0,1,67.6,86.66l-3.012,2.893a25.239,25.239,0,0,1-35.621-.072L9.5,70.014a5.558,5.558,0,0,1-1.627-3.9,5.065,5.065,0,0,1,8.658-3.5L27.136,73.213a1.607,1.607,0,0,0,2.272-2.272L9.541,51.074a5.566,5.566,0,0,1-1.63-3.91,5.065,5.065,0,0,1,8.658-3.5L36.176,63.105a1.6,1.6,0,0,0,1.135.47,1.618,1.618,0,0,0,1.605-1.605,1.6,1.6,0,0,0-.47-1.135L15.869,38.418a5.562,5.562,0,0,1-1.629-3.906,5.035,5.035,0,0,1,5.049-5,5.086,5.086,0,0,1,3.609,1.5L46.121,54.23a1.605,1.605,0,0,0,2.27,0,1.577,1.577,0,0,0,.479-1.144,1.6,1.6,0,0,0-.469-1.133L28.539,32.09a5.562,5.562,0,0,1-1.629-3.906,5.065,5.065,0,0,1,8.658-3.5l28.066,27.3a1.531,1.531,0,0,0,1.079.446,1.566,1.566,0,0,0,1.56-1.571V39.707a4.945,4.945,0,0,1,4.75-5.033c2.711-.006,4.625,2.221,4.625,5.111ZM95.98,31.25c-4.471,0-7.84,3.539-7.84,8.23v8.658a1.566,1.566,0,0,0,3.133.006v-8.73a4.945,4.945,0,0,1,4.75-5.033c2.711-.006,4.625,2.221,4.625,5.092V66.934A27.3,27.3,0,0,1,92.6,86.365l-3.012,2.893c-7.512,7.5-13.937,5.371-13.937,8.223a1.43,1.43,0,0,0,1.585,1.387A27.188,27.188,0,0,0,91.8,91.289l2.967-2.848a29.751,29.751,0,0,0,9.01-21.508V39.473C103.773,34.766,100.433,31.25,95.98,31.25Z" transform="translate(1026.769 10435.439)" fill="#fff"/>
  </g>
</svg>
