<svg xmlns="http://www.w3.org/2000/svg" width="23.999" height="24" viewBox="0 0 23.999 24"><defs><style>.a{fill:#fff;}</style></defs><path class="a" d="M95.993,103H86.008A7.015,7.015,0,0,1,79,95.993V86.009A7.015,7.015,0,0,1,86.008,79h9.984A7.015,7.015,0,0,1,103,86.009v9.985A7.015,7.015,0,0,1,95.993,103ZM86.008,81.035a4.979,4.979,0,0,0-4.974,4.974v9.985a4.979,4.979,0,0,0,4.974,4.974h9.984a4.979,4.979,0,0,0,4.974-4.974V86.009a4.979,4.979,0,0,0-4.974-4.974Zm0,0" transform="translate(-79.001 -79.001)"/><path class="a" d="M166.508,173.017a6.508,6.508,0,1,1,6.508-6.508A6.516,6.516,0,0,1,166.508,173.017Zm0-10.983a4.475,4.475,0,1,0,4.474,4.475A4.479,4.479,0,0,0,166.508,162.034Zm0,0" transform="translate(-154.509 -154.508)"/><path class="a" d="M340.233,147.1a.931.931,0,1,1-.931-.931A.931.931,0,0,1,340.233,147.1Zm0,0" transform="translate(-320.787 -141.614)"/></svg>