<svg xmlns="http://www.w3.org/2000/svg" width="39" height="36.5" viewBox="0 0 39 36.5">
  <g id="Group_14292" data-name="Group 14292" transform="translate(-1037.5 -1218.75)">
    <g id="Group_14285" data-name="Group 14285" transform="translate(197 785)">
      <g id="Group_14166" data-name="Group 14166">
        <path id="Path_26132" data-name="Path 26132" d="M24.375,25.55a1.217,1.217,0,0,1-1.219,1.217H15.844a1.221,1.221,0,0,1-1.219-1.217V21.9H0V32.85A3.746,3.746,0,0,0,3.656,36.5H35.344A3.747,3.747,0,0,0,39,32.85V21.9H24.375ZM35.344,7.3H29.25V3.65A3.746,3.746,0,0,0,25.594,0H13.406A3.746,3.746,0,0,0,9.75,3.65V7.3H3.656A3.746,3.746,0,0,0,0,10.95v8.517H39V10.95A3.746,3.746,0,0,0,35.344,7.3Zm-9.75,0H13.406V3.65H25.594Z" transform="translate(840.5 433.75)" fill="#f90"/>
      </g>
    </g>
  </g>
</svg>
