<svg id="looking_circle" xmlns="http://www.w3.org/2000/svg" width="60" height="60" viewBox="0 0 60 60">
  <circle id="Ellipse_402" data-name="Ellipse 402" cx="30" cy="30" r="30" fill="#fff"/>
  <g id="looking" transform="translate(6 6)">
    <path id="Path_24438" data-name="Path 24438" d="M59.532,495.472a23.986,23.986,0,0,1-12.853,21.253,22.433,22.433,0,0,1-4.587,1.831,24,24,0,1,1,17.439-23.084Z" transform="translate(-11.54 -471.472)" fill="#29abe2"/>
  </g>
  <g id="Group_13777" data-name="Group 13777" transform="translate(15.473 14.047)">
    <path id="Path_25637" data-name="Path 25637" d="M67.143,40.748a11.865,11.865,0,0,1,.076-4.588,2.52,2.52,0,0,1,1.7-1.687c.015,0,.3-1.892,4.179-2.034s6.956,1.51,6.2,8.319l-.97,1.538-5.259-5.087s-4.522,2.916-4.921,4.308S67.143,40.748,67.143,40.748Z" transform="translate(-58.565 -32.43)" fill="#2a2a2a"/>
    <path id="Path_25638" data-name="Path 25638" d="M45.294,160.026H16.24s0-8.524,1.322-9.364,9.727-3.6,9.727-3.6h6.963s8.405,2.764,9.724,3.6S45.294,160.026,45.294,160.026Z" transform="translate(-16.24 -128.12)" fill="#af7059"/>
    <path id="Path_25639" data-name="Path 25639" d="M90.053,124.83l-3.272.55v.091l-.273-.041-.266.041v-.091l-3.153-.55.17-1.375.373-3.025H89.39l.321,2.145Z" transform="translate(-72.044 -105.89)" fill="#af7059"/>
    <path id="Path_25640" data-name="Path 25640" d="M133.369,84.042s.479-1.9,1.674-1.057,0,3.617-1.684,3.6C133.359,86.585,132.911,84.724,133.369,84.042Z" transform="translate(-113.844 -74.452)" fill="#af7059"/>
    <path id="Path_25641" data-name="Path 25641" d="M63.152,82.961s-.479-1.9-1.674-1.054,0,3.617,1.682,3.6C63.16,85.505,63.61,83.643,63.152,82.961Z" transform="translate(-53.6 -73.551)" fill="#af7059"/>
    <path id="Path_25642" data-name="Path 25642" d="M81.718,50.839c-1.12-5.375-5.243-5-5.243-5s-4.121-.377-5.241,5a10.3,10.3,0,0,0,.479,5.981c.727,1.786,2.122,3.709,4.762,3.709s4.037-1.923,4.764-3.709A10.3,10.3,0,0,0,81.718,50.839Z" transform="translate(-61.949 -43.621)" fill="#af7059"/>
    <path id="Path_25643" data-name="Path 25643" d="M85.1,42.229a7.121,7.121,0,0,0,4.131-.423c1.674-.919,4.493,3.835,4.415,5.814l.525-2.255L91.649,40.6l-4.792-.355S84.637,41.445,85.1,42.229Z" transform="translate(-73.669 -38.95)" fill="#212121"/>
    <path id="Path_25644" data-name="Path 25644" d="M71,51.9a14.159,14.159,0,0,0-2.335,5.2L68.15,56.2S69,51.164,71,51.9Z" transform="translate(-59.573 -48.625)" fill="#212121"/>
    <path id="Path_25645" data-name="Path 25645" d="M45.294,160.026H16.24s0-8.524,1.322-9.364a19.238,19.238,0,0,1,2.478-1.067c1.409-.535,3.139-1.138,4.55-1.626,1.535-.525,2.7-.909,2.7-.909l3.4,6.123,3.567-6.123s1.17.383,2.708.914c1.353.461,2.989,1.036,4.36,1.55a19.932,19.932,0,0,1,2.655,1.138C45.294,151.5,45.294,160.026,45.294,160.026Z" transform="translate(-16.24 -128.12)" fill="#fff"/>
    <path id="Path_25646" data-name="Path 25646" d="M96.967,162.968l-.94-1.768H94.65l-.94,1.768.137,1.175.62,1.206-.43,5.33,1.254.848v.064l.048-.031.046.031v-.064l1.254-.848-.43-5.33.621-1.206Z" transform="translate(-80.91 -139.923)" fill="#f90"/>
    <path id="Path_25647" data-name="Path 25647" d="M75.3,140.544l1.457-1.8,2.581,3.711-.864,2.941Z" transform="translate(-65.542 -121.174)" fill="#d0ebf8"/>
    <path id="Path_25648" data-name="Path 25648" d="M111.54,139.922l-1.353-1.862-2.706,3.823.849,2.941Z" transform="translate(-92.404 -120.607)" fill="#d0ebf8"/>
  </g>
</svg>
