<svg xmlns="http://www.w3.org/2000/svg" xmlns:xlink="http://www.w3.org/1999/xlink" width="1464" height="584" viewBox="0 0 1464 584">
  <defs>
    <linearGradient id="linear-gradient" x1="0.5" y1="-0.446" x2="0.5" y2="0.87" gradientUnits="objectBoundingBox">
      <stop offset="0" stop-color="#0e5df8"/>
      <stop offset="0.31" stop-color="#0e4de0"/>
      <stop offset="0.963" stop-color="#0f26a2"/>
      <stop offset="1" stop-color="#10249f"/>
    </linearGradient>
    <clipPath id="clip-path">
      <rect id="Rectangle_4570" data-name="Rectangle 4570" width="1464" height="354" transform="translate(230 203)" fill="#522e90"/>
    </clipPath>
    <clipPath id="clip-path-2">
      <rect id="Rectangle_4569" data-name="Rectangle 4569" width="1464" height="900.923" fill="url(#linear-gradient)"/>
    </clipPath>
    <linearGradient id="linear-gradient-3" x1="0.5" y1="0.45" x2="0.5" y2="0.905" gradientUnits="objectBoundingBox">
      <stop offset="0"/>
      <stop offset="0.229" stop-color="#040404"/>
      <stop offset="0.493" stop-color="#121212"/>
      <stop offset="0.771" stop-color="#292929"/>
      <stop offset="1" stop-color="#424242"/>
    </linearGradient>
    <linearGradient id="linear-gradient-4" x1="1.407" y1="-0.987" x2="1.127" y2="-2.111" xlink:href="#linear-gradient-3"/>
  </defs>
  <g id="banner_bg" transform="translate(-230 -203)">
    <rect id="Rectangle_4347" data-name="Rectangle 4347" width="1464" height="584" transform="translate(230 203)" fill="#522e90"/>
    <g id="Mask_Group_11" data-name="Mask Group 11" opacity="0.25" clip-path="url(#clip-path)" style="mix-blend-mode: luminosity;isolation: isolate">
      <g id="Group_12679" data-name="Group 12679" transform="translate(230 -67)" style="mix-blend-mode: normal;isolation: isolate">
        <g id="Group_12678" data-name="Group 12678">
          <rect id="Rectangle_4568" data-name="Rectangle 4568" width="1464" height="900.923" fill="url(#linear-gradient)"/>
          <g id="Group_12677" data-name="Group 12677" clip-path="url(#clip-path-2)">
            <g id="Group_12676" data-name="Group 12676" transform="translate(-359.855 -446.182)">
              <path id="Path_24557" data-name="Path 24557" d="M159.559-66.535c201.1-127.24,374.884-78.543,562.4,26.255,160.449,89.67,314.713,225.193,496.162,241.063,180.895,15.822,340.837-42.9,498.664,48.625,211.6,122.716,218.13,345.179,120.17,508.484-135.82,226.426-398.186,239.8-592.607,121.1-160.887-98.229-329.384-205.942-532.339-174.914C525.077,732.652,323.351,903.746,130.063,810.435-89.149,704.6-212.385,168.793,159.559-66.535Z" transform="translate(193.34 142.632)" fill="url(#linear-gradient-3)" style="mix-blend-mode: color-dodge;isolation: isolate"/>
              <g id="Group_12675" data-name="Group 12675" transform="translate(0 35.318)" style="mix-blend-mode: color-dodge;isolation: isolate">
                <path id="Path_24558" data-name="Path 24558" d="M257.6,74.759c-21.519,51.7-133.984,43.044-138.892,91.613C112.79,224.9,204.5,220.6,243.7,208.3c97.434-30.578,103.225,38.887,184.62,59.276,60.775,15.225,80.457-53.761,147.8-27.879,62.58,24.047,85.391-61.76,40.294-88.9-59.533-35.834-126.517,19.927-171-46.645C406.169,45.428,318.26-70.988,257.6,74.759Z" transform="translate(611.898 420.114)" fill="rgba(0,0,0,0)" stroke="#000" stroke-linecap="round" stroke-linejoin="round" stroke-width="4.574"/>
                <path id="Path_24559" data-name="Path 24559" d="M260.691,75.979c-22.7,54.553-141.373,45.418-146.55,96.668-6.241,61.757,90.53,57.227,131.885,44.245,102.805-32.264,108.915,41.033,194.8,62.545,64.128,16.066,84.9-56.724,155.95-29.418,66.03,25.376,90.1-65.164,42.518-93.8C576.48,118.407,505.8,177.246,458.866,107,417.458,45.035,324.7-77.8,260.691,75.979Z" transform="translate(602.158 414.451)" fill="rgba(0,0,0,0)" stroke="#030303" stroke-linecap="round" stroke-linejoin="round" stroke-width="4.574"/>
                <path id="Path_24560" data-name="Path 24560" d="M263.789,77.2C239.9,134.608,115.024,125,109.578,178.926c-6.566,64.982,95.263,60.215,138.78,46.557,108.18-33.954,114.608,43.172,204.982,65.814,67.478,16.9,89.332-59.692,164.1-30.957,69.481,26.7,94.807-68.57,44.74-98.7-66.1-39.788-140.475,22.123-189.86-51.787C428.749,44.641,331.143-84.62,263.789,77.2Z" transform="translate(592.415 408.789)" fill="rgba(0,0,0,0)" stroke="#050505" stroke-linecap="round" stroke-linejoin="round" stroke-width="4.574"/>
                <path id="Path_24561" data-name="Path 24561" d="M266.888,78.426C241.806,138.681,110.734,128.593,105.016,185.2c-6.895,68.207,99.993,63.205,145.671,48.869,113.554-35.64,120.3,45.318,215.167,69.083C536.683,320.9,559.625,240.5,638.106,270.66c72.934,28.029,99.518-71.977,46.964-103.609-69.384-41.762-147.451,23.224-199.292-54.359C440.043,44.247,337.588-91.436,266.888,78.426Z" transform="translate(582.673 403.127)" fill="rgba(0,0,0,0)" stroke="#080808" stroke-linecap="round" stroke-linejoin="round" stroke-width="4.574"/>
                <path id="Path_24562" data-name="Path 24562" d="M269.986,79.648C243.718,142.754,106.44,132.19,100.453,191.475c-7.22,71.436,104.726,66.2,152.566,51.181,118.928-37.326,125.995,47.464,225.347,72.352,74.185,18.588,98.21-65.62,180.4-34.029C735.156,310.335,763,205.6,707.956,172.468c-72.668-43.739-154.43,24.322-208.723-56.933C451.334,43.852,344.031-98.25,269.986,79.648Z" transform="translate(572.93 397.465)" fill="rgba(0,0,0,0)" stroke="#0a0a0a" stroke-linecap="round" stroke-linejoin="round" stroke-width="4.574"/>
                <path id="Path_24563" data-name="Path 24563" d="M273.081,80.872C245.628,146.83,102.15,135.785,95.89,197.751c-7.545,74.664,109.459,69.19,159.46,53.5,124.3-39.012,131.688,49.607,235.529,75.621,77.536,19.423,102.646-68.586,188.556-35.568,79.835,30.678,108.937-78.787,51.409-113.416-75.95-45.712-161.409,25.423-218.155-59.5C462.625,43.456,350.473-105.065,273.081,80.872Z" transform="translate(563.188 391.802)" fill="rgba(0,0,0,0)" stroke="#0d0d0d" stroke-linecap="round" stroke-linejoin="round" stroke-width="4.574"/>
                <path id="Path_24564" data-name="Path 24564" d="M276.179,82.1C247.54,150.9,97.856,139.382,91.327,204.027c-7.871,77.892,114.192,72.18,166.352,55.807,129.677-40.7,137.381,51.753,245.714,78.89,80.886,20.265,107.082-71.548,196.7-37.1,83.289,32,113.648-82.194,53.63-118.318C674.5,135.61,585.346,209.823,526.145,121.226,473.916,43.062,356.915-111.881,276.179,82.1Z" transform="translate(553.445 386.14)" fill="rgba(0,0,0,0)" stroke="#0f0f0f" stroke-linecap="round" stroke-linejoin="round" stroke-width="4.574"/>
                <path id="Path_24565" data-name="Path 24565" d="M279.277,83.319C249.45,154.98,93.565,142.98,86.764,210.3c-8.2,81.121,118.922,75.171,173.246,58.119,135.048-42.384,143.075,53.9,255.893,82.162,84.239,21.1,111.521-74.517,204.86-38.643,86.739,33.331,118.356-85.6,55.851-123.22C694.1,139.051,601.254,216.339,539.6,124.07,485.207,42.668,363.36-118.7,279.277,83.319Z" transform="translate(543.703 380.478)" fill="rgba(0,0,0,0)" stroke="#121212" stroke-linecap="round" stroke-linejoin="round" stroke-width="4.574"/>
                <path id="Path_24566" data-name="Path 24566" d="M282.376,84.539C251.359,159.052,89.271,146.577,82.2,216.577c-8.524,84.349,123.655,78.161,180.141,60.434,140.422-44.073,148.768,56.042,266.076,85.428,87.59,21.944,115.956-77.479,213.009-40.179,90.189,34.657,123.067-89.007,58.075-128.125-85.8-51.644-182.34,28.72-246.446-67.222C496.5,42.273,369.8-125.511,282.376,84.539Z" transform="translate(533.96 374.816)" fill="rgba(0,0,0,0)" stroke="#141414" stroke-linecap="round" stroke-linejoin="round" stroke-width="4.574"/>
                <path id="Path_24567" data-name="Path 24567" d="M285.471,85.762c-32.2,77.364-200.49,64.41-207.832,137.09-8.85,87.577,128.388,81.155,187.035,62.746,145.793-45.756,154.458,58.188,276.258,88.7,90.94,22.783,120.4-80.448,221.161-41.718,93.64,35.984,127.775-92.413,60.3-133.027-89.082-53.621-189.319,29.815-255.878-69.8C507.792,41.877,376.245-132.327,285.471,85.762Z" transform="translate(524.218 369.153)" fill="rgba(0,0,0,0)" stroke="#171717" stroke-linecap="round" stroke-linejoin="round" stroke-width="4.574"/>
                <path id="Path_24568" data-name="Path 24568" d="M288.569,86.986C255.181,167.2,80.687,153.77,73.076,229.128,63.9,319.934,206.2,313.274,267,294.186c151.17-47.442,160.155,60.334,286.44,91.969,94.3,23.624,124.834-83.41,229.313-43.257,97.093,37.313,132.486-95.817,62.52-137.929-92.367-55.6-196.295,30.916-265.309-72.368C519.083,41.483,382.69-139.143,288.569,86.986Z" transform="translate(514.475 363.491)" fill="rgba(0,0,0,0)" stroke="#191919" stroke-linecap="round" stroke-linejoin="round" stroke-width="4.574"/>
                <path id="Path_24569" data-name="Path 24569" d="M291.667,88.209C257.094,171.275,76.4,157.367,68.513,235.4c-9.5,94.034,137.851,87.136,200.821,67.372,156.542-49.132,165.845,62.477,296.623,95.235,97.647,24.466,129.27-86.373,237.462-44.793,100.547,38.64,137.194-99.224,64.744-142.831C772.513,152.813,664.89,242.4,593.423,135.448,530.374,41.089,389.132-145.959,291.667,88.209Z" transform="translate(504.733 357.829)" fill="rgba(0,0,0,0)" stroke="#1c1c1c" stroke-linecap="round" stroke-linejoin="round" stroke-width="4.574"/>
                <path id="Path_24570" data-name="Path 24570" d="M294.765,89.431C259,175.351,72.106,160.964,63.951,241.678,54.125,338.94,206.534,331.8,271.666,311.362c161.916-50.818,171.538,64.622,306.805,98.507,101,25.3,133.706-89.342,245.614-46.332C928.08,403.5,965.987,260.907,891.051,215.8c-98.936-59.549-210.253,33.115-284.172-77.511C541.665,40.694,395.575-152.773,294.765,89.431Z" transform="translate(494.99 352.168)" fill="rgba(0,0,0,0)" stroke="#1f1f1f" stroke-linecap="round" stroke-linejoin="round" stroke-width="4.574"/>
                <path id="Path_24571" data-name="Path 24571" d="M297.863,90.655c-36.95,88.769-230.051,73.9-238.476,157.3-10.154,100.49,147.317,93.12,214.607,72,167.29-52.5,177.235,66.765,316.987,101.773,104.351,26.142,138.145-92.3,253.766-47.868C952.2,415.147,991.362,267.821,913.935,221.22c-102.214-61.526-217.229,34.213-293.6-80.085C552.959,40.3,402.02-159.589,297.863,90.655Z" transform="translate(485.247 346.505)" fill="rgba(0,0,0,0)" stroke="#212121" stroke-linecap="round" stroke-linejoin="round" stroke-width="4.574"/>
                <path id="Path_24572" data-name="Path 24572" d="M300.958,91.876C262.826,183.5,63.522,168.157,54.825,254.233c-10.479,103.716,152.05,96.108,221.5,74.307,172.664-54.19,182.925,68.911,327.17,105.045,107.7,26.981,142.58-95.273,261.918-49.407,110.9,42.616,151.321-109.443,71.408-157.543-105.5-63.5-224.2,35.314-303.032-82.657C564.25,39.9,408.462-166.4,300.958,91.876Z" transform="translate(475.505 340.842)" fill="rgba(0,0,0,0)" stroke="#242424" stroke-linecap="round" stroke-linejoin="round" stroke-width="4.574"/>
                <path id="Path_24573" data-name="Path 24573" d="M304.057,93.1C264.735,187.574,59.228,171.755,50.262,260.508c-10.8,106.944,156.779,99.1,228.4,76.619,178.036-55.876,188.618,71.057,337.352,108.314C727.062,473.264,763.03,347.207,886.078,394.5c114.352,43.942,156.032-112.85,73.632-162.445-108.783-65.476-231.184,36.412-312.464-85.231C575.541,39.51,414.9-173.22,304.057,93.1Z" transform="translate(465.763 335.18)" fill="rgba(0,0,0,0)" stroke="#262626" stroke-linecap="round" stroke-linejoin="round" stroke-width="4.574"/>
                <path id="Path_24574" data-name="Path 24574" d="M307.155,94.322C266.645,191.646,54.937,175.352,45.7,266.783c-11.13,110.172,161.512,102.089,235.291,78.934C464.4,288.152,475.3,418.917,628.522,457.3,742.929,485.96,779.98,356.1,906.744,404.818c117.8,45.268,160.74-116.257,75.853-167.35-112.068-67.453-238.163,37.51-321.9-87.8C586.832,39.115,421.35-180.034,307.155,94.322Z" transform="translate(456.02 329.518)" fill="rgba(0,0,0,0)" stroke="#292929" stroke-linecap="round" stroke-linejoin="round" stroke-width="4.574"/>
                <path id="Path_24575" data-name="Path 24575" d="M310.253,95.545c-41.7,100.175-259.61,83.4-269.116,177.513-11.459,113.4,166.245,105.08,242.182,81.246,188.784-59.251,200,75.343,357.716,114.852,117.758,29.5,155.894-104.166,286.372-54.018,121.253,46.595,165.451-119.663,78.077-172.251-115.349-69.431-245.142,38.608-331.327-90.374C598.123,38.721,427.792-186.851,310.253,95.545Z" transform="translate(446.277 323.856)" fill="rgba(0,0,0,0)" stroke="#2b2b2b" stroke-linecap="round" stroke-linejoin="round" stroke-width="4.574"/>
                <path id="Path_24576" data-name="Path 24576" d="M313.351,96.768c-42.885,103.027-267,85.775-276.777,182.565C24.79,395.959,207.549,387.407,285.651,362.891c194.158-60.934,205.7,77.492,367.9,118.121,121.108,30.344,160.33-107.129,294.521-55.554,124.706,47.921,170.162-123.07,80.3-177.153C909.737,176.9,776.254,288.011,687.613,155.357,609.417,38.327,434.235-193.667,313.351,96.768Z" transform="translate(436.535 318.194)" fill="rgba(0,0,0,0)" stroke="#2e2e2e" stroke-linecap="round" stroke-linejoin="round" stroke-width="4.574"/>
                <path id="Path_24577" data-name="Path 24577" d="M316.446,97.991C272.379,203.869,42.059,186.141,32.011,285.609,19.9,405.463,207.719,396.672,287.983,371.481c199.529-62.624,211.388,79.632,378.078,121.39,124.462,31.182,164.769-110.1,302.676-57.1,128.153,49.25,174.867-126.47,82.522-182.055-121.919-73.381-259.1,40.807-350.19-95.52C620.708,37.93,440.677-200.48,316.446,97.991Z" transform="translate(426.792 312.532)" fill="rgba(0,0,0,0)" stroke="#303030" stroke-linecap="round" stroke-linejoin="round" stroke-width="4.574"/>
                <path id="Path_24578" data-name="Path 24578" d="M319.543,99.215C274.287,207.942,37.766,189.739,27.45,291.884,15.012,414.966,207.888,405.938,290.31,380.068c204.907-64.31,217.085,81.778,388.264,124.659,127.812,32.02,169.208-113.06,310.825-58.632,131.607,50.577,179.578-129.877,84.743-186.957-125.2-75.362-266.073,41.905-359.618-98.091C632,37.536,447.12-207.3,319.543,99.215Z" transform="translate(417.052 306.87)" fill="rgba(0,0,0,0)" stroke="#333" stroke-linecap="round" stroke-linejoin="round" stroke-width="4.574"/>
                <path id="Path_24579" data-name="Path 24579" d="M322.641,100.435C276.2,212.018,33.476,193.334,22.887,298.16,10.124,424.47,208.058,415.2,292.641,388.656c210.278-66,222.778,83.923,398.446,127.931,131.162,32.859,173.644-116.025,318.977-60.171,135.057,51.9,184.286-133.283,86.964-191.862-128.482-77.335-273.049,43.007-369.05-100.663C643.288,37.142,453.562-214.112,322.641,100.435Z" transform="translate(407.309 301.207)" fill="rgba(0,0,0,0)" stroke="#363636" stroke-linecap="round" stroke-linejoin="round" stroke-width="4.574"/>
                <path id="Path_24580" data-name="Path 24580" d="M325.739,101.659C278.109,216.092,29.182,196.931,18.324,304.435c-13.092,129.539,189.9,120.039,276.649,92.811,215.652-67.682,228.469,86.066,408.625,131.2,134.516,33.7,178.082-118.991,327.129-61.707,138.507,53.226,189-136.69,89.188-196.764-131.766-79.313-280.028,44.1-378.482-103.237C654.579,36.748,460-220.928,325.739,101.659Z" transform="translate(397.567 295.545)" fill="rgba(0,0,0,0)" stroke="#383838" stroke-linecap="round" stroke-linejoin="round" stroke-width="4.574"/>
                <path id="Path_24581" data-name="Path 24581" d="M328.834,102.881C280.019,220.167,24.892,200.528,13.761,310.71.345,443.477,208.4,433.739,297.305,405.832,518.328,336.464,531.467,494.044,716.112,540.3c137.869,34.542,182.518-121.953,335.278-63.243,141.961,54.553,193.708-140.1,91.412-201.669C1007.752,194.1,855.8,320.589,754.89,169.578,665.87,36.354,466.45-227.742,328.834,102.881Z" transform="translate(387.824 289.884)" fill="rgba(0,0,0,0)" stroke="#3b3b3b" stroke-linecap="round" stroke-linejoin="round" stroke-width="4.574"/>
                <path id="Path_24582" data-name="Path 24582" d="M331.932,104.1C281.931,224.241,20.6,204.126,9.2,316.986c-13.742,136,199.367,126.02,290.435,97.434,226.4-71.054,239.855,90.358,428.989,137.738,141.223,35.38,186.957-124.922,343.433-64.782,145.411,55.879,198.416-143.5,93.633-206.571-138.335-83.263-293.986,46.3-397.341-108.383C677.164,35.957,472.892-234.558,331.932,104.1Z" transform="translate(378.082 284.221)" fill="rgba(0,0,0,0)" stroke="#3d3d3d" stroke-linecap="round" stroke-linejoin="round" stroke-width="4.574"/>
                <path id="Path_24583" data-name="Path 24583" d="M335.031,105.328C283.841,228.314,16.307,207.721,4.636,323.261c-14.068,139.224,204.1,129.01,297.33,99.749,231.772-72.743,245.548,92.5,439.172,141C885.71,600.235,932.53,436.13,1092.719,497.7c148.865,57.206,203.127-146.91,95.858-211.476-141.617-85.24-300.962,47.4-406.773-110.951C688.455,35.563,479.335-241.374,335.031,105.328Z" transform="translate(368.339 278.559)" fill="rgba(0,0,0,0)" stroke="#404040" stroke-linecap="round" stroke-linejoin="round" stroke-width="4.574"/>
                <path id="Path_24584" data-name="Path 24584" d="M338.129,106.552C285.75,232.39,12.014,211.318.073,329.536-14.323,471.988,208.9,461.54,304.3,431.6c237.146-74.426,251.242,94.647,449.354,144.276,147.923,37.06,195.832-130.85,359.734-67.857C1265.7,566.548,1321.22,357.7,1211.464,291.638c-144.9-87.218-307.94,48.5-416.2-113.526C699.746,35.169,485.78-248.19,338.129,106.552Z" transform="translate(358.597 272.896)" fill="rgba(0,0,0,0)" stroke="#424242" stroke-linecap="round" stroke-linejoin="round" stroke-width="4.574"/>
                <path id="Path_24585" data-name="Path 24585" d="M341.227,107.774C287.663,236.462,7.723,214.915-4.49,335.811-19.211,481.491,209.073,470.805,306.626,440.186c242.52-76.116,256.935,96.79,459.537,147.542,151.277,37.9,200.271-133.815,367.886-69.393,155.766,59.858,212.546-153.723,100.3-221.28-148.183-89.195-314.916,49.6-425.633-116.1C711.037,34.774,492.222-255,341.227,107.774Z" transform="translate(348.854 267.235)" fill="rgba(0,0,0,0)" stroke="#454545" stroke-linecap="round" stroke-linejoin="round" stroke-width="4.574"/>
                <path id="Path_24586" data-name="Path 24586" d="M344.322,108.995C289.572,240.536,3.429,218.513-9.052,342.09-24.1,491,209.243,480.072,308.958,448.774c247.895-77.8,262.628,98.936,469.719,150.814,154.627,38.737,204.707-136.781,376.038-70.935,159.216,61.188,217.251-157.127,102.521-226.182C1105.768,211.3,935.34,353.17,822.171,183.8,722.328,34.381,498.665-261.82,344.322,108.995Z" transform="translate(339.112 261.572)" fill="rgba(0,0,0,0)" stroke="#474747" stroke-linecap="round" stroke-linejoin="round" stroke-width="4.574"/>
                <path id="Path_24587" data-name="Path 24587" d="M347.42,110.219C291.482,244.613-.862,222.108-13.615,348.366c-15.372,152.134,223.029,140.976,324.9,109,253.266-79.488,268.319,101.082,479.9,154.083,157.981,39.578,209.142-139.746,384.187-72.471,162.67,62.514,221.962-160.533,104.745-231.084-154.749-93.149-328.871,51.8-444.5-121.246C733.622,33.984,505.107-268.635,347.42,110.219Z" transform="translate(329.369 255.909)" fill="rgba(0,0,0,0)" stroke="#4a4a4a" stroke-linecap="round" stroke-linejoin="round" stroke-width="4.574"/>
                <path id="Path_24588" data-name="Path 24588" d="M350.518,111.442c-57.124,137.244-355.674,114.264-368.7,243.2C-33.875,510,209.58,498.607,313.621,465.952,572.261,384.775,587.633,569.176,803.7,623.3c161.334,40.42,213.581-142.709,392.339-74.007,166.12,63.84,226.673-163.94,106.969-235.989-158.034-95.122-335.85,52.9-453.928-123.814C744.913,33.59,511.552-275.451,350.518,111.442Z" transform="translate(319.627 250.247)" fill="rgba(0,0,0,0)" stroke="#4c4c4c" stroke-linecap="round" stroke-linejoin="round" stroke-width="4.574"/>
                <path id="Path_24589" data-name="Path 24589" d="M353.617,112.664C295.3,252.761-9.446,229.3-22.741,360.915-38.766,519.506,209.751,507.872,315.95,474.538c264.014-82.86,279.708,105.37,500.266,160.621,164.684,41.258,218.02-145.674,400.492-75.546,169.571,65.164,231.381-167.346,109.19-240.891-161.318-97.1-342.829,53.993-463.359-126.389C756.2,33.2,517.995-282.265,353.617,112.664Z" transform="translate(309.884 244.586)" fill="rgba(0,0,0,0)" stroke="#4f4f4f" stroke-linecap="round" stroke-linejoin="round" stroke-width="4.574"/>
                <path id="Path_24590" data-name="Path 24590" d="M356.712,113.888C297.216,256.834-13.736,232.9-27.3,367.191-43.655,529.01,209.921,517.138,318.282,483.125c269.388-84.546,285.4,107.516,510.448,163.89,168.035,42.1,222.456-148.64,408.641-77.082,173.024,66.49,236.092-170.753,111.414-245.8-164.6-99.073-349.808,55.094-472.791-128.96C767.5,32.8,524.437-289.082,356.712,113.888Z" transform="translate(300.142 238.924)" fill="rgba(0,0,0,0)" stroke="#525252" stroke-linecap="round" stroke-linejoin="round" stroke-width="4.574"/>
                <path id="Path_24591" data-name="Path 24591" d="M359.81,115.111C299.126,260.907-18.03,236.495-31.866,373.466-48.543,538.51,210.088,526.4,320.614,491.716c274.76-86.235,291.092,109.656,520.627,167.159,171.388,42.938,226.895-151.605,416.8-78.621,176.471,67.816,240.8-174.157,113.635-250.7-167.888-101.05-356.784,56.192-482.222-131.535C778.786,32.407,530.882-295.9,359.81,115.111Z" transform="translate(290.399 233.261)" fill="rgba(0,0,0,0)" stroke="#545454" stroke-linecap="round" stroke-linejoin="round" stroke-width="4.574"/>
                <path id="Path_24592" data-name="Path 24592" d="M362.908,116.334C301.035,264.983-22.321,240.092-36.429,379.741c-17,168.272,246.687,155.932,359.371,120.561C603.079,412.381,619.728,612.1,853.755,670.73c174.738,43.776,231.331-154.571,424.945-80.157,179.925,69.143,245.511-177.563,115.856-255.6C1223.39,231.943,1030.8,392.263,902.905,200.864,790.08,32.01,537.324-302.711,362.908,116.334Z" transform="translate(280.657 227.6)" fill="rgba(0,0,0,0)" stroke="#575757" stroke-linecap="round" stroke-linejoin="round" stroke-width="4.574"/>
                <path id="Path_24593" data-name="Path 24593" d="M366.007,117.555c-63.058,151.5-392.621,126.135-407,268.463-17.33,171.5,251.42,158.922,366.266,122.873,285.508-89.6,302.479,113.948,540.995,173.7,178.089,44.614,235.766-157.536,433.094-81.7,183.379,70.469,250.222-180.97,118.08-260.5-174.451-105-370.739,58.391-501.082-136.678C801.371,31.616,543.767-309.527,366.007,117.555Z" transform="translate(270.914 221.937)" fill="rgba(0,0,0,0)" stroke="#595959" stroke-linecap="round" stroke-linejoin="round" stroke-width="4.574"/>
                <path id="Path_24594" data-name="Path 24594" d="M369.1,118.778C304.858,273.13-30.905,247.288-45.555,392.292-63.21,567.021,210.6,554.205,327.606,517.48,618.488,426.187,635.778,633.571,878.78,694.446c181.445,45.456,240.205-160.5,441.249-83.232,186.829,71.8,254.93-184.376,120.3-265.409C1262.6,238.826,1062.615,405.3,929.817,206.555,812.662,31.222,550.212-316.343,369.1,118.778Z" transform="translate(261.172 216.275)" fill="rgba(0,0,0,0)" stroke="#5c5c5c" stroke-linecap="round" stroke-linejoin="round" stroke-width="4.574"/>
                <path id="Path_24595" data-name="Path 24595" d="M372.2,120C306.77,277.206-35.2,250.882-50.117,398.568c-17.981,177.957,260.883,164.9,380.055,127.5C626.191,433.088,643.8,644.3,891.294,706.305c184.8,46.294,244.644-163.468,449.4-84.771,190.279,73.122,259.638-187.783,122.526-270.311C1282.2,242.267,1078.523,411.813,943.272,209.4,823.953,30.829,556.654-323.159,372.2,120Z" transform="translate(251.429 210.612)" fill="rgba(0,0,0,0)" stroke="#5e5e5e" stroke-linecap="round" stroke-linejoin="round" stroke-width="4.574"/>
                <path id="Path_24596" data-name="Path 24596" d="M375.3,121.224C308.68,281.278-39.49,254.479-54.68,404.842c-18.306,181.186,265.616,167.9,386.946,129.814,301.631-94.669,319.559,120.38,571.542,183.5,188.146,47.136,249.08-166.43,457.55-86.31C1555.088,706.3,1625.7,440.663,1486.1,356.637,1301.8,245.7,1094.432,418.325,956.728,212.242,835.244,30.434,563.1-329.973,375.3,121.224Z" transform="translate(241.687 204.951)" fill="rgba(0,0,0,0)" stroke="#616161" stroke-linecap="round" stroke-linejoin="round" stroke-width="4.574"/>
                <path id="Path_24597" data-name="Path 24597" d="M378.4,122.447c-67.807,162.9-422.179,135.63-437.639,288.674C-77.875,595.532,211.106,582.006,334.6,543.244c307-96.352,325.249,122.525,581.721,186.773,191.5,47.977,253.519-169.4,465.7-87.846,197.183,75.774,269.057-194.593,126.971-280.115-187.586-112.909-398.652,62.786-538.808-146.969C846.538,30.037,569.539-336.789,378.4,122.447Z" transform="translate(231.944 199.288)" fill="rgba(0,0,0,0)" stroke="#636363" stroke-linecap="round" stroke-linejoin="round" stroke-width="4.574"/>
                <path id="Path_24598" data-name="Path 24598" d="M381.494,123.671C312.5,289.428-48.074,261.675-63.806,417.4-82.766,605.036,211.276,591.272,336.93,551.831c312.376-98.038,330.942,124.672,591.9,190.045,194.85,48.816,257.955-172.361,473.851-89.385,200.637,77.1,273.768-198,129.2-285.017-190.871-114.886-405.628,63.884-548.24-149.541C857.829,29.643,575.984-343.6,381.494,123.671Z" transform="translate(222.201 193.626)" fill="rgba(0,0,0,0)" stroke="#666" stroke-linecap="round" stroke-linejoin="round" stroke-width="4.574"/>
                <path id="Path_24599" data-name="Path 24599" d="M384.59,124.891C314.411,293.5-52.368,265.269-68.368,423.672c-19.285,190.867,279.812,176.866,407.63,136.749C657.009,460.694,675.9,687.235,941.347,753.732c198.2,49.657,262.391-175.323,482-90.921,204.084,78.427,278.476-201.406,131.413-289.922-194.149-116.86-412.6,64.985-557.668-152.112C869.12,29.249,582.427-350.418,384.59,124.891Z" transform="translate(212.459 187.964)" fill="rgba(0,0,0,0)" stroke="#696969" stroke-linecap="round" stroke-linejoin="round" stroke-width="4.574"/>
                <path id="Path_24600" data-name="Path 24600" d="M387.686,126.114C316.319,297.577-56.66,268.866-72.93,429.947c-19.614,194.1,284.542,179.859,414.518,139.061C664.713,467.6,683.917,697.969,953.856,765.591c201.557,50.492,266.83-178.292,490.155-92.46,207.538,79.754,283.187-204.813,133.637-294.824-197.433-118.837-419.583,66.083-567.1-154.687C880.409,28.855,588.867-357.234,387.686,126.114Z" transform="translate(202.718 182.302)" fill="rgba(0,0,0,0)" stroke="#6b6b6b" stroke-linecap="round" stroke-linejoin="round" stroke-width="4.574"/>
                <path id="Path_24601" data-name="Path 24601" d="M390.784,127.338C318.231,301.651-60.951,272.465-77.493,436.223-97.432,633.547,211.782,619.073,343.92,577.6,672.416,474.5,691.943,708.7,966.37,777.448c204.907,51.334,271.268-181.254,498.307-94,210.988,81.08,287.895-208.22,135.858-299.729C1399.818,262.908,1173.974,450.907,1024,226.464,891.7,28.458,595.312-364.05,390.784,127.338Z" transform="translate(192.976 176.639)" fill="rgba(0,0,0,0)" stroke="#6e6e6e" stroke-linecap="round" stroke-linejoin="round" stroke-width="4.574"/>
                <path id="Path_24602" data-name="Path 24602" d="M393.882,128.561C320.141,305.724-65.244,276.062-82.055,442.5c-20.268,200.552,294,185.84,428.308,143.688C680.122,481.4,699.965,719.435,978.885,789.3c208.257,52.175,275.7-184.22,506.456-95.532,214.438,82.406,292.606-211.626,138.082-304.631-204-122.791-433.538,68.279-585.963-159.829C902.995,28.064,601.755-370.866,393.882,128.561Z" transform="translate(183.233 170.977)" fill="rgba(0,0,0,0)" stroke="#707070" stroke-linecap="round" stroke-linejoin="round" stroke-width="4.574"/>
                <path id="Path_24603" data-name="Path 24603" d="M396.98,129.783C322.054,309.8-69.535,279.656-86.618,448.773c-20.593,203.781,298.737,188.831,435.2,146C687.825,488.3,707.99,730.167,991.4,801.162c211.61,53.014,280.143-187.186,514.612-97.071,217.889,83.733,297.311-215.033,140.3-309.536-207.284-124.765-440.517,69.38-595.391-162.4C914.285,27.669,608.2-377.68,396.98,129.783Z" transform="translate(173.491 165.316)" fill="rgba(0,0,0,0)" stroke="#737373" stroke-linecap="round" stroke-linejoin="round" stroke-width="4.574"/>
                <path id="Path_24604" data-name="Path 24604" d="M400.075,131.007C323.963,313.872-73.829,283.253-91.181,455.048-112.1,662.057,212.289,646.873,350.913,603.359c344.619-108.158,365.1,137.541,653,209.659,214.961,53.855,284.579-190.148,522.76-98.607,221.343,85.059,302.022-218.436,142.527-314.438C1458.629,273.231,1221.7,470.451,1064.372,235,925.576,27.275,614.642-384.5,400.075,131.007Z" transform="translate(163.748 159.653)" fill="rgba(0,0,0,0)" stroke="#757575" stroke-linecap="round" stroke-linejoin="round" stroke-width="4.574"/>
                <path id="Path_24605" data-name="Path 24605" d="M403.174,132.23C325.873,317.945-78.119,286.851-95.744,461.323c-21.244,210.237,308.2,194.815,448.988,150.626,349.99-109.847,370.792,139.684,663.18,212.927,218.311,54.694,289.015-193.117,530.91-100.149,224.8,86.385,306.733-221.84,144.751-319.34-213.853-128.719-454.472,71.58-614.254-167.547C936.867,26.881,621.084-391.313,403.174,132.23Z" transform="translate(154.006 153.991)" fill="rgba(0,0,0,0)" stroke="#787878" stroke-linecap="round" stroke-linejoin="round" stroke-width="4.574"/>
                <path id="Path_24606" data-name="Path 24606" d="M406.272,133.451C327.785,322.023-82.413,290.45-100.307,467.6c-21.569,213.462,312.933,197.806,455.883,152.938,355.364-111.53,376.486,141.83,673.359,216.2C1250.6,892.266,1322.389,640.655,1568,735.049c228.243,87.712,311.441-225.246,146.969-324.242-217.135-130.7-461.448,72.678-623.683-170.121C948.158,26.486,627.527-398.128,406.272,133.451Z" transform="translate(144.263 148.328)" fill="rgba(0,0,0,0)" stroke="#7a7a7a" stroke-linecap="round" stroke-linejoin="round" stroke-width="4.574"/>
                <path id="Path_24607" data-name="Path 24607" d="M409.37,134.674C329.695,326.095-86.7,294.043-104.869,473.874c-21.9,216.691,317.666,200.8,462.774,155.25C718.643,515.908,740.084,773.1,1041.449,848.593c225.018,56.37,297.893-199.048,547.214-103.224,231.7,89.038,316.152-228.653,149.193-329.143C1517.44,283.551,1269.429,490,1104.742,243.532,959.449,26.091,633.972-404.942,409.37,134.674Z" transform="translate(134.521 142.666)" fill="rgba(0,0,0,0)" stroke="#7d7d7d" stroke-linecap="round" stroke-linejoin="round" stroke-width="4.574"/>
                <path id="Path_24608" data-name="Path 24608" d="M412.465,135.9C331.6,330.171-91,297.641-109.432,480.15c-22.223,219.919,322.4,203.79,469.669,157.565C726.349,522.809,748.109,783.83,1053.96,860.449c228.371,57.212,302.332-202.01,555.369-104.76,235.147,90.364,320.86-232.06,151.415-334.048-223.7-134.647-475.406,74.877-642.546-175.264C970.743,25.7,640.414-411.758,412.465,135.9Z" transform="translate(124.778 137.004)" fill="rgba(0,0,0,0)" stroke="#7f7f7f" stroke-linecap="round" stroke-linejoin="round" stroke-width="4.574"/>
                <path id="Path_24609" data-name="Path 24609" d="M415.563,137.12c-82.047,197.124-510.851,164.118-529.558,349.3C-136.543,709.573,213.137,693.206,362.568,646.3c371.484-116.591,393.566,148.261,703.906,226,231.722,58.053,306.767-204.973,563.518-106.3,238.6,91.691,325.571-235.466,153.639-338.951-226.986-136.624-482.382,75.975-651.977-177.838C982.034,25.3,646.857-418.574,415.563,137.12Z" transform="translate(115.036 131.342)" fill="rgba(0,0,0,0)" stroke="#828282" stroke-linecap="round" stroke-linejoin="round" stroke-width="4.574"/>
              </g>
              <path id="Path_24610" data-name="Path 24610" d="M123.18,133.087c169.358-122.216,324.2-88.85,494.066-7.076,145.349,69.969,287.732,180.435,447.527,184.633,159.31,4.189,296.278-55.81,439.428,15.929,191.928,96.183,209.543,290.71,132.464,439.006C1529.8,971.19,1300.68,996.941,1124.018,903.352,977.828,825.9,824.464,740.56,648.337,778.6c-162.226,35.033-329.785,195.7-504.095,124.293C-53.448,821.906-190.057,359.125,123.18,133.087Z" transform="translate(227.303 558.421)" fill="url(#linear-gradient-4)" style="mix-blend-mode: color-dodge;isolation: isolate"/>
            </g>
          </g>
        </g>
      </g>
    </g>
  </g>
</svg>
