<svg xmlns="http://www.w3.org/2000/svg" width="40" height="40" viewBox="0 0 40 40"><defs><style>.a,.d{fill:none;}.a{stroke:#fff;}.b{fill:#f1f2f2;}.c{stroke:none;}</style></defs><g transform="translate(-479 -504)"><g class="a" transform="translate(479 504)"><rect class="c" width="40" height="40" rx="3"/><rect class="d" x="0.5" y="0.5" width="39" height="39" rx="2.5"/></g><path class="b" d="M48,36.23v7.739H43.511v-7.22c0-1.813-.648-3.051-2.272-3.051a2.454,2.454,0,0,0-2.3,1.641,3.071,3.071,0,0,0-.149,1.094v7.537H34.3s.06-12.229,0-13.495h4.488v1.912c-.009.015-.022.03-.03.044h.03v-.044a4.455,4.455,0,0,1,4.044-2.229c2.952,0,5.165,1.929,5.165,6.073ZM29.607,23.969a2.338,2.338,0,1,0-.059,4.664h.029a2.339,2.339,0,1,0,.03-4.664Zm-2.272,20H31.82v-13.5H27.335Z" transform="translate(461.932 490.031)"/></g></svg>