<svg xmlns="http://www.w3.org/2000/svg" width="20.93" height="20" viewBox="0 0 20.93 20"><defs><style>.a{fill:#f1f2f2;}</style></defs><path class="a" d="M48,36.23v7.739H43.511v-7.22c0-1.813-.648-3.051-2.272-3.051a2.454,2.454,0,0,0-2.3,1.641,3.071,3.071,0,0,0-.149,1.094v7.537H34.3s.06-12.229,0-13.495h4.488v1.912c-.009.015-.022.03-.03.044h.03v-.044a4.455,4.455,0,0,1,4.044-2.229c2.952,0,5.165,1.929,5.165,6.073ZM29.607,23.969a2.338,2.338,0,1,0-.059,4.664h.029a2.339,2.339,0,1,0,.03-4.664Zm-2.272,20H31.82v-13.5H27.335Z" transform="translate(-27.068 -23.969)"/></svg>