<svg xmlns="http://www.w3.org/2000/svg" width="238.265" height="55" viewBox="0 0 238.265 55"><defs><style>.a{fill:#f90;}.b,.f{fill:#fff;}.c,.d{fill:#522e90;}.d,.f,.g{fill-rule:evenodd;}.e,.g{fill:#f47d4c;}</style></defs><g transform="translate(-23.547 -41.996)"><path class="a" d="M106.025,55H7.736A7.737,7.737,0,0,1,0,47.262V7.739A7.738,7.738,0,0,1,7.736,0H220.629a7.739,7.739,0,0,1,6.889,4.216l9.9,19.362a7.739,7.739,0,0,1,.046,6.951L230.7,44.2l-3.209,6.489A7.739,7.739,0,0,1,220.557,55Z" transform="translate(23.547 41.995)"/><g transform="translate(90.698 62.573)"><path class="b" d="M256.84,89.152a4.545,4.545,0,0,1-1.655.316,3.788,3.788,0,0,1-1.622-.334,3.731,3.731,0,0,1-1.236-.919,3.974,3.974,0,0,1-.786-1.354,4.928,4.928,0,0,1-.268-1.638,4.677,4.677,0,0,1,.284-1.638,4.4,4.4,0,0,1,.786-1.354,3.793,3.793,0,0,1,1.2-.937,3.457,3.457,0,0,1,1.571-.351,3.9,3.9,0,0,1,1.638.367,3.337,3.337,0,0,1,1.271.969l1.126-1.3L261.2,78.6a6.354,6.354,0,0,0-1.186-.919,7.823,7.823,0,0,0-1.5-.7c-.085-.028-.168-.058-.254-.083a11.863,11.863,0,0,0-1.45-.367,9.574,9.574,0,0,0-1.79-.168,10.645,10.645,0,0,0-3.648.618,8.8,8.8,0,0,0-2.972,1.771,8.25,8.25,0,0,0-1.983,2.793,9.791,9.791,0,0,0,0,7.387,8.232,8.232,0,0,0,1.983,2.793,8.569,8.569,0,0,0,2.972,1.754,11,11,0,0,0,3.682.6,10.555,10.555,0,0,0,3.477-.568,7.15,7.15,0,0,0,2.674-1.571l-3.041-3.711A3.176,3.176,0,0,1,256.84,89.152Z" transform="translate(-154.993 -72.52)"/><path class="b" d="M293.245,77.967l-2.9-2.384a.889.889,0,0,0-1.452.687v4.768a.889.889,0,0,0,1.452.687l2.9-2.385A.889.889,0,0,0,293.245,77.967Z" transform="translate(-167.496 -72.235)"/><path class="b" d="M130.386,82.282a3.342,3.342,0,0,0-1.271-.97,3.9,3.9,0,0,0-1.639-.367,3.457,3.457,0,0,0-1.571.351,3.821,3.821,0,0,0-1.2.936,4.4,4.4,0,0,0-.785,1.354,4.68,4.68,0,0,0-.284,1.638,4.946,4.946,0,0,0,.267,1.638,3.992,3.992,0,0,0,.786,1.354,3.738,3.738,0,0,0,1.237.919,3.8,3.8,0,0,0,1.621.334,4.532,4.532,0,0,0,1.655-.318,3.174,3.174,0,0,0,1.321-.919l3.042,3.711a7.144,7.144,0,0,1-2.675,1.571,10.537,10.537,0,0,1-3.477.568,11.023,11.023,0,0,1-3.682-.6,8.551,8.551,0,0,1-2.971-1.755,8.24,8.24,0,0,1-1.985-2.792,9.8,9.8,0,0,1,0-7.388,8.24,8.24,0,0,1,1.985-2.792,8.768,8.768,0,0,1,2.971-1.772,10.649,10.649,0,0,1,3.649-.618,9.674,9.674,0,0,1,1.788.167,12.153,12.153,0,0,1,1.705.451,7.844,7.844,0,0,1,1.5.7,6.376,6.376,0,0,1,1.187.919Z" transform="translate(-118.05 -72.52)"/><path class="b" d="M157.85,85.157a9.013,9.013,0,0,1-.735,3.694,8.3,8.3,0,0,1-2.006,2.808,9.186,9.186,0,0,1-2.942,1.789,10.342,10.342,0,0,1-7.138,0,8.946,8.946,0,0,1-2.942-1.789,8.392,8.392,0,0,1-1.99-2.808,9,9,0,0,1-.735-3.694,8.888,8.888,0,0,1,.735-3.678,8.261,8.261,0,0,1,1.99-2.775,8.656,8.656,0,0,1,2.942-1.738,10.882,10.882,0,0,1,7.138,0,8.879,8.879,0,0,1,2.942,1.738,8.167,8.167,0,0,1,2.006,2.775A8.9,8.9,0,0,1,157.85,85.157Zm-5.282,0a4.746,4.746,0,0,0-.267-1.571,4.173,4.173,0,0,0-.769-1.354,3.941,3.941,0,0,0-1.237-.953,3.84,3.84,0,0,0-4.63.953,4.074,4.074,0,0,0-.735,1.354,5.045,5.045,0,0,0,0,3.142,4.3,4.3,0,0,0,.752,1.388,3.7,3.7,0,0,0,1.237.986,4.133,4.133,0,0,0,3.41,0,3.7,3.7,0,0,0,1.237-.986,4.3,4.3,0,0,0,.752-1.388A5.019,5.019,0,0,0,152.567,85.157Z" transform="translate(-124.218 -72.52)"/><path class="b" d="M178.852,93.575V84.482a7.357,7.357,0,0,0-.117-1.337,3.689,3.689,0,0,0-.384-1.12,1.99,1.99,0,0,0-.753-.769,2.379,2.379,0,0,0-1.22-.284,2.768,2.768,0,0,0-1.287.284,2.6,2.6,0,0,0-.919.785,3.553,3.553,0,0,0-.551,1.153,4.953,4.953,0,0,0-.184,1.354v9.026H167.92V76.926h5.316v2.307h.067a5.516,5.516,0,0,1,.785-1.053,4.737,4.737,0,0,1,1.137-.886,7.131,7.131,0,0,1,1.421-.6,5.606,5.606,0,0,1,1.638-.234,6.151,6.151,0,0,1,2.842.6,5.436,5.436,0,0,1,1.889,1.555,6.138,6.138,0,0,1,1.037,2.189,9.919,9.919,0,0,1,.318,2.474v10.3Z" transform="translate(-132.484 -72.547)"/><path class="b" d="M205.481,93.575V84.482a7.357,7.357,0,0,0-.117-1.337,3.689,3.689,0,0,0-.384-1.12,1.993,1.993,0,0,0-.752-.769,2.384,2.384,0,0,0-1.221-.284,2.77,2.77,0,0,0-1.287.284,2.6,2.6,0,0,0-.919.785,3.568,3.568,0,0,0-.551,1.153,4.953,4.953,0,0,0-.184,1.354v9.026h-5.516V76.926h5.316v2.307h.067a5.491,5.491,0,0,1,.786-1.053,4.733,4.733,0,0,1,1.136-.886,7.132,7.132,0,0,1,1.421-.6,5.606,5.606,0,0,1,1.638-.234,6.151,6.151,0,0,1,2.842.6,5.429,5.429,0,0,1,1.889,1.555A6.126,6.126,0,0,1,210.68,80.8,9.919,9.919,0,0,1,211,83.278v10.3Z" transform="translate(-140.191 -72.547)"/><path class="b" d="M237.353,85.424v.669a5.815,5.815,0,0,1-.033.635H225.251A2.9,2.9,0,0,0,225.669,88a3.6,3.6,0,0,0,.9.986,4.437,4.437,0,0,0,2.658.886,4.611,4.611,0,0,0,2.206-.485,4.357,4.357,0,0,0,1.471-1.253l3.811,2.407a7.71,7.71,0,0,1-3.092,2.624,10.239,10.239,0,0,1-4.462.919,10.649,10.649,0,0,1-3.544-.586,8.589,8.589,0,0,1-2.925-1.7,7.888,7.888,0,0,1-1.973-2.758A9.224,9.224,0,0,1,220,85.29a9.38,9.38,0,0,1,.7-3.694,8.36,8.36,0,0,1,1.906-2.808A8.495,8.495,0,0,1,225.451,77a9.731,9.731,0,0,1,3.544-.635,8.974,8.974,0,0,1,3.377.618,7.355,7.355,0,0,1,2.641,1.789,8.274,8.274,0,0,1,1.722,2.842A10.939,10.939,0,0,1,237.353,85.424ZM232.3,83.318a3.285,3.285,0,0,0-.819-2.24,3.093,3.093,0,0,0-2.457-.937,4.164,4.164,0,0,0-1.471.251,3.82,3.82,0,0,0-1.17.686,3.4,3.4,0,0,0-.8,1.02,2.986,2.986,0,0,0-.334,1.22Z" transform="translate(-147.558 -72.52)"/><path class="b" d="M264.5,77.9a6.354,6.354,0,0,1,1.186.919l-2.049,2.373h-2.446V77.117h1.55c.087.026.17.055.254.083A7.822,7.822,0,0,1,264.5,77.9Z" transform="translate(-159.48 -72.738)"/><path class="b" d="M275.665,88.071a5.828,5.828,0,0,1-.853.067,1.935,1.935,0,0,1-1.622-.587,2.873,2.873,0,0,1-.451-1.762V79.411h9.781V75.333H272.74V70.954h-5.383v4.379h-3.981c.087.026.17.055.254.083a7.822,7.822,0,0,1,1.5.7,6.354,6.354,0,0,1,1.186.919l-2.049,2.373h3.119v7.04a9.1,9.1,0,0,0,.3,2.429,4.726,4.726,0,0,0,.986,1.877,4.339,4.339,0,0,0,1.823,1.207,8.154,8.154,0,0,0,2.807.419,10.112,10.112,0,0,0,1.739-.15,9.079,9.079,0,0,0,1.438-.351l-.067-4.012A2.981,2.981,0,0,1,275.665,88.071Z" transform="translate(-160.112 -70.954)"/></g><g transform="translate(30.944 50.951)"><path class="b" d="M84.717,54.6H37.438a3.481,3.481,0,0,0-3.481,3.481V84.1a3.481,3.481,0,0,0,3.481,3.481H74.293l2.663,5.094a2.031,2.031,0,0,0,3.6,0l2.662-5.094h1.5A3.482,3.482,0,0,0,88.2,84.1V58.08A3.481,3.481,0,0,0,84.717,54.6Z" transform="translate(-33.957 -54.599)"/><g transform="translate(4.734 5.74)"><g transform="translate(0 1.553)"><path class="c" d="M43.394,64.916h.563V66.1h-.563a.855.855,0,0,0-.838-.632.876.876,0,0,0-.745.335,1.294,1.294,0,0,0-.252.8,1.152,1.152,0,0,0,.266.791.865.865,0,0,0,.678.3.852.852,0,0,0,.59-.229,1.16,1.16,0,0,0,.342-.635l.661.313a1.576,1.576,0,0,1-1.656,1.168,1.786,1.786,0,0,1-1.363-.487,1.727,1.727,0,0,1-.458-1.232,1.764,1.764,0,0,1,.239-.928,1.544,1.544,0,0,1,.643-.6,1.968,1.968,0,0,1,.887-.2,1.592,1.592,0,0,1,1.007.316Z" transform="translate(-40.619 -64.862)"/><path class="c" d="M48.234,68.145v.54H47.109v-.194a1.039,1.039,0,0,1-.634.225.936.936,0,0,1-.6-.2.639.639,0,0,1-.251-.529.708.708,0,0,1,.264-.56,1.01,1.01,0,0,1,.681-.226,1.5,1.5,0,0,1,.535.118V67.18a.4.4,0,0,0-.12-.3.438.438,0,0,0-.321-.117.567.567,0,0,0-.426.185l-.6-.107a1.119,1.119,0,0,1,1.128-.548,1.724,1.724,0,0,1,.558.076.763.763,0,0,1,.33.2.7.7,0,0,1,.153.264,1.722,1.722,0,0,1,.044.465v.849Zm-1.126-.325a.9.9,0,0,0-.428-.169.392.392,0,0,0-.231.074.245.245,0,0,0-.1.214.308.308,0,0,0,.083.216.281.281,0,0,0,.216.09A.728.728,0,0,0,47.109,68Z" transform="translate(-42.069 -65.277)"/><path class="c" d="M49.254,66.9v-.539H50.38v.193a1.483,1.483,0,0,1,.756-.224.835.835,0,0,1,.7.316,1.6,1.6,0,0,1,.937-.316.914.914,0,0,1,.471.107.555.555,0,0,1,.248.287,1.668,1.668,0,0,1,.067.546v.887h.378v.54H52.808V67.332c0-.244-.1-.365-.311-.365a1.09,1.09,0,0,0-.529.159v1.028h.385v.54H51.22V67.354q0-.387-.3-.387a1.188,1.188,0,0,0-.539.159v1.028h.386v.54H49.254v-.54h.378V66.9Z" transform="translate(-43.118 -65.286)"/><path class="c" d="M57.3,69.211v.539H55.686v-.539h.394V66.9h-.332v-.539h1.079v.3a.932.932,0,0,1,.694-.335.851.851,0,0,1,.728.367,1.422,1.422,0,0,1,.266.857,1.321,1.321,0,0,1-.275.858.892.892,0,0,1-.732.34.972.972,0,0,1-.682-.293v.756Zm.455-1.673a.7.7,0,0,0-.126-.458.415.415,0,0,0-.334-.151.426.426,0,0,0-.341.155.7.7,0,0,0-.132.464.71.71,0,0,0,.131.446.415.415,0,0,0,.347.169.407.407,0,0,0,.328-.152A.718.718,0,0,0,57.752,67.539Z" transform="translate(-44.98 -65.286)"/><path class="c" d="M62.581,68.167v.54H61.454v-.2a1.164,1.164,0,0,1-.677.234.661.661,0,0,1-.718-.723v-1.1h-.347v-.539H60.8v1.456a.387.387,0,0,0,.053.238.238.238,0,0,0,.193.064.7.7,0,0,0,.409-.166V66.91h-.362v-.539H62.2v1.8Z" transform="translate(-46.145 -65.299)"/><path class="c" d="M63.939,68.695v-.8h.547a.324.324,0,0,0,.149.264.6.6,0,0,0,.35.1.518.518,0,0,0,.28-.064.191.191,0,0,0,.1-.164.157.157,0,0,0-.093-.143,1.335,1.335,0,0,0-.365-.1,1.91,1.91,0,0,1-.811-.279.588.588,0,0,1-.249-.495.614.614,0,0,1,.236-.487.94.94,0,0,1,.625-.2,1.449,1.449,0,0,1,.589.12v-.089h.532v.686H65.3q-.072-.246-.51-.247-.323,0-.323.178a.111.111,0,0,0,.066.1,1.525,1.525,0,0,0,.338.08,4.051,4.051,0,0,1,.644.146.707.707,0,0,1,.342.248.675.675,0,0,1,.128.415.721.721,0,0,1-.242.562.986.986,0,0,1-.686.22.743.743,0,0,1-.567-.172v.118Z" transform="translate(-47.342 -65.286)"/></g><path class="d" d="M66.982,64.2l16.135-1.528L69.484,71.443Z" transform="translate(-48.249 -62.677)"/><g transform="translate(0.142 6.017)"><path class="c" d="M41.682,71.144h-.863v3.763H42.33v6.262H40.819v3.762H48.9V81.169H47.2v-.617h.29a12.812,12.812,0,0,0,2.3-.175,4.988,4.988,0,0,0,1.835-.726A4.13,4.13,0,0,0,53,78.069a4.768,4.768,0,0,0,.522-2.221,4.35,4.35,0,0,0-1.508-3.454,5.939,5.939,0,0,0-3.988-1.25Zm6.348,1.727a4.3,4.3,0,0,1,2.861.831,2.66,2.66,0,0,1,.908,2.145,3.022,3.022,0,0,1-.328,1.426,2.39,2.39,0,0,1-.8.935,3.233,3.233,0,0,1-1.2.47,11.157,11.157,0,0,1-1.978.145H45.476V82.9h1.7V83.2H42.546V82.9h1.511V73.18H42.546v-.308Z" transform="translate(-40.819 -71.144)"/><path class="c" d="M48.236,74.009h-.863v5.367h1.334a3.5,3.5,0,0,0,2.733-.816,2.747,2.747,0,0,0,.684-1.88,2.775,2.775,0,0,0-.477-1.617,2.167,2.167,0,0,0-1.234-.917,6.634,6.634,0,0,0-1.584-.136Zm.864,1.732a4.486,4.486,0,0,1,.879.076.555.555,0,0,1,.248.23,1.076,1.076,0,0,1,.168.632,1.044,1.044,0,0,1-.249.735s-.193.181-1.047.225Z" transform="translate(-42.716 -71.973)"/><g transform="translate(10.899 3.547)"><path class="c" d="M61.9,76.726V76.26H56.25v3.67H57.7v2.776H56.158v3.67h7.618v-3.67H62.111V82.54a2.881,2.881,0,0,1,.308-1.387A1.144,1.144,0,0,1,63,80.569a4.25,4.25,0,0,1,1.361-.176h.864V76.162l-1.295-.026A3.7,3.7,0,0,0,61.9,76.726Zm-1.727,1.26v1.265l1.444.173a3.265,3.265,0,0,0-.709.9,4.578,4.578,0,0,0-.519,2.213v1.893h1.666v.215H57.885v-.215h1.542V78.2h-1.45v-.216Zm2.439.344a1.911,1.911,0,0,1,.892-.423v.806a4.815,4.815,0,0,0-1.072.226,2.485,2.485,0,0,0-.456.217A2.2,2.2,0,0,1,62.606,78.33Z" transform="translate(-56.158 -76.136)"/></g><g transform="translate(18.694 3.671)"><path class="c" d="M71.94,76.31H67.128v3.67h1.265v2.776H67.128v3.67h6.939v-3.67H72.8V76.31Zm-.864,1.727v6.447h1.265V84.7H68.855v-.215H70.12V78.253H68.855v-.216Z" transform="translate(-67.128 -76.31)"/></g><g transform="translate(24.002)"><path class="c" d="M84.191,71.144H79.348v3.5c-.085,0-.168-.013-.254-.013A4.088,4.088,0,0,0,75.855,76.2,5.506,5.506,0,0,0,74.6,79.842a5.6,5.6,0,0,0,1.221,3.622,4.043,4.043,0,0,0,3.266,1.591,3.813,3.813,0,0,0,1.558-.333v.21h5.768v-3.67H85.054V71.144Zm-.864,1.727V82.988h1.357V83.2H82.371V80.978L80.9,82.461a2.528,2.528,0,0,1-1.81.867,2.331,2.331,0,0,1-1.924-.951,3.864,3.864,0,0,1-.836-2.535,3.777,3.777,0,0,1,.853-2.535,2.4,2.4,0,0,1,1.916-.95,2.12,2.12,0,0,1,1.746.843l1.531,1.865V73.087h-1.3v-.216Zm-2.683,1.943v.122c-.107-.045-.215-.087-.326-.122Z" transform="translate(-74.598 -71.144)"/><path class="c" d="M79.047,80.064a3.582,3.582,0,0,0-.585,2.1,3.677,3.677,0,0,0,.566,2.061,2.23,2.23,0,0,0,1.95,1.032,2.459,2.459,0,0,0,1.793-.786,3.2,3.2,0,0,0,.749-2.3,3.16,3.16,0,0,0-.77-2.324,2.5,2.5,0,0,0-1.781-.76A2.252,2.252,0,0,0,79.047,80.064Zm1.423,3.21a1.974,1.974,0,0,1-.281-1.111,1.921,1.921,0,0,1,.271-1.106.539.539,0,0,1,.509-.242.753.753,0,0,1,.565.259c.077.077.259.339.259,1.1a1.572,1.572,0,0,1-.263,1.1.719.719,0,0,1-.552.26A.522.522,0,0,1,80.47,83.275Z" transform="translate(-75.716 -73.443)"/></g><g transform="translate(34.217 3.485)"><path class="c" d="M90.509,77.6a5.259,5.259,0,0,0-1.535,3.838,4.852,4.852,0,0,0,1.521,3.7,5.735,5.735,0,0,0,4.062,1.4,5.355,5.355,0,0,0,4.829-2.446l.608-.947-1.352-.431h.974v-.863a7.64,7.64,0,0,0-.465-2.712,4.672,4.672,0,0,0-1.774-2.208,5.145,5.145,0,0,0-2.982-.878A5.267,5.267,0,0,0,90.509,77.6Zm1.166,6.274a3.147,3.147,0,0,1-.973-2.436,3.549,3.549,0,0,1,3.694-3.663,3.4,3.4,0,0,1,2,.572,2.948,2.948,0,0,1,1.14,1.4,5.455,5.455,0,0,1,.294,1.239H91.58l.048.909a2.817,2.817,0,0,0,1.086,2.277,3.228,3.228,0,0,0,1.884.636l-.042,0A4.031,4.031,0,0,1,91.675,83.875Zm3.863-1.164a1.588,1.588,0,0,1-.916.37,1.52,1.52,0,0,1-.9-.315.57.57,0,0,1-.054-.055Zm1.231,1.216.355.113a4,4,0,0,1-2.462.763A3.392,3.392,0,0,0,96.769,83.928Z" transform="translate(-88.974 -76.049)"/><path class="c" d="M92.7,80.97l-.146.99h5.529l-.126-.974a2.9,2.9,0,0,0-.783-1.663A2.637,2.637,0,0,0,92.7,80.97Z" transform="translate(-90.012 -76.778)"/></g></g><g transform="translate(0.635 6.511)"><path class="b" d="M41.883,71.839h-.37v2.775h1.511v7.249H41.513v2.776h7.094V81.863h-1.7v-1.6h.784a12.35,12.35,0,0,0,2.206-.166,4.5,4.5,0,0,0,1.653-.653,3.648,3.648,0,0,0,1.213-1.4,4.283,4.283,0,0,0,.467-1.995,3.875,3.875,0,0,0-1.337-3.08,5.467,5.467,0,0,0-3.666-1.13Zm6.348.74a4.763,4.763,0,0,1,3.183.951,3.127,3.127,0,0,1,1.08,2.519A3.544,3.544,0,0,1,52.11,77.7a2.917,2.917,0,0,1-.964,1.12,3.771,3.771,0,0,1-1.382.543,11.571,11.571,0,0,1-2.07.153H46.171V82.6h1.7v1.3H42.253V82.6h1.511V73.875H42.253v-1.3Z" transform="translate(-41.513 -71.839)"/><path class="b" d="M48.438,74.7h-.37v4.38h.84a3.139,3.139,0,0,0,2.363-.65,2.266,2.266,0,0,0,.559-1.553,2.3,2.3,0,0,0-.388-1.336,1.688,1.688,0,0,0-.952-.72,6.277,6.277,0,0,0-1.46-.121Zm.592.74a5.535,5.535,0,0,1,1.274.1.978.978,0,0,1,.53.426,1.55,1.55,0,0,1,.257.914,1.531,1.531,0,0,1-.373,1.062c-.133.149-.544.4-1.81.4h-.1v-2.9Z" transform="translate(-43.41 -72.668)"/><g transform="translate(10.9 3.547)"><path class="b" d="M62.014,77.586a3.93,3.93,0,0,0-.411.4V76.954H56.945v2.684h1.45V83.4H56.853v2.684h6.631V83.4H61.818v-.659a3.365,3.365,0,0,1,.369-1.623,1.6,1.6,0,0,1,.851-.814,4.708,4.708,0,0,1,1.525-.2h.37V76.847l-.8-.016A3.206,3.206,0,0,0,62.014,77.586Zm.476.567a2.451,2.451,0,0,1,1.643-.583h.06v1.8a4.948,4.948,0,0,0-1.4.234,2.34,2.34,0,0,0-1.256,1.159,4.094,4.094,0,0,0-.459,1.977v1.4h1.666v1.2H57.593v-1.2h1.543V78.9h-1.45v-1.2h3.176v1.758l.73.088A2.574,2.574,0,0,1,62.49,78.153Z" transform="translate(-56.853 -76.831)"/></g><g transform="translate(18.695 3.67)"><path class="b" d="M72.141,77H67.823v2.684h1.264V83.45H67.823v2.684h5.952V83.45H72.511V77Zm-.37.74v6.446h1.264v1.2H68.563v-1.2h1.265V78.947H68.563v-1.2Z" transform="translate(-67.823 -77.004)"/></g><g transform="translate(24.003)"><path class="b" d="M84.392,71.839H80.042v2.683h1.3v1.467a3.317,3.317,0,0,0-2.043-.665,3.613,3.613,0,0,0-2.861,1.391,5.021,5.021,0,0,0-1.142,3.328A5.117,5.117,0,0,0,76.4,83.354a3.57,3.57,0,0,0,2.882,1.408,3.479,3.479,0,0,0,2.052-.689v.566h4.78V81.955H84.762V71.839Zm-.37.74V82.7h1.357v1.2h-3.3V82.375l-.632.635a2.993,2.993,0,0,1-2.159,1.013,2.826,2.826,0,0,1-2.307-1.134A4.719,4.719,0,0,1,77,77.19,2.868,2.868,0,0,1,79.3,76.064a2.615,2.615,0,0,1,2.127,1.024l.656.8V73.782h-1.3v-1.2Z" transform="translate(-75.293 -71.839)"/><path class="b" d="M79.651,80.549a3.1,3.1,0,0,0-.5,1.816,3.2,3.2,0,0,0,.485,1.789,1.76,1.76,0,0,0,1.538.811,1.947,1.947,0,0,0,1.438-.636,2.733,2.733,0,0,0,.61-1.955A2.665,2.665,0,0,0,82.6,80.4a1.986,1.986,0,0,0-1.433-.617A1.777,1.777,0,0,0,79.651,80.549Zm.608,3.2a2.479,2.479,0,0,1-.362-1.382,2.388,2.388,0,0,1,.36-1.39,1.027,1.027,0,0,1,.913-.452,1.255,1.255,0,0,1,.912.4,2.032,2.032,0,0,1,.405,1.448,2.054,2.054,0,0,1-.4,1.44,1.218,1.218,0,0,1-.906.411A1.011,1.011,0,0,1,80.259,83.746Z" transform="translate(-76.411 -74.138)"/></g><g transform="translate(34.218 3.485)"><path class="b" d="M91.061,78.15a4.781,4.781,0,0,0-1.392,3.491,4.376,4.376,0,0,0,1.365,3.338,5.261,5.261,0,0,0,3.724,1.266,4.89,4.89,0,0,0,4.414-2.219l.26-.406-2.763-.88-.159.16a2.484,2.484,0,0,1-1.687.878,2,2,0,0,1-1.19-.408,1.41,1.41,0,0,1-.524-.949h6.215v-.37a7.168,7.168,0,0,0-.432-2.538A4.2,4.2,0,0,0,97.3,77.534a4.663,4.663,0,0,0-2.7-.79A4.787,4.787,0,0,0,91.061,78.15Zm.478,6.288a3.616,3.616,0,0,1-1.13-2.8A4.043,4.043,0,0,1,94.6,77.484a3.935,3.935,0,0,1,2.281.66A3.466,3.466,0,0,1,98.2,79.772a6.217,6.217,0,0,1,.369,1.906H92.3l.021.39a2.35,2.35,0,0,0,.88,1.9,2.746,2.746,0,0,0,1.621.546,3.057,3.057,0,0,0,2.034-.941l1.4.446a4.215,4.215,0,0,1-3.5,1.482A4.558,4.558,0,0,1,91.539,84.437Z" transform="translate(-89.669 -76.744)"/><path class="b" d="M93.426,81.244l-.062.424h4.4l-.053-.417a2.413,2.413,0,0,0-.652-1.387,2.145,2.145,0,0,0-3.629,1.381ZM95.526,80a1.3,1.3,0,0,1,.993.372,1.647,1.647,0,0,1,.345.554H94.256A1.189,1.189,0,0,1,95.526,80Z" transform="translate(-90.738 -77.473)"/></g></g><g transform="translate(0.971 6.881)"><path class="e" d="M48.34,82.384V84.42H41.986V82.384H43.5V74.4H41.986V72.36h6.348a5.093,5.093,0,0,1,3.425,1.04,3.507,3.507,0,0,1,1.208,2.8,3.9,3.9,0,0,1-.425,1.824,3.265,3.265,0,0,1-1.089,1.258,4.1,4.1,0,0,1-1.518.6,11.922,11.922,0,0,1-2.138.16H46.644v2.344Zm-1.7-4.349h.47a2.879,2.879,0,0,0,2.086-.526,1.9,1.9,0,0,0,.465-1.307,1.927,1.927,0,0,0-.322-1.125A1.33,1.33,0,0,0,48.6,74.5a6.041,6.041,0,0,0-1.367-.109h-.592Z" transform="translate(-41.986 -72.36)"/><path class="e" d="M63.217,83.921v1.943H57.326V83.921h1.542v-4.5h-1.45V77.475h3.917V79.6a2.961,2.961,0,0,1,1.02-1.582,2.831,2.831,0,0,1,1.881-.669c.121,0,.264,0,.431.009v2.52a5.045,5.045,0,0,0-1.648.225,1.967,1.967,0,0,0-1.053.986,3.709,3.709,0,0,0-.414,1.8v1.029Z" transform="translate(-46.426 -73.805)"/><path class="e" d="M68.3,79.468V77.525h3.948v6.446h1.264v1.943H68.3V83.971H69.56v-4.5Z" transform="translate(-49.601 -73.855)"/><path class="e" d="M85.852,82.476V84.42H81.811v-1a3.369,3.369,0,0,1-2.422,1.121,3.2,3.2,0,0,1-2.594-1.27,4.734,4.734,0,0,1-1.029-3.078A4.649,4.649,0,0,1,76.821,77.1,3.244,3.244,0,0,1,79.4,75.845,2.988,2.988,0,0,1,81.811,77V74.3h-1.3V72.36h3.979V82.476Zm-4.01-2.251a2.356,2.356,0,0,0-.514-1.712A1.624,1.624,0,0,0,80.154,78a1.4,1.4,0,0,0-1.216.61,2.735,2.735,0,0,0-.428,1.6,2.826,2.826,0,0,0,.424,1.586,1.382,1.382,0,0,0,1.229.644,1.583,1.583,0,0,0,1.172-.523A2.38,2.38,0,0,0,81.842,80.225Z" transform="translate(-51.763 -72.36)"/><path class="e" d="M96.875,83.311l2.088.665a4.523,4.523,0,0,1-4.1,2.049,4.882,4.882,0,0,1-3.471-1.166,4,4,0,0,1-1.248-3.067A4.41,4.41,0,0,1,94.7,77.265a4.278,4.278,0,0,1,2.491.725,3.816,3.816,0,0,1,1.457,1.8,6.771,6.771,0,0,1,.409,2.407H92.795a2,2,0,0,0,.726,1.621,2.377,2.377,0,0,0,1.406.477A2.817,2.817,0,0,0,96.875,83.311Zm-.5-2.591a2.046,2.046,0,0,0-.552-1.179,1.661,1.661,0,0,0-1.261-.487q-1.489,0-1.733,1.666Z" transform="translate(-55.924 -73.78)"/></g><path class="f" d="M67.967,64.77l2.12,6.131,11.548-7.425Z" transform="translate(-48.534 -62.908)"/><path class="g" d="M70.878,66.748a2.708,2.708,0,0,1,2.581,1.889l6.959-4.474L68.731,65.27l.664,1.921A2.692,2.692,0,0,1,70.878,66.748Z" transform="translate(-48.755 -63.107)"/></g></g><path class="b" d="M331.268,74.344a16.4,16.4,0,0,1-32.756,1.308q-.053-.648-.053-1.308c0-.1,0-.2,0-.3.01-.537.046-1.069.105-1.592q.093-.815.264-1.605a16.406,16.406,0,0,1,32.436,3.493Z" transform="translate(-79.568 -4.615)"/><g transform="translate(226.535 55.416)"><circle class="a" cx="4.642" cy="4.642" r="4.642" transform="translate(4.435)"/><g transform="translate(0 10.628)"><path class="a" d="M331.946,89.571l1.789.8a1.992,1.992,0,0,0,.4-1.2v-.343c-.035-.018-.07-.038-.106-.054A1.578,1.578,0,0,0,331.946,89.571Z" transform="translate(-315.795 -79.544)"/><path class="a" d="M317.568,91.456l2.969-6.611a1.047,1.047,0,0,1,1.384-.527l2.488,1.118A2.628,2.628,0,0,1,327.557,84V77.841a2,2,0,0,0-2-2h-1.95l-2.589,2.925-1.636-2.925h-1.666l-1.636,2.925-2.589-2.925h-2.275a2,2,0,0,0-2,2v7.63a2,2,0,0,0,2,2h.935V94.98a1.281,1.281,0,0,0,1.281,1.281h9.8a1.278,1.278,0,0,0,1.1-.623l-6.232-2.8A1.047,1.047,0,0,1,317.568,91.456Zm.971-13.77a.979.979,0,1,1-.979.979A.979.979,0,0,1,318.539,77.686Zm0,4.035a.978.978,0,1,1-.979.978A.978.978,0,0,1,318.539,81.72Z" transform="translate(-309.216 -75.839)"/></g></g><g transform="translate(91.168 51.087)"><path class="b" d="M127.429,58.972a2.349,2.349,0,0,0-.9-.685,2.75,2.75,0,0,0-1.158-.26,2.456,2.456,0,0,0-1.111.248,2.715,2.715,0,0,0-.851.662,3.115,3.115,0,0,0-.555.957,3.3,3.3,0,0,0-.2,1.158,3.5,3.5,0,0,0,.189,1.158,2.821,2.821,0,0,0,.556.957,2.628,2.628,0,0,0,.874.649,2.68,2.68,0,0,0,1.145.236,3.206,3.206,0,0,0,1.17-.224,2.242,2.242,0,0,0,.933-.65l2.15,2.623a5.054,5.054,0,0,1-1.89,1.111,7.459,7.459,0,0,1-2.457.4,7.78,7.78,0,0,1-2.6-.426,6.049,6.049,0,0,1-2.1-1.24,5.819,5.819,0,0,1-1.4-1.973,6.923,6.923,0,0,1,0-5.221,5.816,5.816,0,0,1,1.4-1.973,6.2,6.2,0,0,1,2.1-1.253,7.521,7.521,0,0,1,2.579-.437,6.855,6.855,0,0,1,1.264.118,8.605,8.605,0,0,1,1.2.319,5.541,5.541,0,0,1,1.064.5,4.469,4.469,0,0,1,.838.649Z" transform="translate(-118.712 -54.79)"/><path class="b" d="M135.8,56.775a6.787,6.787,0,0,1,2.422-1.489,8.3,8.3,0,0,1,2.823-.5,7.541,7.541,0,0,1,2.516.367,3.751,3.751,0,0,1,1.666,1.134,4.838,4.838,0,0,1,.933,1.937,11.447,11.447,0,0,1,.3,2.776v5.93h-3.544V65.682h-.07a2.921,2.921,0,0,1-1.359,1.134,4.84,4.84,0,0,1-1.973.4,6.045,6.045,0,0,1-1.465-.189,4.285,4.285,0,0,1-1.382-.615,3.33,3.33,0,0,1-1.027-1.134,3.5,3.5,0,0,1-.4-1.748,2.969,2.969,0,0,1,.7-2.056,4.573,4.573,0,0,1,1.795-1.2,9.515,9.515,0,0,1,2.446-.567,25.041,25.041,0,0,1,2.622-.142v-.189a1.444,1.444,0,0,0-.614-1.288,2.653,2.653,0,0,0-1.512-.413,3.766,3.766,0,0,0-1.595.354,5.107,5.107,0,0,0-1.312.851Zm7.111,5.032h-.5q-.637,0-1.288.059a5.317,5.317,0,0,0-1.158.225,2.136,2.136,0,0,0-.838.484,1.113,1.113,0,0,0-.331.839,1.019,1.019,0,0,0,.153.567,1.187,1.187,0,0,0,.39.378,1.639,1.639,0,0,0,.544.2,3.086,3.086,0,0,0,.59.059,2.392,2.392,0,0,0,1.807-.649,2.43,2.43,0,0,0,.626-1.76Z" transform="translate(-123.495 -54.79)"/><path class="b" d="M162.716,58.377a2.984,2.984,0,0,0-.508-.095c-.166-.016-.327-.024-.485-.024a2.769,2.769,0,0,0-1.311.283,2.678,2.678,0,0,0-.851.684,2.591,2.591,0,0,0-.46.872,2.92,2.92,0,0,0-.142.824v6.032h-3.874V55.2h3.733v1.7h.047a3.839,3.839,0,0,1,1.276-1.475,3.286,3.286,0,0,1,1.914-.571,4.439,4.439,0,0,1,.46.023,1.782,1.782,0,0,1,.367.071Z" transform="translate(-129.239 -54.809)"/><path class="b" d="M179.083,61.193v.472a4.1,4.1,0,0,1-.023.449H170.53a2.05,2.05,0,0,0,.3.9,2.549,2.549,0,0,0,.638.7,3.12,3.12,0,0,0,1.878.626,3.253,3.253,0,0,0,1.559-.342,3.076,3.076,0,0,0,1.04-.885l2.693,1.7a5.446,5.446,0,0,1-2.185,1.855,7.229,7.229,0,0,1-3.154.65,7.541,7.541,0,0,1-2.5-.414,6.07,6.07,0,0,1-2.067-1.205,5.577,5.577,0,0,1-1.394-1.949,6.517,6.517,0,0,1-.508-2.645,6.615,6.615,0,0,1,.5-2.611,5.886,5.886,0,0,1,1.347-1.985,5.993,5.993,0,0,1,2.008-1.264,6.869,6.869,0,0,1,2.5-.449,6.34,6.34,0,0,1,2.386.437,5.218,5.218,0,0,1,1.867,1.264,5.846,5.846,0,0,1,1.216,2.008A7.733,7.733,0,0,1,179.083,61.193ZM175.516,59.7a2.324,2.324,0,0,0-.579-1.583,2.187,2.187,0,0,0-1.737-.662,2.929,2.929,0,0,0-1.04.178,2.686,2.686,0,0,0-.826.484,2.4,2.4,0,0,0-.567.721,2.1,2.1,0,0,0-.237.863Z" transform="translate(-132.636 -54.79)"/><path class="b" d="M198.9,61.193v.472a4.087,4.087,0,0,1-.024.449h-8.528a2.05,2.05,0,0,0,.3.9,2.546,2.546,0,0,0,.637.7,3.12,3.12,0,0,0,1.879.626,3.255,3.255,0,0,0,1.559-.342,3.083,3.083,0,0,0,1.04-.885l2.693,1.7a5.446,5.446,0,0,1-2.185,1.855,7.231,7.231,0,0,1-3.154.65,7.538,7.538,0,0,1-2.5-.414,6.071,6.071,0,0,1-2.067-1.205,5.559,5.559,0,0,1-1.394-1.949,6.517,6.517,0,0,1-.508-2.645,6.627,6.627,0,0,1,.5-2.611A5.9,5.9,0,0,1,188.48,56.5a6,6,0,0,1,2.009-1.264,6.864,6.864,0,0,1,2.5-.449,6.34,6.34,0,0,1,2.386.437,5.21,5.21,0,0,1,1.866,1.264,5.847,5.847,0,0,1,1.217,2.008A7.733,7.733,0,0,1,198.9,61.193ZM195.331,59.7a2.323,2.323,0,0,0-.578-1.583,2.188,2.188,0,0,0-1.737-.662,2.926,2.926,0,0,0-1.04.178,2.678,2.678,0,0,0-.826.484,2.4,2.4,0,0,0-.567.721,2.1,2.1,0,0,0-.237.863Z" transform="translate(-138.372 -54.79)"/><path class="b" d="M214.915,58.377a2.971,2.971,0,0,0-.508-.095c-.166-.016-.327-.024-.484-.024a2.77,2.77,0,0,0-1.312.283,2.686,2.686,0,0,0-.851.684,2.591,2.591,0,0,0-.46.872,2.919,2.919,0,0,0-.142.824v6.032h-3.874V55.2h3.733v1.7h.047a3.839,3.839,0,0,1,1.276-1.475,3.288,3.288,0,0,1,1.914-.571,4.439,4.439,0,0,1,.46.023,1.781,1.781,0,0,1,.367.071Z" transform="translate(-144.347 -54.809)"/></g></g></svg>