<svg id="looking_circle" xmlns="http://www.w3.org/2000/svg" width="200" height="200" viewBox="0 0 200 200">
  <circle id="Ellipse_402" data-name="Ellipse 402" cx="100" cy="100" r="100" fill="#fff"/>
  <g id="looking" transform="translate(20 20.003)">
    <path id="Path_24438" data-name="Path 24438" d="M171.512,551.472a79.954,79.954,0,0,1-42.842,70.844,74.78,74.78,0,0,1-15.289,6.1,80,80,0,1,1,58.131-76.948Z" transform="translate(-11.54 -471.475)" fill="#fffae5"/>
    <g id="users-profile-group-delete" transform="translate(28 27.997)">
      <rect id="Rectangle_4844" data-name="Rectangle 4844" width="104.8" height="104.8" transform="translate(0 0)" fill="#fff" opacity="0"/>
      <ellipse id="Ellipse_448" data-name="Ellipse 448" cx="13.085" cy="13.085" rx="13.085" ry="13.085" transform="translate(24.049 37.16)" fill="#f90"/>
      <ellipse id="Ellipse_449" data-name="Ellipse 449" cx="8.723" cy="8.723" rx="8.723" ry="8.723" transform="translate(56.764 45.884)" fill="#2a2a2a"/>
      <path id="Path_25655" data-name="Path 25655" d="M3,32.748a15.238,15.238,0,0,1,15.24-15.24h17.5a15.238,15.238,0,0,1,15.24,15.24" transform="translate(10.149 58.907)" fill="#f90"/>
      <path id="Path_25656" data-name="Path 25656" d="M16.245,32.692V17.525c12.887,0,20.749,6.749,20.749,15.167" transform="translate(50.302 58.964)" fill="#2a2a2a"/>
    </g>
    <g id="Question" transform="translate(73 8.997)">
      <path id="Path_25666" data-name="Path 25666" d="M39,75h0A36,36,0,0,1,3,39H3A36,36,0,0,1,39,3h0A36,36,0,0,1,75,39h0A36,36,0,0,1,39,75Z" fill="none" stroke="#fff" stroke-linecap="round" stroke-linejoin="round" stroke-width="1.5" fill-rule="evenodd" opacity="0"/>
      <path id="Path_25667" data-name="Path 25667" d="M19.95,34.151a2.7,2.7,0,0,1-2.7-2.7v-1c0-4.539,2.8-7,5.238-8.641,2.038-1.374,2.762-2.428,2.762-4.027a5.3,5.3,0,0,0-10.6,0,2.7,2.7,0,0,1-5.4,0,10.7,10.7,0,0,1,21.4,0c0,4.465-2.751,6.892-5.147,8.507-2.107,1.416-2.853,2.5-2.853,4.161v1A2.7,2.7,0,0,1,19.95,34.151Z" transform="translate(19.05 12.549)" fill="#f90"/>
      <path id="Path_25668" data-name="Path 25668" d="M14.7,22.65A3.7,3.7,0,0,1,11,18.959a3.694,3.694,0,0,1,3.7-3.709,3.7,3.7,0,1,1,0,7.4Z" transform="translate(24.3 37.05)" fill="#f90"/>
    </g>
  </g>
</svg>
