<svg id="looking_circle" xmlns="http://www.w3.org/2000/svg" width="200" height="200" viewBox="0 0 200 200">
  <circle id="Ellipse_402" data-name="Ellipse 402" cx="100" cy="100" r="100" fill="#fff"/>
  <g id="looking" transform="translate(20 20.003)">
    <path id="Path_24438" data-name="Path 24438" d="M171.512,551.472a79.954,79.954,0,0,1-42.842,70.844,74.78,74.78,0,0,1-15.289,6.1,80,80,0,1,1,58.131-76.948Z" transform="translate(-11.54 -471.472)" fill="#fffae5"/>
    <g id="user-clock" transform="translate(29.134 41.131)">
      <rect id="Rectangle_4847" data-name="Rectangle 4847" width="97" height="97" transform="translate(-1.134 -1.134)" fill="#fff" opacity="0"/>
      <path id="Path_25665" data-name="Path 25665" d="M30.591,34.558V14.531C13.413,14.531,3,21.857,3,30.6v3.958" transform="translate(8.668 44.395)" fill="#f90"/>
      <ellipse id="Ellipse_450" data-name="Ellipse 450" cx="16" cy="15.5" rx="16" ry="15.5" transform="translate(27.866 15.866)" fill="#2a2a2a"/>
      <circle id="Ellipse_451" data-name="Ellipse 451" cx="16.821" cy="16.821" r="16.821" transform="translate(49.269 53.227)" fill="#2a2a2a"/>
      <path id="Union_4" data-name="Union 4" d="M1.519,12.8A1.519,1.519,0,0,1,0,11.356c0-.026,0-.052,0-.078V1.518a1.519,1.519,0,0,1,3.037,0V9.759h8.24a1.519,1.519,0,1,1,0,3.037Z" transform="translate(63.571 60.065)" fill="#f90"/>
    </g>
    <g id="Question" transform="translate(73 8.997)">
      <path id="Path_25666" data-name="Path 25666" d="M39,75h0A36,36,0,0,1,3,39H3A36,36,0,0,1,39,3h0A36,36,0,0,1,75,39h0A36,36,0,0,1,39,75Z" fill="none" stroke="#fff" stroke-linecap="round" stroke-linejoin="round" stroke-width="1.5" fill-rule="evenodd" opacity="0"/>
      <path id="Path_25667" data-name="Path 25667" d="M19.95,34.151a2.7,2.7,0,0,1-2.7-2.7v-1c0-4.539,2.8-7,5.238-8.641,2.038-1.374,2.762-2.428,2.762-4.027a5.3,5.3,0,0,0-10.6,0,2.7,2.7,0,0,1-5.4,0,10.7,10.7,0,0,1,21.4,0c0,4.465-2.751,6.892-5.147,8.507-2.107,1.416-2.853,2.5-2.853,4.161v1A2.7,2.7,0,0,1,19.95,34.151Z" transform="translate(19.05 12.549)" fill="#f90"/>
      <path id="Path_25668" data-name="Path 25668" d="M14.7,22.65A3.7,3.7,0,0,1,11,18.959a3.694,3.694,0,0,1,3.7-3.709,3.7,3.7,0,1,1,0,7.4Z" transform="translate(24.3 37.05)" fill="#f90"/>
    </g>
  </g>
</svg>
