<svg xmlns="http://www.w3.org/2000/svg" xmlns:xlink="http://www.w3.org/1999/xlink" width="40" height="40" viewBox="0 0 40 40">
	<defs>
		<clipPath id="clip-path">
			<rect id="Rectangle_4799" width="40" height="40" transform="translate(-20906 -11657)" fill="#fff" stroke="#707070" stroke-width="1"/>
		</clipPath>
	</defs>
	<g id="Mask_Group_52" transform="translate(20906 11657)" clip-path="url(#clip-path)">
		<g id="user-checkmark" transform="translate(-20906.25 -11657)">
			<path id="Path_25637" d="M18.36,3H8.76A5.76,5.76,0,0,0,3,8.76v5.76" transform="translate(0.69 0)" fill="none" stroke="#ff9800" stroke-linecap="round" stroke-linejoin="round" stroke-width="3"/>
			<path id="Path_25638" d="M17,28.36h1.92a5.76,5.76,0,0,0,5.76-5.76V13" transform="translate(13.57 9.2)" fill="none" stroke="#ff9800" stroke-linecap="round" stroke-linejoin="round" stroke-width="3"/>
			<circle id="Ellipse_446" cx="7.68" cy="7.68" r="7.68" transform="translate(22.89 3)" fill="#ff9800"/>
			<path id="Path_25639" d="M20.55,6.5l-3,2.88-1.8-1.728" transform="translate(12.42 3.22)" fill="none" stroke="#fff" stroke-linecap="round" stroke-linejoin="round" stroke-width="1.5"/>
			<circle id="Ellipse_447" cx="4.8" cy="4.8" r="4.8" transform="translate(8.49 18.36)" fill="#ff9800" stroke="#ff9800" stroke-linecap="round" stroke-linejoin="round" stroke-width="1"/>
			<path id="Path_25640" d="M22.2,23.3a4.8,4.8,0,0,0-4.8-4.8H7.8A4.8,4.8,0,0,0,3,23.3" transform="translate(0.69 14.26)" fill="#ff9800" fill-rule="evenodd"/>
			<path id="Path_25641" d="M24.33,23.99a6.24,6.24,0,0,0-6.24-6.24v2.88a3.36,3.36,0,0,1,3.36,3.36Zm-6.24-6.24H8.49v2.88h9.6Zm-9.6,0a6.24,6.24,0,0,0-6.24,6.24H5.13a3.36,3.36,0,0,1,3.36-3.36Z" transform="translate(0 13.57)" fill="#ff9800"/>
		</g>
	</g>
</svg>
