<svg xmlns="http://www.w3.org/2000/svg" width="42.844" height="40" viewBox="0 0 42.844 40">
  <g id="Group_14184" data-name="Group 14184" transform="translate(-1385.577 -448)">
    <path id="Path_24547" data-name="Path 24547" d="M27.882,25.2A14.7,14.7,0,0,0,0,31.64,14.486,14.486,0,0,0,1.4,37.9L.025,44.782A1.256,1.256,0,0,0,1.5,46.26l6.969-1.378A14.438,14.438,0,0,0,11.375,45.9,17.173,17.173,0,0,1,27.882,25.2Z" transform="translate(1385.577 431.004)" fill="#f90"/>
    <path id="Path_24548" data-name="Path 24548" d="M189.436,165.9a14.6,14.6,0,0,0,.629-1.549h-.046a14.66,14.66,0,0,0-13.185-19.335h0a14.643,14.643,0,1,0-.7,29.271,14.484,14.484,0,0,0,6.24-1.4c7.632,1.509,7.037,1.4,7.212,1.4a1.256,1.256,0,0,0,1.231-1.5Z" transform="translate(1237.584 313.709)" fill="#f90"/>
  </g>
</svg>
