<svg xmlns="http://www.w3.org/2000/svg" width="40" height="40" viewBox="0 0 40 40">
  <path id="Path_26127" data-name="Path 26127" d="M35,0a5,5,0,0,1,5,5V35a5,5,0,0,1-5,5H5a5,5,0,0,1-5-5V15a5,5,0,0,1,5-5H15V5a5,5,0,0,1,5-5ZM5,26.25A1.252,1.252,0,0,0,6.25,27.5h2.5A1.254,1.254,0,0,0,10,26.25v-2.5A1.254,1.254,0,0,0,8.75,22.5H6.25A1.252,1.252,0,0,0,5,23.75ZM23.75,25A1.254,1.254,0,0,0,25,23.75v-2.5A1.254,1.254,0,0,0,23.75,20h-2.5A1.254,1.254,0,0,0,20,21.25v2.5A1.254,1.254,0,0,0,21.25,25ZM30,23.75A1.254,1.254,0,0,0,31.25,25h2.5A1.254,1.254,0,0,0,35,23.75v-2.5A1.254,1.254,0,0,0,33.75,20h-2.5A1.254,1.254,0,0,0,30,21.25ZM6.25,15A1.252,1.252,0,0,0,5,16.25v2.5A1.252,1.252,0,0,0,6.25,20h2.5A1.254,1.254,0,0,0,10,18.75v-2.5A1.254,1.254,0,0,0,8.75,15ZM20,8.75A1.254,1.254,0,0,0,21.25,10h2.5A1.254,1.254,0,0,0,25,8.75V6.25A1.252,1.252,0,0,0,23.75,5h-2.5A1.252,1.252,0,0,0,20,6.25ZM31.25,5A1.252,1.252,0,0,0,30,6.25v2.5A1.254,1.254,0,0,0,31.25,10h2.5A1.254,1.254,0,0,0,35,8.75V6.25A1.252,1.252,0,0,0,33.75,5ZM20,16.25a1.254,1.254,0,0,0,1.25,1.25h2.5A1.254,1.254,0,0,0,25,16.25v-2.5a1.254,1.254,0,0,0-1.25-1.25h-2.5A1.254,1.254,0,0,0,20,13.75ZM33.75,17.5A1.254,1.254,0,0,0,35,16.25v-2.5a1.254,1.254,0,0,0-1.25-1.25h-2.5A1.254,1.254,0,0,0,30,13.75v2.5a1.254,1.254,0,0,0,1.25,1.25Z" fill="#f90"/>
</svg>
