<svg xmlns="http://www.w3.org/2000/svg" width="60" height="60" viewBox="0 0 60 60">
	<g id="passion_circle" transform="translate(-244 -1695)">
		<circle id="Ellipse_402" cx="30" cy="30" r="30" transform="translate(244 1695)" fill="#fff"/>
		<g id="passion">
			<circle id="Ellipse_403" cx="24" cy="24" r="24" transform="translate(250 1701)" fill="#29abe2"/>
			<g id="Group_12657" transform="translate(250.83 1702.817)">
				<path id="Path_24433" d="M468.113,858.169q.027-.332.027-.671a8.19,8.19,0,0,0-15.424-3.825,8.191,8.191,0,0,0-15.424,3.825q0,.339.027.671c.682,9.321,13.818,14.535,15.325,15.1l0,.052.069-.025.068.025,0-.052C454.294,872.7,467.431,867.489,468.113,858.169Z" transform="translate(-429.121 -837.142)" fill="#fff"/>
				<path id="Path_24434" d="M455.921,854.67c.011-.134.016-.269.016-.405a4.951,4.951,0,0,0-9.323-2.312,4.951,4.951,0,0,0-9.323,2.312c0,.136.006.272.016.405.412,5.634,8.352,8.786,9.263,9.129l0,.032.042-.015.041.015,0-.032C447.568,863.455,455.509,860.3,455.921,854.67Z" transform="translate(-423.02 -832.394)" fill="#f90"/>
			</g>
		</g>
	</g>
</svg>
