<svg xmlns="http://www.w3.org/2000/svg" width="14.359" height="20" viewBox="0 0 14.359 20"><defs><style>.a{fill:#29abe2;}</style></defs><g transform="translate(-103.814 -45.823)"><path class="a" d="M118.08,63.086l-1.353-4.411a2.112,2.112,0,0,0-1.97-1.492,1.365,1.365,0,0,0-.588-1.208c-.187-.129-.761-.5-.761-.5a.751.751,0,0,0-.729-.074,1.02,1.02,0,0,0-.125.055h0l-.019-.093a4.945,4.945,0,0,0,.572-.476l.026-.024a5.641,5.641,0,0,0,.526-.59l.021-.026a5.916,5.916,0,0,0,.463-.7l.007-.012a5.767,5.767,0,0,0,.371-.805,1.258,1.258,0,0,0,.686-.4l.015-.015a1.727,1.727,0,0,0,.237-.345c.012-.023.023-.047.034-.071a1.953,1.953,0,0,0,.151-.424,1.411,1.411,0,0,0-.8-1.765v-.393a3.49,3.49,0,0,0-3.49-3.49h-.7a3.49,3.49,0,0,0-3.49,3.49V49.7a1.407,1.407,0,0,0-.813,1.767,1.94,1.94,0,0,0,.151.424c.011.024.022.048.034.071a1.743,1.743,0,0,0,.237.345l.014.014a1.259,1.259,0,0,0,.686.4,5.745,5.745,0,0,0,.372.807l.005.009a5.83,5.83,0,0,0,.465.706l.018.023a5.7,5.7,0,0,0,.527.592l.025.024a4.987,4.987,0,0,0,.573.476l-.019.093a1,1,0,0,0-.125-.055.81.81,0,0,0-.276-.062.825.825,0,0,0-.452.134s-.571.377-.763.5a1.132,1.132,0,0,0-.588,1.206v0a2.042,2.042,0,0,0-1.225.427,2.207,2.207,0,0,0-.745,1.065l-1.353,4.411a2.117,2.117,0,0,0,2.024,2.737h4.312l-.477-3.11a2.11,2.11,0,0,1,.112-1.069l.432-1.143-.547-.547,1.23-1.23,1.23,1.23-.547.547.432,1.142a2.115,2.115,0,0,1,.112,1.07l-.489,3.11h4.325a2.117,2.117,0,0,0,2.112-2.249A2.1,2.1,0,0,0,118.08,63.086Zm-7.667-5.25-1.96,1.745a.136.136,0,0,1-.224-.082l-.343-2.309a.672.672,0,0,1,.3-.66l.761-.5a.164.164,0,0,1,.216.033l1.271,1.547A.163.163,0,0,1,110.413,57.836Zm3.688-.646-.343,2.309a.135.135,0,0,1-.088.108.133.133,0,0,1-.047.008.135.135,0,0,1-.09-.034l-1.959-1.745a.163.163,0,0,1-.018-.225l1.271-1.547a.164.164,0,0,1,.216-.033l.762.5A.672.672,0,0,1,114.1,57.189Z"/></g></svg>