<svg xmlns="http://www.w3.org/2000/svg" width="40" height="40" viewBox="0 0 40 40">
  <g id="Group_12612" data-name="Group 12612" transform="translate(-376 -508)">
    <rect id="Border_copy" data-name="Border copy" width="40" height="40" rx="3" transform="translate(376 508)" fill="#1da1f2"/>
    <path id="twitter" d="M49.713,36.4a10.074,10.074,0,0,1-2.9.794,5.063,5.063,0,0,0,2.22-2.793,10.108,10.108,0,0,1-3.206,1.225,5.053,5.053,0,0,0-8.6,4.606,14.333,14.333,0,0,1-10.407-5.276,5.055,5.055,0,0,0,1.562,6.741,5.013,5.013,0,0,1-2.287-.632c0,.021,0,.043,0,.064a5.052,5.052,0,0,0,4.05,4.95,5.069,5.069,0,0,1-2.28.087,5.054,5.054,0,0,0,4.717,3.506A10.192,10.192,0,0,1,25.1,51.759a14.359,14.359,0,0,0,22.1-12.1c0-.219,0-.437-.015-.653a10.239,10.239,0,0,0,2.52-2.613Z" transform="translate(358.896 483.971)" fill="#f1f2f2"/>
  </g>
</svg>
