<svg xmlns="http://www.w3.org/2000/svg" width="48" height="48" viewBox="0 0 48 48">
	<g id="Group_12694" transform="translate(-551 -378)">
		<g id="Group_12593" transform="translate(-216 -150)">
			<circle id="Ellipse_403" cx="24" cy="24" r="24" transform="translate(767 528)" fill="#29abe2"/>
		</g>
		<g id="Group_12594" transform="translate(30 55)">
			<g id="login" transform="translate(494.104 337)">
				<path id="Path_17906" d="M109.488,12.032c2.735,0,4.953-2.693,4.953-6.016S113.713,0,109.488,0s-4.953,2.693-4.953,6.016S106.753,12.032,109.488,12.032Z" transform="translate(-58.237)" fill="#fff"/>
				<path id="Path_17907" d="M41.9,300.476c0-.2,0-.057,0,0Z" transform="translate(0 -279.259)" fill="#fff"/>
				<path id="Path_17908" d="M308.085,301.67c0-.055,0-.385,0,0Z" transform="translate(-247.479 -280.295)" fill="#fff"/>
				<path id="Path_17909" d="M60.607,186.221c-.092-5.788-.848-7.437-6.632-8.481a4.064,4.064,0,0,1-5.424,0c-5.721,1.033-6.523,2.657-6.629,8.293-.009.46-.013.484-.014.431,0,.1,0,.285,0,.608,0,0,1.377,2.776,9.354,2.776s9.354-2.776,9.354-2.776c0-.207,0-.352,0-.45A3.71,3.71,0,0,1,60.607,186.221Z" transform="translate(-0.012 -164.247)" fill="#fff"/>
			</g>
			<path id="search" d="M23.513,22.667l-5.887-6.16A10.055,10.055,0,0,0,9.982,0a10.047,10.047,0,0,0,0,20.094A9.84,9.84,0,0,0,15.7,18.277l5.932,6.207a1.3,1.3,0,0,0,1.842.036A1.318,1.318,0,0,0,23.513,22.667ZM9.982,2.622A7.426,7.426,0,1,1,2.6,10.048,7.412,7.412,0,0,1,9.982,2.622Z" transform="matrix(0.966, -0.259, 0.259, 0.966, 532.883, 336.07)" fill="#f90"/>
		</g>
	</g>
</svg>
