<svg xmlns="http://www.w3.org/2000/svg" width="32" height="32" viewBox="0 0 32 32">
	<g id="Group_12602" transform="translate(-461 -325)">
		<g id="Group_12600" transform="translate(461 325)">
			<circle id="Ellipse_403" cx="16" cy="16" r="16" fill="#29abe2"/>
		</g>
		<g id="birthday-cake" transform="translate(468 332)">
			<path id="Path_24485" d="M98.762,283.229c.016-.011.035-.018.052-.03C98.8,283.211,98.778,283.219,98.762,283.229Zm0,0" transform="translate(-95.397 -272.699)" fill="#ffcd00"/>
			<path id="Path_24486" d="M231.055,281.213c.022-.009.046-.014.069-.022C231.1,281.2,231.077,281.2,231.055,281.213Zm0,0" transform="translate(-222.785 -270.766)" fill="#ffcd00"/>
			<path id="Path_24487" d="M235.809,280.215c.026,0,.052-.006.079-.008C235.861,280.21,235.835,280.211,235.809,280.215Zm0,0" transform="translate(-227.363 -269.818)" fill="#ffcd00"/>
			<path id="Path_24488" d="M373.809,280.8l.051.016A.433.433,0,0,0,373.809,280.8Zm0,0" transform="translate(-360.246 -270.39)" fill="#ffcd00"/>
			<path id="Path_24489" d="M354.762,283.229c.016-.011.035-.018.052-.03C354.8,283.211,354.778,283.219,354.762,283.229Zm0,0" transform="translate(-341.905 -272.699)" fill="#ffcd00"/>
			<path id="Path_24490" d="M103.055,281.213c.022-.009.046-.014.069-.022C103.1,281.2,103.077,281.2,103.055,281.213Zm0,0" transform="translate(-99.531 -270.766)" fill="#ffcd00"/>
			<path id="Path_24491" d="M368.991,280.063h-.03a.632.632,0,0,1,.084.008C369.026,280.07,369.01,280.064,368.991,280.063Zm0,0" transform="translate(-355.578 -269.679)" fill="#ffcd00"/>
			<path id="Path_24492" d="M363.809,280.215c.026,0,.052-.006.079-.008C363.861,280.21,363.835,280.211,363.809,280.215Zm0,0" transform="translate(-350.617 -269.818)" fill="#ffcd00"/>
			<path id="Path_24493" d="M359.055,281.213c.022-.009.046-.014.069-.022C359.1,281.2,359.077,281.2,359.055,281.213Zm0,0" transform="translate(-346.039 -270.766)" fill="#ffcd00"/>
			<path id="Path_24494" d="M245.809,280.8l.051.016A.436.436,0,0,0,245.809,280.8Zm0,0" transform="translate(-236.992 -270.39)" fill="#ffcd00"/>
			<path id="Path_24495" d="M107.809,280.215c.025,0,.052-.006.079-.008C107.861,280.21,107.835,280.211,107.809,280.215Zm0,0" transform="translate(-104.108 -269.818)" fill="#ffcd00"/>
			<path id="Path_24496" d="M226.762,283.229c.016-.011.035-.018.052-.03C226.8,283.211,226.778,283.219,226.762,283.229Zm0,0" transform="translate(-218.651 -272.699)" fill="#ffcd00"/>
			<path id="Path_24497" d="M112.991,280.063h-.03a.633.633,0,0,1,.084.008C113.026,280.07,113.01,280.064,112.991,280.063Zm0,0" transform="translate(-109.07 -269.679)" fill="#ffcd00"/>
			<path id="Path_24498" d="M117.809,280.8l.051.016A.434.434,0,0,0,117.809,280.8Zm0,0" transform="translate(-113.738 -270.39)" fill="#ffcd00"/>
			<path id="Path_24499" d="M240.991,280.063h-.03a.633.633,0,0,1,.084.008C241.026,280.07,241.01,280.064,240.991,280.063Zm0,0" transform="translate(-232.324 -269.679)" fill="#ffcd00"/>
			<path id="Path_24500" d="M45.781,283.211a1.49,1.49,0,0,1-.433-1.05v-1.136a.942.942,0,0,0-.623-.895c-.017-.005-.034-.012-.051-.016a.926.926,0,0,0-.1-.017c-.028,0-.056-.007-.084-.008a.881.881,0,0,0-.112,0c-.027,0-.053,0-.079.008a.923.923,0,0,0-.108.03c-.023.008-.046.013-.068.022a.861.861,0,0,0-.107.055.45.45,0,0,0-.052.03.886.886,0,0,0-.4.738v.593a1.483,1.483,0,1,1-2.966,0v-.543a.942.942,0,0,0-.623-.895c-.017-.005-.034-.012-.051-.016a.927.927,0,0,0-.1-.017c-.028,0-.056-.007-.084-.008a.882.882,0,0,0-.112,0c-.026,0-.053,0-.079.008a.922.922,0,0,0-.108.03c-.023.008-.046.013-.069.022a.861.861,0,0,0-.107.055.45.45,0,0,0-.052.03.886.886,0,0,0-.4.738v1.78a1.483,1.483,0,0,1-2.966,0v-1.73a.942.942,0,0,0-.623-.895c-.017-.005-.034-.012-.051-.016a.927.927,0,0,0-.1-.017c-.028,0-.056-.007-.084-.008a.882.882,0,0,0-.112,0c-.027,0-.053,0-.079.008a.923.923,0,0,0-.108.03c-.023.008-.046.013-.069.022a.861.861,0,0,0-.107.055.45.45,0,0,0-.052.03.886.886,0,0,0-.4.738v1.186a1.479,1.479,0,0,1-1.483,1.483,1.513,1.513,0,0,1-.593-.122V287.2H47.424v-3.681a1.513,1.513,0,0,1-.593.122A1.49,1.49,0,0,1,45.781,283.211Zm0,0" transform="translate(-31.11 -269.704)" fill="#fff"/>
			<path id="Path_24501" d="M24.017,232H9.186A1.187,1.187,0,0,0,8,233.186v2.669a1.49,1.49,0,0,0,.433,1.05,1.483,1.483,0,0,0,2.533-1.05V234.67a.885.885,0,0,1,.4-.741c.016-.011.035-.018.052-.03a.882.882,0,0,1,.107-.055c.022-.009.046-.014.069-.022a.926.926,0,0,1,.108-.03c.026,0,.052-.006.079-.008s.05-.005.077-.005.023,0,.035,0a.183.183,0,0,1,.03,0,.427.427,0,0,1,.054.009.935.935,0,0,1,.1.017l.051.016a.885.885,0,0,1,.624.844v1.78a1.483,1.483,0,0,0,2.966,0v-1.78a.885.885,0,0,1,.4-.741c.016-.011.035-.018.052-.03a.882.882,0,0,1,.107-.055c.022-.009.046-.014.069-.022a.926.926,0,0,1,.108-.03c.026,0,.052-.006.079-.008s.05-.005.077-.005.023,0,.035,0a.183.183,0,0,1,.03,0,.427.427,0,0,1,.054.009.935.935,0,0,1,.1.017l.051.016a.885.885,0,0,1,.624.844v.593a1.483,1.483,0,0,0,2.966,0v-.593a.885.885,0,0,1,.4-.741c.016-.011.035-.018.052-.03a.882.882,0,0,1,.107-.055c.022-.009.046-.014.069-.022a.92.92,0,0,1,.108-.03c.026,0,.052-.006.079-.008s.05-.005.077-.005.023,0,.035,0a.183.183,0,0,1,.03,0,.427.427,0,0,1,.054.009.943.943,0,0,1,.1.017l.051.016a.885.885,0,0,1,.624.844v1.186a1.479,1.479,0,0,0,1.483,1.483,1.514,1.514,0,0,0,.593-.122,1.492,1.492,0,0,0,.89-1.361v-2.669A1.187,1.187,0,0,0,24.017,232Zm0,0" transform="translate(-8 -223.398)" fill="#f90"/>
			<g id="Group_12599" transform="translate(3.227 10.381)">
				<path id="Path_24507" d="M351.039,284.128a.894.894,0,0,1,.138-.112A.894.894,0,0,0,351.039,284.128Zm0,0" transform="translate(-341.548 -283.867)" fill="#ffcd00"/>
				<path id="Path_24508" d="M119.822,282.11v-.05a.885.885,0,0,0-.623-.845A.942.942,0,0,1,119.822,282.11Zm0,0" transform="translate(-118.303 -281.17)" fill="#ffcd00"/>
				<path id="Path_24509" d="M243.2,280.32a.933.933,0,0,1,.1.017A.933.933,0,0,0,243.2,280.32Zm0,0" transform="translate(-237.706 -280.308)" fill="#ffcd00"/>
				<path id="Path_24510" d="M247.822,282.11v-.05a.885.885,0,0,0-.623-.845A.942.942,0,0,1,247.822,282.11Zm0,0" transform="translate(-241.558 -281.17)" fill="#ffcd00"/>
				<path id="Path_24511" d="M375.822,282.11v-.05a.885.885,0,0,0-.623-.845A.942.942,0,0,1,375.822,282.11Zm0,0" transform="translate(-364.812 -281.17)" fill="#ffcd00"/>
				<path id="Path_24512" d="M232.9,280.42a.953.953,0,0,1,.108-.03A.953.953,0,0,0,232.9,280.42Zm0,0" transform="translate(-227.791 -280.376)" fill="#ffcd00"/>
				<path id="Path_24513" d="M110.006,280c-.026,0-.051.006-.077.008a.865.865,0,0,1,.112,0C110.03,280,110.018,280,110.006,280Zm0,0" transform="translate(-109.378 -280)" fill="#ffcd00"/>
				<path id="Path_24514" d="M115.2,280.32a.935.935,0,0,1,.1.017A.935.935,0,0,0,115.2,280.32Zm0,0" transform="translate(-114.452 -280.308)" fill="#ffcd00"/>
				<path id="Path_24515" d="M366.006,280c-.026,0-.051.006-.077.008a.865.865,0,0,1,.112,0C366.03,280,366.018,280,366.006,280Zm0,0" transform="translate(-355.886 -280)" fill="#ffcd00"/>
				<path id="Path_24516" d="M100.16,281.832a.861.861,0,0,1,.107-.055A.861.861,0,0,0,100.16,281.832Zm0,0" transform="translate(-99.97 -281.712)" fill="#ffcd00"/>
				<path id="Path_24517" d="M356.16,281.832a.859.859,0,0,1,.107-.055A.859.859,0,0,0,356.16,281.832Zm0,0" transform="translate(-346.479 -281.712)" fill="#ffcd00"/>
				<path id="Path_24518" d="M360.9,280.42a.954.954,0,0,1,.108-.03A.954.954,0,0,0,360.9,280.42Zm0,0" transform="translate(-351.045 -280.376)" fill="#ffcd00"/>
				<path id="Path_24519" d="M95.039,284.128a.893.893,0,0,1,.138-.112A.893.893,0,0,0,95.039,284.128Zm0,0" transform="translate(-95.039 -283.867)" fill="#ffcd00"/>
				<path id="Path_24520" d="M104.9,280.42a.954.954,0,0,1,.108-.03A.954.954,0,0,0,104.9,280.42Zm0,0" transform="translate(-104.536 -280.376)" fill="#ffcd00"/>
				<path id="Path_24521" d="M238.006,280c-.026,0-.051.006-.077.008a.865.865,0,0,1,.112,0C238.03,280,238.018,280,238.006,280Zm0,0" transform="translate(-232.632 -280)" fill="#ffcd00"/>
				<path id="Path_24522" d="M223.039,284.128a.894.894,0,0,1,.138-.112A.894.894,0,0,0,223.039,284.128Zm0,0" transform="translate(-218.293 -283.867)" fill="#ffcd00"/>
				<path id="Path_24523" d="M371.2,280.32a.936.936,0,0,1,.1.017A.936.936,0,0,0,371.2,280.32Zm0,0" transform="translate(-360.96 -280.308)" fill="#ffcd00"/>
				<path id="Path_24524" d="M228.16,281.832a.863.863,0,0,1,.107-.055A.863.863,0,0,0,228.16,281.832Zm0,0" transform="translate(-223.224 -281.712)" fill="#ffcd00"/>
			</g>
			<path id="Path_24525" d="M216,128h1.78v3.856H216Zm0,0" transform="translate(-208.288 -123.254)" fill="#fff"/>
			<path id="Path_24526" d="M208,2.373a1.186,1.186,0,0,0,2.373,0A7.845,7.845,0,0,0,209.186,0,7.845,7.845,0,0,0,208,2.373Zm0,0" transform="translate(-200.585)" fill="#f90"/>
			<path id="Path_24527" d="M352,144h1.78v3.263H352Zm0,0" transform="translate(-339.246 -138.661)" fill="#fff"/>
			<path id="Path_24528" d="M344,18.373a1.186,1.186,0,0,0,2.373,0A7.845,7.845,0,0,0,345.186,16,7.845,7.845,0,0,0,344,18.373Zm0,0" transform="translate(-331.542 -15.407)" fill="#f90"/>
			<path id="Path_24529" d="M80,144h1.78v3.263H80Zm0,0" transform="translate(-77.331 -138.661)" fill="#fff"/>
			<path id="Path_24530" d="M74.373,18.373a1.188,1.188,0,0,1-1.035,1.178h0a1.209,1.209,0,0,1-.148.009A1.186,1.186,0,0,1,72,18.373,7.841,7.841,0,0,1,73.186,16s.059.086.148.222a6.408,6.408,0,0,1,1.038,2.15Zm0,0" transform="translate(-69.627 -15.407)" fill="#f90"/>
		</g>
	</g>
</svg>
