<svg xmlns="http://www.w3.org/2000/svg" width="48" height="48" viewBox="0 0 48 48">
	<g id="Group_12698" transform="translate(-605 -482)">
		<circle id="Ellipse_405" cx="24" cy="24" r="24" transform="translate(605 482)" fill="#29abe2"/>
		<g id="translate" transform="translate(615 492)">
			<path id="Path_24452" d="M169.272,208.867H158.729a3.02,3.02,0,0,0-3.017,3.017v5.729l-2.732,1.951a.82.82,0,0,0,0,1.335l2.765,1.975a3.022,3.022,0,0,0,2.984,2.571h10.544a3.02,3.02,0,0,0,3.017-3.017V211.883a3.02,3.02,0,0,0-3.017-3.017Zm-3.545,11.527c-.193,0-.343-.061-.386-.228L165.007,219h-2.012l-.334,1.169c-.044.167-.193.228-.387.228-.308,0-.721-.193-.721-.474a.507.507,0,0,1,.018-.088l1.7-5.527a.714.714,0,0,1,.729-.387c.334,0,.659.123.738.387l1.7,5.527a.389.389,0,0,1,.018.088C166.448,220.191,166.035,220.393,165.727,220.393Zm0,0" transform="translate(-144.289 -197.444)" fill="#f90"/>
			<path id="Path_24453" d="M346.375,331.076H347.9l-.765-2.7Zm0,0" transform="translate(-327.433 -310.421)" fill="#f90"/>
			<path id="Path_24454" d="M9.782,14.439a4.635,4.635,0,0,1,1.027-2.912,4.4,4.4,0,0,1-2.52-.79,4.4,4.4,0,0,1-2.52.79.463.463,0,0,1,0-.925,3.483,3.483,0,0,0,1.794-.5A4.412,4.412,0,0,1,6.406,7.562H5.768a.463.463,0,1,1,0-.925H7.826V5.513a.462.462,0,1,1,.925,0V6.637h2.058a.463.463,0,1,1,0,.925h-.637a4.412,4.412,0,0,1-1.157,2.544,3.478,3.478,0,0,0,1.794.5.462.462,0,0,1,.461.429,4.64,4.64,0,0,1,3.17-1.249h2.138V7.832l2.732-1.951a.821.821,0,0,0,0-1.335L16.544,2.571A3.022,3.022,0,0,0,13.56,0H3.017A3.02,3.02,0,0,0,0,3.017V13.561a3.02,3.02,0,0,0,3.017,3.017H9.782Zm0,0" transform="translate(0)" fill="#fff"/>
			<path id="Path_24455" d="M135.135,140.243a3.493,3.493,0,0,0,.951-1.966h-1.9A3.5,3.5,0,0,0,135.135,140.243Zm0,0" transform="translate(-126.846 -130.716)" fill="#fff"/>
		</g>
	</g>
</svg>
