<svg xmlns="http://www.w3.org/2000/svg" width="36.476" height="40" viewBox="0 0 36.476 40"><defs><style>.a{fill:#29abe2;}</style></defs><g transform="translate(-837 -1158)"><g transform="translate(837 1158)"><path class="a" d="M145.05,37.349a5.413,5.413,0,0,0,5.407-5.407V27.956a5.407,5.407,0,1,0-10.814,0v3.986A5.413,5.413,0,0,0,145.05,37.349Z" transform="translate(-130.675 -22.549)"/><path class="a" d="M184.473,225.929h1.119l.632-1.845h-2.384Z" transform="translate(-170.658 -204.865)"/><path class="a" d="M63.474,224.151a8.681,8.681,0,0,1,8.681-8.681,8.808,8.808,0,0,1,1.307.1,6.393,6.393,0,0,0-5.514-3.148H65.356a2.363,2.363,0,0,1-2-1.222l-.89.952-.965,2.769,1.563,8.991a.572.572,0,0,1-.129.47l-2.56,2.989a.572.572,0,0,1-.435.2h0a.572.572,0,0,1-.436-.205l-2.5-2.99a.572.572,0,0,1-.123-.477l1.716-8.776-1.122-2.98-.847-.952a2.363,2.363,0,0,1-2.072,1.23H52a6.411,6.411,0,0,0-6.4,6.4v10.389H65.1A8.615,8.615,0,0,1,63.474,224.151Z" transform="translate(-45.6 -193.2)"/><path class="a" d="M177.909,255.433l-1.65,8.44,1.89,2.261,1.944-2.271-1.466-8.43Z" transform="translate(-163.799 -233.224)"/></g><path class="a" d="M14.556,13.632A8.3,8.3,0,0,0,8.243,0a8.3,8.3,0,0,0,0,16.6A7.5,7.5,0,0,0,14.556,13.632ZM8.243,2.165A6.133,6.133,0,1,1,2.146,8.3,6.122,6.122,0,0,1,8.243,2.165Z" transform="translate(856.986 1181.404)"/><path class="a" d="M195.174,201.366l-4.249,4.225-1.379-1.387a.973.973,0,0,0-1.379,1.371l2.069,2.077a.971.971,0,0,0,.69.285h0a.967.967,0,0,0,.682-.285l4.939-4.907a.973.973,0,1,0-1.371-1.379Z" transform="translate(672.491 984.884)"/></g></svg>