<svg xmlns="http://www.w3.org/2000/svg" xmlns:xlink="http://www.w3.org/1999/xlink" width="102" height="102" viewBox="0 0 102 102"><defs><style>.a{fill:#c8e5f2;}.b{clip-path:url(#a);}.c{fill:#e5f2ff;}.d{fill:#aec1ed;}.e{fill:#445ea0;}.f{fill:#293d7c;}.g{fill:#ed1c24;}.h{fill:#ffcb05;}.i{fill:#522e90;}.j{fill:#94d5f0;}.k{fill:#f90;}.l{fill:#fff;}.m{fill:#ff9518;}</style><clipPath id="a"><circle class="a" cx="51" cy="51" r="51" transform="translate(508 2165)"/></clipPath></defs><g transform="translate(-508 -2165)"><circle class="a" cx="51" cy="51" r="51" transform="translate(508 2165)"/><g class="b"><g transform="translate(502.961 2180)"><path class="c" d="M208.318,342.482a6.858,6.858,0,0,1,5.784,3.158.185.185,0,0,0,.142.084h.014a.185.185,0,0,0,.139-.063,10.045,10.045,0,0,1,10.364-2.995l-3.311-8.488H209.733l-3.347,8.58A6.849,6.849,0,0,1,208.318,342.482Z" transform="translate(-159.468 -272.174)"/><g transform="translate(43.068 69.901)"><path class="d" d="M187.852,385.908a.186.186,0,0,0,.184.158l.029,0a12.627,12.627,0,0,1,1.977-.159,12.463,12.463,0,0,1,8.522,3.357.186.186,0,0,0,.253,0,12.463,12.463,0,0,1,8.522-3.357,12.629,12.629,0,0,1,1.977.159l.029,0a.186.186,0,0,0,.184-.158,15.354,15.354,0,0,1,2.515-6.4,10.238,10.238,0,0,0-14.687.688,7.061,7.061,0,0,0-11.722-.235A15.347,15.347,0,0,1,187.852,385.908Z" transform="translate(-185.635 -376.731)"/></g><path class="e" d="M73.782,367.738a15.594,15.594,0,0,0-28.43-6.289,45.663,45.663,0,0,0,17.876,16.991A12.7,12.7,0,0,1,73.782,367.738Z" transform="translate(-28.314 -288.686)"/><path class="e" d="M328.847,354.454a15.6,15.6,0,0,0-15.423,13.284,12.7,12.7,0,0,1,10.554,10.7,45.665,45.665,0,0,0,17.876-16.991A15.577,15.577,0,0,0,328.847,354.454Z" transform="translate(-246.646 -288.686)"/><g transform="translate(34.914 78.89)"><path class="f" d="M171.551,425.177a12.645,12.645,0,0,0-8.649,3.406,12.69,12.69,0,0,0-21.209,7.459,45.509,45.509,0,0,0,42.419,0A12.694,12.694,0,0,0,171.551,425.177Z" transform="translate(-141.693 -425.177)"/></g><g transform="translate(51.197 62.006)"><path class="d" d="M266.214,334.179h-2.805l.358,2.832a1.392,1.392,0,1,0,2.761-.349Z" transform="translate(-257.107 -334.179)"/><path class="d" d="M230.193,334.178,229.457,340a1.392,1.392,0,0,0,1.206,1.555,1.417,1.417,0,0,0,.176.011,1.392,1.392,0,0,0,1.379-1.217l.78-6.171h-2.806Z" transform="translate(-229.446 -334.178)"/></g><path class="g" d="M146.727,175.875q0-2.27.163-4.52c-4.464,2.514-7.54,8.114-7.54,14.6a18.7,18.7,0,0,0,2.462,9.444.821.821,0,0,0,1.019.345,18.061,18.061,0,0,1,6.725-1.329A60.554,60.554,0,0,1,146.727,175.875Z" transform="translate(-104.871 -139.561)"/><g transform="translate(49.019 31.794)"><path class="g" d="M320.307,171.355q.159,2.247.163,4.52a60.55,60.55,0,0,1-2.83,18.539,18.06,18.06,0,0,1,6.725,1.329.821.821,0,0,0,1.019-.345,18.694,18.694,0,0,0,2.462-9.444C327.847,179.469,324.771,173.869,320.307,171.355Z" transform="translate(-299.098 -171.355)"/><path class="g" d="M217.708,307.125V311.4a.93.93,0,0,0,.928.928H230.99a.93.93,0,0,0,.928-.928v-4.278Z" transform="translate(-217.708 -281.933)"/></g><path class="h" d="M203.852,90.318H181.269a62,62,0,0,0,.267,39.874.821.821,0,0,0,.771.54h20.506a.821.821,0,0,0,.771-.54,62,62,0,0,0,.267-39.874Z" transform="translate(-136.437 -73.56)"/><path class="g" d="M227.179,90.318V93.4a.93.93,0,0,0,.928.928h8.84a.93.93,0,0,0,.928-.928V90.318Z" transform="translate(-176.403 -73.56)"/><path class="g" d="M206.154,0a.82.82,0,0,0-.517.183c-4.145,3.356-7.636,8.448-10.1,14.724-.262.668-.507,1.349-.743,2.037H217.51c-.236-.688-.482-1.369-.743-2.037-2.46-6.276-5.951-11.368-10.1-14.724A.819.819,0,0,0,206.154,0Z" transform="translate(-150.03)"/><circle class="i" cx="9.467" cy="9.467" r="9.467" transform="translate(46.657 24.104)"/><circle class="j" cx="6.073" cy="6.073" r="6.073" transform="translate(50.05 27.498)"/><path class="k" d="M87.7,133.862a.526.526,0,0,1-.486-.325,6.339,6.339,0,0,0-4.3-4.3.526.526,0,0,1,0-.972,6.341,6.341,0,0,0,4.3-4.3.526.526,0,0,1,.972,0,6.342,6.342,0,0,0,4.3,4.3.526.526,0,0,1,0,.972,6.339,6.339,0,0,0-4.3,4.3.526.526,0,0,1-.486.325Z" transform="translate(-58.641 -100.698)"/><path class="l" d="M391.747,161.96a.462.462,0,0,1-.427-.286,5.572,5.572,0,0,0-3.78-3.78.462.462,0,0,1,0-.855,5.573,5.573,0,0,0,3.78-3.78.462.462,0,0,1,.855,0,5.573,5.573,0,0,0,3.781,3.78.463.463,0,0,1,0,.855,5.572,5.572,0,0,0-3.78,3.78.462.462,0,0,1-.427.286Z" transform="translate(-306.777 -124.59)"/><path class="m" d="M362.489,50.111a.539.539,0,0,1-.5-.333c-1.061-2.562-1.843-3.344-4.4-4.4a.539.539,0,0,1,0-1c2.562-1.061,3.344-1.843,4.4-4.4a.539.539,0,0,1,1,0c1.061,2.561,1.843,3.344,4.4,4.4a.539.539,0,0,1,0,1c-2.562,1.061-3.344,1.843-4.4,4.4a.539.539,0,0,1-.5.333Z" transform="translate(-282.343 -32.285)"/></g></g></g></svg>