<svg xmlns="http://www.w3.org/2000/svg" width="15.117" height="18" viewBox="0 0 15.117 18"><defs><style>.a{fill:#fff;}</style></defs><g transform="translate(-41)"><circle class="a" cx="2.988" cy="2.988" r="2.988" transform="translate(45.57)"/><path class="a" d="M145.464,181.515a4.035,4.035,0,0,1-4.392,0,6.146,6.146,0,0,0-1.912,1.168l4.108,1.54,4.108-1.54A6.146,6.146,0,0,0,145.464,181.515Z" transform="translate(-94.71 -175.134)"/><path class="a" d="M411.879,310h-.352a.527.527,0,0,0-.527.527v1.406a.527.527,0,0,0,.527.527h.352a1.23,1.23,0,0,0,0-2.461Z" transform="translate(-356.992 -299.102)"/><path class="a" d="M81.227,231.7a.527.527,0,0,0-.227.433v1.174h.176a1.584,1.584,0,0,1,1.582,1.582v1.406a1.584,1.584,0,0,1-1.582,1.582H81v1.111a.527.527,0,0,0,.342.494l5.283,1.981V233.48l-4.912-1.842A.527.527,0,0,0,81.227,231.7Z" transform="translate(-38.594 -223.461)"/><path class="a" d="M274.867,236.293v-1.406a1.584,1.584,0,0,1,1.582-1.582h.176v-1.174a.527.527,0,0,0-.713-.494L271,233.479v7.982l5.283-1.981a.527.527,0,0,0,.342-.494v-1.111h-.176A1.584,1.584,0,0,1,274.867,236.293Z" transform="translate(-221.914 -223.461)"/><path class="a" d="M43.109,311.934v-1.406a.527.527,0,0,0-.527-.527H42.23a1.23,1.23,0,0,0,0,2.461h.352A.527.527,0,0,0,43.109,311.934Z" transform="translate(0 -299.102)"/></g></svg>