<svg xmlns="http://www.w3.org/2000/svg" width="150" height="150" viewBox="0 0 150 150">
  <g id="Group_14336" data-name="Group 14336" transform="translate(-956 -9553)">
    <g id="Group_14319" data-name="Group 14319" transform="translate(475 -864)">
      <g id="Path_26156" data-name="Path 26156" transform="translate(481 10417)" fill="#ef7c7c">
        <path d="M 75 149.5 C 64.94233703613281 149.5 55.18579864501953 147.5303039550781 46.00138092041016 143.6456146240234 C 41.58705902099609 141.7785186767578 37.32941818237305 139.4675445556641 33.3466796875 136.77685546875 C 29.40167999267578 134.1116638183594 25.69194030761719 131.0508575439453 22.3205394744873 127.6794586181641 C 18.94914054870605 124.3080596923828 15.88833999633789 120.5983200073242 13.22313976287842 116.6533203125 C 10.53246021270752 112.6705780029297 8.221480369567871 108.4129409790039 6.354380130767822 103.9986190795898 C 2.46970009803772 94.81420135498047 0.5 85.05766296386719 0.5 75 C 0.5 64.94233703613281 2.46970009803772 55.18579864501953 6.354380130767822 46.00138092041016 C 8.221480369567871 41.58705902099609 10.53246021270752 37.32941818237305 13.22313976287842 33.3466796875 C 15.88833999633789 29.40167999267578 18.94914054870605 25.69194030761719 22.3205394744873 22.3205394744873 C 25.69194030761719 18.94914054870605 29.40167999267578 15.88833999633789 33.3466796875 13.22313976287842 C 37.32941818237305 10.53246021270752 41.58705902099609 8.221480369567871 46.00138092041016 6.354380130767822 C 55.18579864501953 2.46970009803772 64.94233703613281 0.5 75 0.5 C 85.05766296386719 0.5 94.81420135498047 2.46970009803772 103.9986190795898 6.354380130767822 C 108.4129409790039 8.221480369567871 112.6705780029297 10.53246021270752 116.6533203125 13.22313976287842 C 120.5983200073242 15.88833999633789 124.3080596923828 18.94914054870605 127.6794586181641 22.3205394744873 C 131.0508575439453 25.69194030761719 134.1116638183594 29.40167999267578 136.77685546875 33.3466796875 C 139.4675445556641 37.32941818237305 141.7785186767578 41.58705902099609 143.6456146240234 46.00138092041016 C 147.5303039550781 55.18579864501953 149.5 64.94233703613281 149.5 75 C 149.5 85.05766296386719 147.5303039550781 94.81420135498047 143.6456146240234 103.9986190795898 C 141.7785186767578 108.4129409790039 139.4675445556641 112.6705780029297 136.77685546875 116.6533203125 C 134.1116638183594 120.5983200073242 131.0508575439453 124.3080596923828 127.6794586181641 127.6794586181641 C 124.3080596923828 131.0508575439453 120.5983200073242 134.1116638183594 116.6533203125 136.77685546875 C 112.6705780029297 139.4675445556641 108.4129409790039 141.7785186767578 103.9986190795898 143.6456146240234 C 94.81420135498047 147.5303039550781 85.05766296386719 149.5 75 149.5 Z" stroke="none"/>
        <path d="M 75 1 C 65.00962066650391 1 55.31861877441406 2.956405639648438 46.19615936279297 6.81488037109375 C 41.81157684326172 8.669403076171875 37.58255767822266 10.96484375 33.62660217285156 13.63743591308594 C 29.70793914794922 16.28482055664062 26.02300262451172 19.3251953125 22.67410278320312 22.67410278320312 C 19.3251953125 26.02300262451172 16.28482055664062 29.70793914794922 13.63743591308594 33.62660217285156 C 10.96484375 37.58255767822266 8.669403076171875 41.81157684326172 6.81488037109375 46.19615936279297 C 2.956405639648438 55.31861877441406 1 65.00962066650391 1 75 C 1 84.99037933349609 2.956405639648438 94.68138122558594 6.81488037109375 103.803840637207 C 8.669403076171875 108.1884155273438 10.96484375 112.4174346923828 13.63743591308594 116.3733978271484 C 16.28482055664062 120.2920608520508 19.3251953125 123.9769973754883 22.67410278320312 127.3258972167969 C 26.02300262451172 130.6748046875 29.70793914794922 133.7151794433594 33.62660217285156 136.3625640869141 C 37.58255767822266 139.03515625 41.81157684326172 141.3305969238281 46.19615936279297 143.1851196289062 C 55.31861877441406 147.0435943603516 65.00962066650391 149 75 149 C 84.99037933349609 149 94.68138122558594 147.0435943603516 103.803840637207 143.1851196289062 C 108.1884155273438 141.3305969238281 112.4174346923828 139.03515625 116.3733978271484 136.3625640869141 C 120.2920608520508 133.7151794433594 123.9769973754883 130.6748046875 127.3258972167969 127.3258972167969 C 130.6748046875 123.9769973754883 133.7151794433594 120.2920608520508 136.3625640869141 116.3733978271484 C 139.03515625 112.4174346923828 141.3305969238281 108.1884155273438 143.1851196289062 103.803840637207 C 147.0435943603516 94.68138122558594 149 84.99037933349609 149 75 C 149 65.00962066650391 147.0435943603516 55.31861877441406 143.1851196289062 46.19615936279297 C 141.3305969238281 41.81157684326172 139.03515625 37.58255767822266 136.3625640869141 33.62660217285156 C 133.7151794433594 29.70793914794922 130.6748046875 26.02300262451172 127.3258972167969 22.67410278320312 C 123.9769973754883 19.3251953125 120.2920608520508 16.28482055664062 116.3733978271484 13.63743591308594 C 112.4174346923828 10.96484375 108.1884155273438 8.669403076171875 103.803840637207 6.81488037109375 C 94.68138122558594 2.956405639648438 84.99037933349609 1 75 1 M 75 0 C 116.4213562011719 0 150 33.57864379882812 150 75 C 150 116.4213562011719 116.4213562011719 150 75 150 C 33.57864379882812 150 0 116.4213562011719 0 75 C 0 33.57864379882812 33.57864379882812 0 75 0 Z" stroke="none" fill="#707070"/>
      </g>
    </g>
    <g id="Group_14335" data-name="Group 14335">
      <path id="Path_26155" data-name="Path 26155" d="M61.109,68.313a4.581,4.581,0,0,1-6.4.688l-3.8-3.052-.823.825a8.75,8.75,0,0,1-12.256,1.3l-14.5-13.111H16.25V27.547l-2.5-1.987V56.25a3.719,3.719,0,0,1-3.609,3.739L2.5,60V22.5l7.433.023L6.756,19.859,1.25,20A1.249,1.249,0,0,0,0,21.25v40A1.251,1.251,0,0,0,1.25,62.5H10a6.171,6.171,0,0,0,6-5.034h6.367L36.2,69.975A11.151,11.151,0,0,0,43.281,72.5q.586,0,1.179-.059A11.144,11.144,0,0,0,51.2,69.263l1.9,1.645a7.072,7.072,0,0,0,9.944-1.021l2.542-3.13L63.626,65.2ZM44.141,12.5a1.25,1.25,0,0,0,0-2.5,35.366,35.366,0,0,0-11.4,1.909l2.35,1.869A33.015,33.015,0,0,1,44.141,12.5ZM2.03.27A1.244,1.244,0,0,0,1.254,0,1.25,1.25,0,0,0,.472,2.228l97.359,77.5a2.334,2.334,0,0,0,.778.272,1.25,1.25,0,0,0,.779-2.229ZM98.75,20,80.516,20A35.2,35.2,0,0,0,55.844,10H54.5a6.283,6.283,0,0,0-4.211,1.636l-8.312,7.613,1.991,1.581,8-7.339a3.8,3.8,0,0,1,2.549-.99h1.345a32.707,32.707,0,0,1,23.266,9.63l.366.366H83.75V52.449l2.5,1.987V22.531L97.5,22.5V60H93.242l3.145,2.5H98.75A1.251,1.251,0,0,0,100,61.25v-40A1.254,1.254,0,0,0,98.75,20ZM57.656,23.547a1.253,1.253,0,0,0-1.766-.078L51.883,27.13,53.861,28.7l3.714-3.387A1.244,1.244,0,0,0,57.656,23.547Z" transform="translate(981 9588)" fill="#fff"/>
    </g>
  </g>
</svg>
