<svg xmlns="http://www.w3.org/2000/svg" width="60" height="60" viewBox="0 0 60 60">
  <g id="resource_circle" data-name="resource circle" transform="translate(-989 -5974)">
    <circle id="Ellipse_402" data-name="Ellipse 402" cx="30" cy="30" r="30" transform="translate(989 5974)" fill="#fff"/>
    <g id="resource">
      <path id="Path_24611" data-name="Path 24611" d="M742.975,2326.23c-.035-.691-.1-1.375-.192-2.049-.01-.072-.02-.146-.03-.219-.041-.285-.086-.568-.137-.85-.014-.076-.029-.152-.043-.227-.106-.553-.229-1.1-.373-1.643-.014-.053-.025-.109-.04-.164-.052-.191-.11-.379-.167-.568s-.114-.381-.176-.568c-.054-.164-.109-.326-.165-.486-.08-.229-.164-.455-.25-.678-.049-.125-.1-.254-.147-.381-.143-.352-.291-.7-.45-1.043a24.012,24.012,0,0,0-43.6,0c-.159.344-.308.691-.449,1.043-.052.127-.1.256-.149.385q-.129.334-.248.674-.086.246-.167.492c-.061.184-.116.371-.173.557s-.117.389-.171.586c-.014.049-.024.1-.039.152-.147.557-.272,1.119-.381,1.689-.012.063-.023.121-.034.182-.054.291-.1.58-.14.873-.01.068-.019.133-.027.2-.041.3-.078.615-.107.922h0c-.036.375-.066.75-.084,1.131s-.032.779-.032,1.176a24,24,0,1,0,48,0C743.006,2327.018,742.995,2326.623,742.975,2326.23Z" transform="translate(299.996 3676.588)" fill="#29abe2"/>
      <g id="file" transform="translate(920.1 5989)">
        <path id="Union_4" data-name="Union 4" d="M1744.784,3541h-10.015a1.87,1.87,0,0,1-1.869-1.868V3519.56h.651c.053,0,.109.007.162.007h5.119a2.634,2.634,0,0,0,2.632-2.632v-5.119a1.779,1.779,0,0,0-.011-.2V3511H1754.8a1.87,1.87,0,0,1,1.869,1.869v26.262A1.87,1.87,0,0,1,1754.8,3541Z" transform="translate(-1646 -3511)" fill="#fff"/>
        <path id="Path_24789" data-name="Path 24789" d="M88.336,8.279h5.133a1.568,1.568,0,0,0,1.554-1.554V1.588A.786.786,0,0,0,94.232.8a.766.766,0,0,0-.551.233l-5.9,5.9A.787.787,0,0,0,88.336,8.279Z" transform="translate(-0.623 -0.772)" fill="#fff"/>
        <path id="Path_24790" data-name="Path 24790" d="M19.89-6.76a7.466,7.466,0,0,0-2.47-5.46c-1.3-1.17-3.25-2.262-6.76-2.262A9.45,9.45,0,0,0,.91-5.07a9.027,9.027,0,0,0,9.36,9.308A13.271,13.271,0,0,0,17.16,2.73l-.78-1.69a12.793,12.793,0,0,1-5.59,1.17c-4.55,0-7.41-2.86-7.41-7.28a7.1,7.1,0,0,1,7.41-7.41c4.29,0,6.76,2.34,6.76,5.98,0,2.86-1.43,4.238-2.34,4.238S14.4-3.12,14.56-3.9l1.17-5.72h-2.6l-.1.52a3.745,3.745,0,0,0-2.756-.91c-3.12,0-5.07,2.6-5.07,5.72S7.15,0,8.97,0a3.752,3.752,0,0,0,2.86-1.482C12.09-.52,13,0,14.3,0a5.606,5.606,0,0,0,3.77-1.612A7.246,7.246,0,0,0,19.89-6.76Zm-7.8,2.21c-.234,1.118-.78,2.158-2.21,2.158S8.06-3.51,8.06-4.55a3.834,3.834,0,0,1,.78-2.392A2.282,2.282,0,0,1,10.79-7.8a2.714,2.714,0,0,1,1.82.65Z" transform="translate(88.9 23)" fill="#f90"/>
      </g>
    </g>
  </g>
</svg>
