<svg xmlns="http://www.w3.org/2000/svg" width="40" height="31.109" viewBox="0 0 40 31.109">
  <path id="Path_25761" data-name="Path 25761" d="M10.02,32a21.182,21.182,0,0,0-8.729,2.031A2.207,2.207,0,0,0,0,36.059V60.891a1.107,1.107,0,0,0,1.559,1.017,15.315,15.315,0,0,1,15.541.973,1.1,1.1,0,0,0,.677.229A1.118,1.118,0,0,0,18.888,62V35.337a1.112,1.112,0,0,0-.471-.908A16,16,0,0,0,10.02,32Zm28.686,2.031A21.752,21.752,0,0,0,29.978,32a16.254,16.254,0,0,0-8.4,2.425,1.106,1.106,0,0,0-.472.909v26.6a1.134,1.134,0,0,0,1.111,1.171,1.108,1.108,0,0,0,.679-.231,15.3,15.3,0,0,1,15.541-.972A1.107,1.107,0,0,0,40,60.89V36.058A2.325,2.325,0,0,0,38.706,34.035Z" transform="translate(0 -32.001)" fill="#f90"/>
</svg>
