<svg xmlns="http://www.w3.org/2000/svg" xmlns:xlink="http://www.w3.org/1999/xlink" width="72.4" height="72.4" viewBox="0 0 72.4 72.4"><defs><style>.a{fill:#fff;}.b{clip-path:url(#a);}.c{fill:#ffcb05;}.d{fill:#ed1c24;}.e{fill:#f90;}.f{fill:#f0f4f6;}.g{fill:#c6eaf9;}</style><clipPath id="a"><circle class="a" cx="36.2" cy="36.2" r="36.2" transform="translate(924 275)"/></clipPath></defs><g class="b" transform="translate(-924 -275)"><g transform="translate(496.6 -208.072)"><path class="c" d="M427.575,539.988c-.109,1.145-.175,2.3-.175,3.477a36.2,36.2,0,1,0,72.4,0c0-1.185-.067-2.354-.178-3.51C475.552,539.972,451.674,540.675,427.575,539.988Z" transform="translate(0 -24.19)"/><path class="d" d="M463.732,483.072A36.132,36.132,0,0,0,427.7,515.8c24.1.687,47.977-.016,72.051-.033a36.133,36.133,0,0,0-36.024-32.693Z" transform="translate(-0.13)"/><path class="e" d="M499.8,534.835a36.183,36.183,0,0,1-2.535,13.334H429.935a36.325,36.325,0,0,1,.787-28.507h65.761A36.056,36.056,0,0,1,499.8,534.835Z" transform="translate(0 -15.56)"/><g transform="translate(438.246 496.172)"><rect class="f" width="42.002" height="53.724" transform="translate(0 18.964) rotate(-26.841)"/><rect class="g" width="30.769" height="4.884" rx="1.597" transform="translate(10.527 27.869) rotate(-26.841)"/><rect class="g" width="30.769" height="4.884" rx="1.597" transform="translate(15.187 37.078) rotate(-26.841)"/><rect class="g" width="30.769" height="4.884" rx="1.597" transform="translate(19.718 46.033) rotate(-26.841)"/></g></g></g></svg>