<svg xmlns="http://www.w3.org/2000/svg" width="150" height="150" viewBox="0 0 150 150">
  <g id="Group_14332" data-name="Group 14332" transform="translate(-1356 -10417)">
    <g id="Group_14317" data-name="Group 14317" transform="translate(525)">
      <g id="Ellipse_496" data-name="Ellipse 496" transform="translate(831 10417)" fill="#0cf" stroke="#707070" stroke-width="1">
        <circle cx="75" cy="75" r="75" stroke="none"/>
        <circle cx="75" cy="75" r="74.5" fill="none"/>
      </g>
    </g>
    <path id="Path_26153" data-name="Path 26153" d="M25,12.5H62.5V1.563a1.563,1.563,0,0,1,3.125,0V12.5H75A12.505,12.505,0,0,1,87.5,25V87.5A12.512,12.512,0,0,1,75,100H12.5A12.505,12.505,0,0,1,0,87.5V25A12.5,12.5,0,0,1,12.5,12.5h9.375V1.563a1.563,1.563,0,0,1,3.125,0ZM84.375,56.25V37.5h-25V56.25ZM56.25,37.5h-25V56.25h25Zm-28.125,0h-25V56.25h25Zm-25,21.875v18.75h25V59.375Zm0,21.875V87.5A9.376,9.376,0,0,0,12.5,96.875H28.125V81.25ZM31.25,96.875h25V81.25h-25Zm28.125,0H75A9.377,9.377,0,0,0,84.375,87.5V81.25h-25Zm25-18.75V59.375h-25v18.75ZM12.5,15.625A9.376,9.376,0,0,0,3.125,25v9.375h81.25V25A9.377,9.377,0,0,0,75,15.625H65.625v7.813a1.563,1.563,0,0,1-3.125,0V15.625H25v7.813a1.563,1.563,0,0,1-3.125,0V15.625Zm43.75,43.75h-25v18.75h25Z" transform="translate(1388.5 10442)" fill="#fff"/>
  </g>
</svg>
