<svg xmlns="http://www.w3.org/2000/svg" xmlns:xlink="http://www.w3.org/1999/xlink" width="32" height="32" viewBox="0 0 32 32">
  <defs>
    <clipPath id="clip-path">
      <rect id="Rectangle_4783" data-name="Rectangle 4783" width="32" height="32" transform="translate(16 1032)" fill="#fff" stroke="#707070" stroke-width="1"/>
    </clipPath>
  </defs>
  <g id="Mask_Group_38" data-name="Mask Group 38" transform="translate(-16 -1032)" clip-path="url(#clip-path)">
    <g id="business-job-search-symbol" transform="translate(16 1031.513)">
      <g id="Group_13717" data-name="Group 13717" transform="translate(0 0.487)">
        <path id="Path_25637" data-name="Path 25637" d="M28.64,25.536a2.5,2.5,0,0,0-1.918-.731l-1.851-1.851A13.912,13.912,0,1,0,0,14.391,13.914,13.914,0,0,0,19.321,27.206,13.746,13.746,0,0,0,22.5,25.324l1.848,1.848a2.51,2.51,0,0,0,.731,1.918l2.626,2.626a2.515,2.515,0,1,0,3.555-3.558Zm-6.164-4.98a10.937,10.937,0,0,1-1.107,1.3,10.592,10.592,0,0,1-1.261,1.077,10.555,10.555,0,0,1-13.666-16,10.554,10.554,0,0,1,18.016,7.462A10.438,10.438,0,0,1,22.476,20.555Z" transform="translate(0 -0.487)" fill="#29abe2"/>
        <g id="Group_13716" data-name="Group 13716" transform="translate(5.262 4.803)">
          <path id="Path_25638" data-name="Path 25638" d="M302.884,145.365h1.928a1.246,1.246,0,0,1,1.2,1.093H307.7a2.934,2.934,0,0,0-2.884-2.77h-1.928a2.934,2.934,0,0,0-2.884,2.77h1.687A1.24,1.24,0,0,1,302.884,145.365Z" transform="translate(-295.201 -143.688)" fill="#29abe2"/>
          <path id="Path_25639" data-name="Path 25639" d="M182.153,251.288H171.706a2.43,2.43,0,0,0-1.4.791.723.723,0,0,0-.215.577,4.584,4.584,0,0,0,2.284,3.23,10.228,10.228,0,0,0,4.367,1.506,13.019,13.019,0,0,0,1.546.094,12.483,12.483,0,0,0,2.8-.312,9.654,9.654,0,0,0,3.116-1.288,4.6,4.6,0,0,0,2.284-3.23.8.8,0,0,0-.215-.577,2.43,2.43,0,0,0-1.4-.791Z" transform="translate(-169.65 -247.679)" fill="#29abe2"/>
          <path id="Path_25640" data-name="Path 25640" d="M172.2,372.471a10.464,10.464,0,0,1-2.757,1.261,13.529,13.529,0,0,1-3.9.557c-.1,0-.2,0-.3,0a12.115,12.115,0,0,1-6.359-1.814,7.451,7.451,0,0,1-1.794-1.62c-.114-.148-.2-.121-.2.064v4.675a2.1,2.1,0,0,0,2.052,2.146h13.18a1.958,1.958,0,0,0,1.02-.285,2.159,2.159,0,0,0,1.033-1.861v-4.672c0-.184-.084-.211-.2-.064A7.349,7.349,0,0,1,172.2,372.471Z" transform="translate(-156.9 -363.141)" fill="#29abe2"/>
        </g>
      </g>
    </g>
  </g>
</svg>
