<svg xmlns="http://www.w3.org/2000/svg" width="150" height="150" viewBox="0 0 150 150">
  <g id="Group_14339" data-name="Group 14339" transform="translate(-656 -10417)">
    <g id="Ellipse_495" data-name="Ellipse 495" transform="translate(656 10417)" fill="#8cc63f" stroke="#707070" stroke-width="1">
      <circle cx="75" cy="75" r="75" stroke="none"/>
      <circle cx="75" cy="75" r="74.5" fill="none"/>
    </g>
    <g id="Group_14309" data-name="Group 14309" transform="translate(-866 211)">
      <path id="Path_26147" data-name="Path 26147" d="M81.244,77.136H58.032a1.29,1.29,0,1,0,0,2.579H81.244a1.29,1.29,0,1,0,0-2.579ZM28.371,68.109A10.317,10.317,0,1,0,18.054,57.792,10.316,10.316,0,0,0,28.371,68.109Zm0-18.054a7.738,7.738,0,1,1-7.738,7.738A7.74,7.74,0,0,1,28.371,50.054ZM82.534,32H10.317A10.316,10.316,0,0,0,0,42.317V93.9a10.316,10.316,0,0,0,10.317,10.317H82.534A10.316,10.316,0,0,0,92.85,93.9V42.317A10.321,10.321,0,0,0,82.534,32Zm7.738,61.9a7.737,7.737,0,0,1-7.738,7.738H10.317A7.737,7.737,0,0,1,2.579,93.9V42.317a7.737,7.737,0,0,1,7.738-7.738H82.534a7.737,7.737,0,0,1,7.738,7.738ZM81.244,66.819H58.032a1.29,1.29,0,1,0,0,2.579H81.244a1.29,1.29,0,1,0,0-2.579Zm0-10.317H58.032a1.29,1.29,0,0,0,0,2.579H81.244a1.29,1.29,0,0,0,0-2.579ZM33.529,73.267H23.213a12.912,12.912,0,0,0-12.9,12.9v1.29a1.29,1.29,0,0,0,2.579,0v-1.29A10.326,10.326,0,0,1,23.213,75.846H33.529A10.326,10.326,0,0,1,43.846,86.163v1.29a1.29,1.29,0,0,0,2.579,0v-1.29A12.913,12.913,0,0,0,33.529,73.267Z" transform="translate(1552 10213)" fill="#fff"/>
      <g id="Group_14308" data-name="Group 14308" transform="translate(1612 10284.439)">
        <g id="Ellipse_498" data-name="Ellipse 498" fill="#8cc63f" stroke="#fff" stroke-width="1">
          <circle cx="20" cy="20" r="20" stroke="none"/>
          <circle cx="20" cy="20" r="19.5" fill="none"/>
        </g>
        <path id="Path_26149" data-name="Path 26149" d="M24.691,6.223l-6.549-6a.889.889,0,0,0-1.476.718V4.161c-6.2.071-11.111,1.306-11.111,7.144A7.828,7.828,0,0,0,8.77,17.216.686.686,0,0,0,9.853,16.5c-1.75-5.561,1.258-6.785,6.813-6.824V12.9a.889.889,0,0,0,1.476.717l6.549-6A.94.94,0,0,0,24.691,6.223ZM18.055,16.661a1.389,1.389,0,0,0-1.389,1.389V19.4H2.778V5.55H4.166a1.389,1.389,0,0,0,0-2.778H2.778A2.777,2.777,0,0,0,0,5.55V19.4a2.778,2.778,0,0,0,2.778,2.778H16.666A2.778,2.778,0,0,0,19.444,19.4V18.05A1.387,1.387,0,0,0,18.055,16.661Z" transform="translate(10.5 8.914)" fill="#fff"/>
      </g>
    </g>
  </g>
</svg>
