<svg xmlns="http://www.w3.org/2000/svg" width="330" height="111" viewBox="0 0 330 111"><defs><style>.a{fill:#f90;}.b,.c,.d{fill:#fff;}.b{font-size:36px;font-family:canada-type-gibson, sans-serif;}.c{fill-rule:evenodd;}</style></defs><g transform="translate(-727 -1311)"><rect class="a" width="304" height="70" rx="35" transform="translate(753 1334)"/><text class="b" transform="translate(868 1380)"><tspan x="0" y="0">Sign Up</tspan></text><path class="c" d="M11.158,0a1.562,1.562,0,0,0-1.1.455L.458,10a1.548,1.548,0,0,0,0,2.2,1.569,1.569,0,0,0,2.21,0l8.49-8.443,8.49,8.443a1.569,1.569,0,0,0,2.21,0,1.548,1.548,0,0,0,0-2.2L12.262.454A1.563,1.563,0,0,0,11.158,0Z" transform="translate(1031.685 1358) rotate(90)"/><path class="a" d="M2.572-11.321l33.6,3.92L24.275,22l11.9,3.923,1.12,8.4L4.673,33.2Z" transform="translate(763 1360)"/><circle class="d" cx="55.5" cy="55.5" r="55.5" transform="translate(727 1311)"/><circle class="a" cx="47.5" cy="47.5" r="47.5" transform="translate(735 1319)"/><path class="d" d="M289.237,322.808l-1.528,4.588a.879.879,0,0,0,1.112,1.112l4.586-1.531Z" transform="translate(507.048 1052.021)"/><path class="d" d="M330.395,199.307,318.82,210.884l4.99,4.993c2.617-2.617,7.71-7.709,11.577-11.578Z" transform="translate(479.542 1161.049)"/><g transform="translate(812.424 1354.338)"><path class="d" d="M446.363,148.926a3.672,3.672,0,0,0-4.989,0l-2.555,2.555,4.992,4.991c1.4-1.4,2.364-2.365,2.555-2.555A3.536,3.536,0,0,0,446.363,148.926Z" transform="translate(-438.819 -147.949)"/></g><g transform="translate(761 1337)"><g transform="translate(35.065)"><path class="d" d="M309.8,10.245a5.239,5.239,0,0,0-1.545-3.728l-4.972-4.971A5.387,5.387,0,0,0,299.525,0h-.3V10.547H309.8v-.3Z" transform="translate(-299.222 0)"/></g><path class="d" d="M32.1,36.274a7.056,7.056,0,0,1,1.689-2.743l11.9-11.854V14.063H33.341a1.709,1.709,0,0,1-1.7-1.758V0H5.273A5.279,5.279,0,0,0,0,5.273V54.727A5.279,5.279,0,0,0,5.273,60h35.1a5.32,5.32,0,0,0,5.32-5.273V41.607l-1.932,1.885a6.99,6.99,0,0,1-2.733,1.686l-5.589,1.866-.851.046a4.395,4.395,0,0,1-4.164-5.79ZM8.789,31.641H26.31a1.758,1.758,0,1,1,0,3.516H8.789a1.758,1.758,0,0,1,0-3.516ZM7.031,26.367a1.757,1.757,0,0,1,1.758-1.758H26.31a1.758,1.758,0,0,1,0,3.516H8.789A1.757,1.757,0,0,1,7.031,26.367Zm0,14.063a1.757,1.757,0,0,1,1.758-1.758H26.31a1.758,1.758,0,1,1,0,3.516H8.789A1.757,1.757,0,0,1,7.031,40.43Zm26.31,8.789a1.758,1.758,0,0,1,0,3.516H22.794a1.758,1.758,0,0,1,0-3.516ZM8.789,21.094a1.758,1.758,0,0,1,0-3.516H33.341a1.758,1.758,0,0,1,0,3.516Z"/><g transform="translate(58.971 23.274)"><path class="d" d="M503.215,198.818h0l.009-.01Z" transform="translate(-503.215 -198.784)"/><path class="d" d="M503.3,198.691c.006-.006.015-.013.015-.016Z" transform="translate(-503.292 -198.667)"/><path class="d" d="M503.436,198.61Z" transform="translate(-503.41 -198.601)"/></g></g></g></svg>