<svg xmlns="http://www.w3.org/2000/svg" width="29.955" height="40" viewBox="0 0 29.955 40"><defs><style>.a{fill:#29abe2;}</style></defs><g transform="translate(0)"><path class="a" d="M28.878,242.01a3.683,3.683,0,0,0-5.208,0l-2.662,2.662a6.031,6.031,0,0,0-12.062,0L6.285,242.01a3.682,3.682,0,0,0-5.208,5.208l7.708,7.708v3.929a1.172,1.172,0,0,0,1.172,1.172H20a1.172,1.172,0,0,0,1.172-1.172v-3.929l7.708-7.708A3.687,3.687,0,0,0,28.878,242.01Zm-13.9-.994A3.688,3.688,0,1,1,11.29,244.7,3.692,3.692,0,0,1,14.978,241.016Zm12.243,4.544-8.051,8.051a1.173,1.173,0,0,0-.343.829v3.242h-7.7V254.44a1.172,1.172,0,0,0-.343-.829L2.734,245.56a1.339,1.339,0,0,1,1.893-1.893l6.725,6.725a1.172,1.172,0,0,0,.829.343h5.594a1.172,1.172,0,0,0,.829-.343l6.725-6.725a1.339,1.339,0,0,1,1.893,1.893Zm0,0" transform="translate(0 -220.026)"/><path class="a" d="M80.128,11.1,79.306,15.9a1.172,1.172,0,0,0,1.7,1.235l4.3-2.262,4.3,2.262a1.167,1.167,0,0,0,.545.135h0A1.173,1.173,0,0,0,91.3,15.832L90.491,11.1l3.481-3.394a1.172,1.172,0,0,0-.649-2l-4.811-.7L86.36.653a1.172,1.172,0,0,0-2.1,0l-2.151,4.36-4.811.7a1.172,1.172,0,0,0-.946.8C76.212,6.934,76.327,7.4,80.128,11.1Z" transform="translate(-70.331)"/></g></svg>