<svg xmlns="http://www.w3.org/2000/svg" width="34.775" height="38.5" viewBox="0 0 34.775 38.5"><defs><style>.a{fill:#29abe2;}</style></defs><g transform="translate(-837 -1158)"><g transform="translate(791.4 1135.451)"><path class="a" d="M144.379,35.512a4.741,4.741,0,0,0,4.736-4.736V27.285a4.736,4.736,0,1,0-9.472,0v3.491A4.741,4.741,0,0,0,144.379,35.512Z" transform="translate(-86.188)"/><path class="a" d="M184.395,225.7h.981l.554-1.616h-2.088Z" transform="translate(-126.694 -184.702)"/><path class="a" d="M61.255,222.542a7.6,7.6,0,0,1,7.6-7.6,7.714,7.714,0,0,1,1.145.085,5.6,5.6,0,0,0-4.83-2.757H62.9a2.07,2.07,0,0,1-1.749-1.07l-.779.834-.845,2.426L60.9,222.33a.5.5,0,0,1-.113.412l-2.242,2.618a.5.5,0,0,1-.381.175h0a.5.5,0,0,1-.381-.18l-2.188-2.618a.5.5,0,0,1-.107-.418l1.5-7.686L56,212.024l-.742-.834a2.069,2.069,0,0,1-1.815,1.077H51.209a5.615,5.615,0,0,0-5.609,5.608v9.1H62.681A7.546,7.546,0,0,1,61.255,222.542Z" transform="translate(0 -172.885)"/><path class="a" d="M177.7,255.433l-1.445,7.392,1.655,1.981,1.7-1.989-1.284-7.384Z" transform="translate(-119.746 -213.432)"/></g><path class="a" d="M17.007,16.4,12.748,11.94A7.273,7.273,0,0,0,7.219,0a7.268,7.268,0,0,0,0,14.535,7.117,7.117,0,0,0,4.139-1.315l4.291,4.489a.938.938,0,0,0,1.332.026A.953.953,0,0,0,17.007,16.4ZM7.219,1.9a5.372,5.372,0,1,1-5.34,5.372A5.362,5.362,0,0,1,7.219,1.9Z" transform="translate(854.506 1178.499)"/><path class="a" d="M194.269,201.331l-3.722,3.7-1.208-1.215a.852.852,0,0,0-1.208,1.2l1.812,1.819a.851.851,0,0,0,.6.25h0a.847.847,0,0,0,.6-.25l4.326-4.3a.852.852,0,1,0-1.2-1.208Z" transform="translate(669.589 981.412)"/></g></svg>