<svg xmlns="http://www.w3.org/2000/svg" width="33.629" height="36" viewBox="0 0 33.629 36"><defs><style>.a{fill:#29abe2;}</style></defs><path class="a" d="M239.616,342.031l.387.806a11.644,11.644,0,0,1,.409,4.9,9.659,9.659,0,0,1-4.791,7.01l-.591.306-.036.034c-.146,0-.284.019-.347.18l-.023.013a4.267,4.267,0,0,0-1.741.572.937.937,0,0,0-.7.375v3.29h4.287v2.7h-4.3v4.132l-2.224.1c-.415.027-.515-.209-.5-.571.022-.4.019-.794.027-1.19V362.28h-4.252a15.9,15.9,0,0,1-.11-2.7h4.371c0-1.138,0-2.147,0-3.155,0-.3-.17-.377-.421-.385-.43-.7-1.234-.393-1.845-.676a10.146,10.146,0,0,1-5.562-5.988c-.2-.561-.3-1.157-.452-1.737a9.871,9.871,0,0,1,1.255-6.215c.223-.366.192-.648-.187-.87a.674.674,0,0,0-.818-.348l-2.169,2.287c-.8-.358-1.218-1.149-1.884-1.656-.139-.218-.015-.386.109-.554a2.585,2.585,0,0,0,.857-.942,5.458,5.458,0,0,0,1.235-1.164l-2.759-2.785v3.8c-.127.24.05.583-.367.832h-2.049c-.461-.065-.34-.46-.42-.741v-8.824h9.7v2.606h-4.589l2.81,2.909,2.187-2.53,1.988,2.127c-.566.809-1.629,1.423-2.274,2.477a1.856,1.856,0,0,0,.68.78q6.261-4.558,12.573-.048l5.5-5.644h-4.553c-.237-.913.068-1.755-.305-2.655h9.908v8.7q-.005.415-.011.828l.017-.012-2.419.032c-.42-.093-.3-.5-.448-.76V335.3c-1.6,1.3-2.76,2.638-4.023,3.867l-1.832,1.747Zm-15.344,5.876c1.017,3.377,2.97,5.119,5.953,5.31a6.9,6.9,0,0,0,7.43-5.541,7.936,7.936,0,0,0-.1-3.284,6.77,6.77,0,0,0-4.388-4.574c-.038-.049-.067-.126-.116-.143a6.5,6.5,0,0,0-7.015,1.592,6.856,6.856,0,0,0-2.049,6.474C224.012,347.893,224.134,347.926,224.273,347.907Z" transform="translate(-214.018 -330.456)"/></svg>