<svg xmlns="http://www.w3.org/2000/svg" width="25" height="21.875" viewBox="0 0 25 21.875">
  <path id="Path_25764" d="M6.25,52.269V41.331a1.526,1.526,0,0,0-1.562-1.519H1.563A1.554,1.554,0,0,0,0,41.331V52.225a1.526,1.526,0,0,0,1.563,1.519H4.688A1.417,1.417,0,0,0,6.25,52.269ZM25,41.38a2.343,2.343,0,0,0-2.344-2.343H15.5a11.919,11.919,0,0,0,1.686-4.688A2.362,2.362,0,0,0,14.771,32c-3.083,0-1.287,3.718-5.283,6.914l-.8.635a2.353,2.353,0,0,0-.874,1.826h0l0,7.813a2.343,2.343,0,0,0,.938,1.875l1.667,1.25A7.791,7.791,0,0,0,15.1,53.875h2.866a2.329,2.329,0,0,0,2.283-2.858,2.319,2.319,0,0,0,1.275-3.435,2.328,2.328,0,0,0,1.29-3.874A2.337,2.337,0,0,0,25,41.38Z" transform="translate(0 -32)" fill="#4a258b"/>
</svg>
