<svg xmlns="http://www.w3.org/2000/svg" width="25" height="21.875" viewBox="0 0 25 21.875">
  <path id="Path_25763" d="M4.688,32H1.563A1.554,1.554,0,0,0,0,33.521V44.414a1.526,1.526,0,0,0,1.563,1.519H4.688A1.554,1.554,0,0,0,6.25,44.414V33.564A1.561,1.561,0,0,0,4.688,32Zm18.13,10.164a2.331,2.331,0,0,0-1.291-3.876,2.357,2.357,0,0,0-1.275-3.474,1.76,1.76,0,0,0,.061-.473A2.343,2.343,0,0,0,17.969,32H15.1a7.811,7.811,0,0,0-4.686,1.562L8.75,34.811a2.325,2.325,0,0,0-.937,1.833l.005,7.813h0a2.342,2.342,0,0,0,.875,1.824l.8.636c4,3.243,2.2,6.958,5.282,6.958a2.36,2.36,0,0,0,2.416-2.349A11.922,11.922,0,0,0,15.5,46.837h7.156a2.338,2.338,0,0,0,.161-4.671Z" transform="translate(0 -32)"/>
</svg>
