<svg xmlns="http://www.w3.org/2000/svg" width="15.003" height="24" viewBox="0 0 15.003 24"><defs><style>.a{fill:#fff;}</style></defs><path class="a" d="M107.821,20.088a3.451,3.451,0,0,1-1.806-.471,2.191,2.191,0,0,1-.92-1.037,10.737,10.737,0,0,1-.129-2.592v-5.5h6V6h-6V0H101.1a9.145,9.145,0,0,1-.849,3.051,6.645,6.645,0,0,1-1.605,2.067,8.451,8.451,0,0,1-2.676,1.318v3.4h3.221v8.41a6.931,6.931,0,0,0,.348,2.518,4.159,4.159,0,0,0,1.237,1.634,6.2,6.2,0,0,0,2.165,1.191,7.319,7.319,0,0,0,2.585.41,11.314,11.314,0,0,0,2.691-.294,13.434,13.434,0,0,0,2.757-.954V19.145A4.89,4.89,0,0,1,107.821,20.088Z" transform="translate(-95.968)"/></svg>