<svg xmlns="http://www.w3.org/2000/svg" width="37.875" height="36" viewBox="0 0 37.875 36"><defs><style>.a{fill:#522e90;}.b{fill:#fff;stroke:rgba(0,0,0,0);stroke-miterlimit:10;}</style></defs><g transform="translate(-791 -331)"><path class="a" d="M37.239,28.67,20.246,13.185a1.933,1.933,0,0,0-2.616,0L.636,28.67a1.942,1.942,0,0,0,1.308,3.378H4.658V47.562a1.114,1.114,0,0,0,1.114,1.114H32.1a1.114,1.114,0,0,0,1.114-1.114V32.047h2.715a1.942,1.942,0,0,0,1.308-3.378Z" transform="translate(791 318.324)"/><path class="b" d="M-10570.508,18.025a.779.779,0,0,1-.295-.413,7.059,7.059,0,0,1-.194-1.888v-.037c0-.024,0-.046,0-.088.024-.849.077-2.836,1.831-3.5a.366.366,0,0,1,.042-.013,9.723,9.723,0,0,0,2.929-1.478.729.729,0,0,1,.45-.157.728.728,0,0,1,.575.28.824.824,0,0,1,.053.078.857.857,0,0,1-.187,1.117,11.174,11.174,0,0,1-3.379,1.714c-.622.247-.766.952-.795,2.006,0,.025,0,.048,0,.069l0,.037a7.524,7.524,0,0,0,.057,1.069,12.172,12.172,0,0,0,5.955,1.559h.2l.225,0a12.1,12.1,0,0,0,5.923-1.552,7.73,7.73,0,0,0,.059-1.051c0-.042,0-.086,0-.118-.029-1.06-.173-1.766-.775-2.006a11.111,11.111,0,0,1-3.41-1.731.854.854,0,0,1-.182-1.1.735.735,0,0,1,.635-.366.727.727,0,0,1,.362.1.647.647,0,0,1,.081.054,9.8,9.8,0,0,0,2.938,1.483l.048.016c1.734.655,1.795,2.641,1.82,3.513v.038c0,.021,0,.042,0,.065a7.448,7.448,0,0,1-.18,1.889l0,.015-.006.015a.809.809,0,0,1-.287.386,13.022,13.022,0,0,1-7.246,1.975A13.037,13.037,0,0,1-10570.508,18.025Zm-.033-.475a.517.517,0,0,0,.189.253,12.739,12.739,0,0,0,7.09,1.926,12.739,12.739,0,0,1-7.09-1.926.517.517,0,0,1-.189-.253,6.833,6.833,0,0,1-.186-1.825A6.754,6.754,0,0,0-10570.541,17.55Zm14.558,0a.542.542,0,0,1-.189.253l-.007,0,.007,0a.542.542,0,0,0,.189-.253,7.148,7.148,0,0,0,.175-1.591A7.148,7.148,0,0,1-10555.983,17.55Zm-1.774-4.157c.845.334.94,1.338.965,2.256a.859.859,0,0,0,0,.1c0,.052,0,.1,0,.156,0-.052,0-.1,0-.156,0-.033,0-.066,0-.1-.024-.918-.119-1.922-.965-2.256l-.059-.018Zm-11.986,2.25c0,.037,0,.069,0,.1,0-.032,0-.064,0-.1v0Zm13.932.088v-.012Zm-12.965-2.344c.111-.034.223-.071.333-.109C-10568.555,13.315-10568.666,13.352-10568.777,13.386Zm7.575-2.417.008-.013Zm.008-.013a.459.459,0,0,1,.47-.225.449.449,0,0,0-.07-.006A.458.458,0,0,0-10561.194,10.956Zm-4.4-.213a.464.464,0,0,0-.147-.024h0A.466.466,0,0,1-10565.594,10.743Zm2.379.285h-.152a3.446,3.446,0,0,1-2.73-1.332c-1.455-1.819-1.229-4.882-1.2-5.213a4.469,4.469,0,0,1,1.911-3.889,4,4,0,0,1,2.095-.593h.063a4,4,0,0,1,2.1.61,4.443,4.443,0,0,1,1.886,3.859c.031.344.256,3.407-1.2,5.224a3.464,3.464,0,0,1-2.741,1.334Zm0-.271h0Zm2.561-1.23a4.018,4.018,0,0,0,.244-.342A4.018,4.018,0,0,1-10560.654,9.527Zm-6.374-5.033c-.024.287-.257,3.284,1.142,5.033-1.4-1.748-1.166-4.746-1.141-5.033A4.366,4.366,0,0,1-10565.5,1,4.367,4.367,0,0,0-10567.028,4.494Zm3.782,4.907h.074a2,2,0,0,0,1.576-.765c1.047-1.309.856-3.823.841-4a.284.284,0,0,1-.007-.077c-.1-2.373-1.414-2.9-2.49-2.93h-.043c-.885,0-2.385.383-2.49,2.93a.274.274,0,0,1-.006.052v.009c0,.027-.223,2.685.844,4.014a1.99,1.99,0,0,0,1.572.764h.084Zm1.5-.233a2.328,2.328,0,0,0,.358-.362A2.331,2.331,0,0,1-10561.743,9.168Zm1.256-4.573c0,.008.025.268.026.667,0-.4-.025-.659-.026-.667a.069.069,0,0,1,0-.024A.069.069,0,0,0-10560.487,4.6Zm-5.568-.032c0,.008,0,.02,0,.032,0-.012,0-.024,0-.032Zm5.564,0Zm-5.559-.115a5.134,5.134,0,0,1,.185-1.125A5.059,5.059,0,0,0-10566.05,4.449Zm.806-3.625a3.723,3.723,0,0,1,1.953-.553A3.723,3.723,0,0,0-10565.244.824Z" transform="translate(11373.001 342)"/></g></svg>