<svg xmlns="http://www.w3.org/2000/svg" width="16.5" height="16.5" viewBox="0 0 16.5 16.5"><defs><style>.a{fill:#fff;stroke:#fff;stroke-width:0.5px;}</style></defs><g transform="translate(0.25 0.25)"><path class="a" d="M13.657,2.343A8,8,0,0,0,2.343,13.657,8,8,0,1,0,13.657,2.343ZM8,15.063A7.063,7.063,0,1,1,15.063,8,7.07,7.07,0,0,1,8,15.063Z"/><g transform="translate(4.041 5.296)"><path class="a" d="M137.082,169.6a.469.469,0,0,0-.663,0l-4.139,4.139-2.179-2.179a.469.469,0,1,0-.663.663l2.51,2.51a.469.469,0,0,0,.663,0l4.471-4.471A.469.469,0,0,0,137.082,169.6Z" transform="translate(-129.301 -169.467)"/></g></g></svg>