<svg xmlns="http://www.w3.org/2000/svg" width="150" height="150" viewBox="0 0 150 150">
  <g id="Group_14334" data-name="Group 14334" transform="translate(-656 -10417)">
    <g id="Ellipse_495" data-name="Ellipse 495" transform="translate(656 10417)" fill="#8cc63f" stroke="#707070" stroke-width="1">
      <circle cx="75" cy="75" r="75" stroke="none"/>
      <circle cx="75" cy="75" r="74.5" fill="none"/>
    </g>
    <g id="Group_14309" data-name="Group 14309" transform="translate(-866 211)">
      <path id="Path_26147" data-name="Path 26147" d="M81.244,77.136H58.032a1.29,1.29,0,1,0,0,2.579H81.244a1.29,1.29,0,1,0,0-2.579ZM28.371,68.109A10.317,10.317,0,1,0,18.054,57.792,10.316,10.316,0,0,0,28.371,68.109Zm0-18.054a7.738,7.738,0,1,1-7.738,7.738A7.74,7.74,0,0,1,28.371,50.054ZM82.534,32H10.317A10.316,10.316,0,0,0,0,42.317V93.9a10.316,10.316,0,0,0,10.317,10.317H82.534A10.316,10.316,0,0,0,92.85,93.9V42.317A10.321,10.321,0,0,0,82.534,32Zm7.738,61.9a7.737,7.737,0,0,1-7.738,7.738H10.317A7.737,7.737,0,0,1,2.579,93.9V42.317a7.737,7.737,0,0,1,7.738-7.738H82.534a7.737,7.737,0,0,1,7.738,7.738ZM81.244,66.819H58.032a1.29,1.29,0,1,0,0,2.579H81.244a1.29,1.29,0,1,0,0-2.579Zm0-10.317H58.032a1.29,1.29,0,0,0,0,2.579H81.244a1.29,1.29,0,0,0,0-2.579ZM33.529,73.267H23.213a12.912,12.912,0,0,0-12.9,12.9v1.29a1.29,1.29,0,0,0,2.579,0v-1.29A10.326,10.326,0,0,1,23.213,75.846H33.529A10.326,10.326,0,0,1,43.846,86.163v1.29a1.29,1.29,0,0,0,2.579,0v-1.29A12.913,12.913,0,0,0,33.529,73.267Z" transform="translate(1552 10213)" fill="#fff"/>
    </g>
  </g>
</svg>
