<svg xmlns="http://www.w3.org/2000/svg" width="27" height="36" viewBox="0 0 27 36"><defs><style>.a{fill:#522e90;}</style></defs><g transform="translate(-64)"><g transform="translate(64)"><path class="a" d="M226.618,209.417c.844,0,2.08-2.673,2.222-6.75H224.4C224.538,206.744,225.774,209.417,226.618,209.417Z" transform="translate(-213.118 -188.417)"/><path class="a" d="M290.159,91.452a15.8,15.8,0,0,1,1.335,6.32h3.688A7.468,7.468,0,0,0,290.159,91.452Z" transform="translate(-274.257 -85.022)"/><path class="a" d="M150.411,97.772H154.1a15.8,15.8,0,0,1,1.335-6.32A7.468,7.468,0,0,0,150.411,97.772Z" transform="translate(-144.335 -85.022)"/><path class="a" d="M226.618,85.333c-.844,0-2.08,2.673-2.222,6.75h4.444C228.7,88.006,227.462,85.333,226.618,85.333Z" transform="translate(-213.118 -79.333)"/><path class="a" d="M88,0H67a3,3,0,0,0-3,3V33a3,3,0,0,0,3,3H88a3,3,0,0,0,3-3V3A3,3,0,0,0,88,0ZM82.75,31.5H72.25a.75.75,0,0,1,0-1.5h10.5a.75.75,0,0,1,0,1.5Zm3-4.5H69.25a.75.75,0,1,1,0-1.5h16.5a.75.75,0,1,1,0,1.5ZM77.5,22.5a9,9,0,1,1,9-9A9.01,9.01,0,0,1,77.5,22.5Z" transform="translate(-64)"/><path class="a" d="M290.159,208.987a7.468,7.468,0,0,0,5.022-6.32h-3.688A15.8,15.8,0,0,1,290.159,208.987Z" transform="translate(-274.257 -188.417)"/><path class="a" d="M150.411,202.667a7.468,7.468,0,0,0,5.022,6.32,15.8,15.8,0,0,1-1.335-6.32Z" transform="translate(-144.335 -188.417)"/></g></g></svg>