<svg xmlns="http://www.w3.org/2000/svg" width="72.4" height="74.321" viewBox="0 0 72.4 74.321"><defs><style>.a{fill:#8cc63f;}.b{fill:#662d91;}.c{fill:#29abe2;}.d{fill:#94d5f0;}.e{fill:#e8edef;}</style></defs><g transform="translate(-613.21 -483.072)"><path class="a" d="M685.69,519.4c0-.04,0-.08,0-.121a36.192,36.192,0,0,0-72.287-2.714C637.6,517.088,661.551,519.509,685.69,519.4Z" transform="translate(-0.083)"/><path class="b" d="M613.323,541.339c-.067.9-.113,1.8-.113,2.715a36.2,36.2,0,0,0,72.4.121C661.468,544.288,637.52,541.867,613.323,541.339Z" transform="translate(0 -24.779)"/><path class="c" d="M685.61,534.835a36.184,36.184,0,0,1-2.535,13.334H615.745a36.326,36.326,0,0,1,.787-28.507h65.756A36.058,36.058,0,0,1,685.61,534.835Z" transform="translate(0 -15.56)"/><path class="d" d="M676.843,517.158l-.464-.731-5.2-8.215-42.933,27.2,4.219,6.662,1.071,1.687,1.707,2.7a48.613,48.613,0,0,1,15.328-11.49c9.465-4.255,19.066-10.151,29.627-10.376l-2.142-5.523Z" transform="translate(-6.393 -10.691)"/><path class="e" d="M679.8,524.337a2.487,2.487,0,0,0-3.309-1.143L649,536.613l-2.082-4.322a1.076,1.076,0,0,0-1.433-.495l-20.435,9.972a1.469,1.469,0,0,0-.679,1.958l1.915,3.971-.021.01,9.748,20.217A34.358,34.358,0,0,0,689.946,545.4Z" transform="translate(-4.682 -16.958)"/></g></svg>